{
	"patcher" : 	{
		"fileversion" : 1,
		"appversion" : 		{
			"major" : 5,
			"minor" : 1,
			"revision" : 9
		}
,
		"rect" : [ 153.0, 434.0, 364.0, 336.0 ],
		"bglocked" : 0,
		"defrect" : [ 153.0, 434.0, 364.0, 336.0 ],
		"openrect" : [ 0.0, 0.0, 0.0, 0.0 ],
		"openinpresentation" : 0,
		"default_fontsize" : 12.0,
		"default_fontface" : 0,
		"default_fontname" : "Arial",
		"gridonopen" : 0,
		"gridsize" : [ 15.0, 15.0 ],
		"gridsnaponopen" : 0,
		"toolbarvisible" : 1,
		"boxanimatetime" : 200,
		"imprint" : 0,
		"enablehscroll" : 1,
		"enablevscroll" : 1,
		"devicewidth" : 0.0,
		"boxes" : [ 			{
				"box" : 				{
					"maxclass" : "message",
					"text" : "self",
					"numoutlets" : 1,
					"outlettype" : [ "" ],
					"id" : "obj-1",
					"fontname" : "Arial",
					"patching_rect" : [ 236.0, 104.0, 25.0, 15.0 ],
					"fontsize" : 9.0,
					"numinlets" : 2
				}

			}
, 			{
				"box" : 				{
					"maxclass" : "message",
					"text" : "send a longer message with numbers like 14.7 and 32",
					"linecount" : 4,
					"numoutlets" : 1,
					"outlettype" : [ "" ],
					"id" : "obj-2",
					"fontname" : "Arial",
					"patching_rect" : [ 237.0, 37.0, 90.0, 46.0 ],
					"fontsize" : 9.0,
					"numinlets" : 2
				}

			}
, 			{
				"box" : 				{
					"maxclass" : "message",
					"text" : "status",
					"numoutlets" : 1,
					"outlettype" : [ "" ],
					"id" : "obj-3",
					"fontname" : "Arial",
					"patching_rect" : [ 136.0, 104.0, 35.0, 15.0 ],
					"fontsize" : 9.0,
					"numinlets" : 2
				}

			}
, 			{
				"box" : 				{
					"maxclass" : "message",
					"text" : "sendTo 10.0.0.4 4096",
					"numoutlets" : 1,
					"outlettype" : [ "" ],
					"id" : "obj-4",
					"fontname" : "Arial",
					"patching_rect" : [ 24.0, 104.0, 109.0, 15.0 ],
					"fontsize" : 9.0,
					"numinlets" : 2
				}

			}
, 			{
				"box" : 				{
					"maxclass" : "button",
					"numoutlets" : 1,
					"outlettype" : [ "bang" ],
					"id" : "obj-5",
					"fgcolor" : [ 0.156863, 0.8, 0.54902, 1.0 ],
					"patching_rect" : [ 263.0, 104.0, 15.0, 15.0 ],
					"numinlets" : 1
				}

			}
, 			{
				"box" : 				{
					"maxclass" : "message",
					"text" : "verbose on",
					"numoutlets" : 1,
					"outlettype" : [ "" ],
					"id" : "obj-6",
					"fontname" : "Arial",
					"patching_rect" : [ 86.0, 39.0, 55.0, 15.0 ],
					"fontsize" : 9.0,
					"numinlets" : 2
				}

			}
, 			{
				"box" : 				{
					"maxclass" : "message",
					"text" : "verbose off",
					"numoutlets" : 1,
					"outlettype" : [ "" ],
					"id" : "obj-7",
					"fontname" : "Arial",
					"patching_rect" : [ 23.0, 39.0, 60.0, 15.0 ],
					"fontsize" : 9.0,
					"numinlets" : 2
				}

			}
, 			{
				"box" : 				{
					"maxclass" : "message",
					"text" : "95.5",
					"numoutlets" : 1,
					"outlettype" : [ "" ],
					"id" : "obj-8",
					"fontname" : "Arial",
					"patching_rect" : [ 206.0, 73.0, 29.0, 15.0 ],
					"fontsize" : 9.0,
					"numinlets" : 2
				}

			}
, 			{
				"box" : 				{
					"maxclass" : "button",
					"numoutlets" : 1,
					"outlettype" : [ "bang" ],
					"id" : "obj-9",
					"fgcolor" : [ 0.156863, 0.8, 0.54902, 1.0 ],
					"patching_rect" : [ 82.0, 173.0, 27.0, 27.0 ],
					"numinlets" : 1
				}

			}
, 			{
				"box" : 				{
					"maxclass" : "message",
					"text" : "send alas poor yorick",
					"numoutlets" : 1,
					"outlettype" : [ "" ],
					"id" : "obj-10",
					"fontname" : "Arial",
					"patching_rect" : [ 100.0, 73.0, 104.0, 15.0 ],
					"fontsize" : 9.0,
					"numinlets" : 2
				}

			}
, 			{
				"box" : 				{
					"maxclass" : "message",
					"text" : "55",
					"numoutlets" : 1,
					"outlettype" : [ "" ],
					"id" : "obj-11",
					"fontname" : "Arial",
					"patching_rect" : [ 77.0, 73.0, 20.0, 15.0 ],
					"fontsize" : 9.0,
					"numinlets" : 2
				}

			}
, 			{
				"box" : 				{
					"maxclass" : "newobj",
					"text" : "print udpPort",
					"numoutlets" : 0,
					"id" : "obj-12",
					"fontname" : "Arial",
					"patching_rect" : [ 10.0, 172.0, 69.0, 17.0 ],
					"fontsize" : 9.0,
					"numinlets" : 1
				}

			}
, 			{
				"box" : 				{
					"maxclass" : "newobj",
					"text" : "udpPort 8192",
					"numoutlets" : 2,
					"outlettype" : [ "", "bang" ],
					"id" : "obj-13",
					"fontname" : "Arial",
					"color" : [ 1.0, 0.890196, 0.090196, 1.0 ],
					"patching_rect" : [ 10.0, 141.0, 71.0, 17.0 ],
					"fontsize" : 9.0,
					"numinlets" : 1
				}

			}
, 			{
				"box" : 				{
					"maxclass" : "message",
					"text" : "port 40000",
					"numoutlets" : 1,
					"outlettype" : [ "" ],
					"id" : "obj-14",
					"fontname" : "Arial",
					"patching_rect" : [ 174.0, 104.0, 60.0, 15.0 ],
					"fontsize" : 9.0,
					"numinlets" : 2
				}

			}
, 			{
				"box" : 				{
					"maxclass" : "message",
					"text" : "57 12 13",
					"numoutlets" : 1,
					"outlettype" : [ "" ],
					"id" : "obj-15",
					"fontname" : "Arial",
					"patching_rect" : [ 24.0, 73.0, 50.0, 15.0 ],
					"fontsize" : 9.0,
					"numinlets" : 2
				}

			}
 ],
		"lines" : [ 			{
				"patchline" : 				{
					"source" : [ "obj-13", 1 ],
					"destination" : [ "obj-9", 0 ],
					"hidden" : 0,
					"midpoints" : [ 71.5, 165.0, 91.5, 165.0 ]
				}

			}
, 			{
				"patchline" : 				{
					"source" : [ "obj-13", 0 ],
					"destination" : [ "obj-12", 0 ],
					"hidden" : 0,
					"midpoints" : [ 19.5, 165.0, 19.5, 165.0 ]
				}

			}
, 			{
				"patchline" : 				{
					"source" : [ "obj-3", 0 ],
					"destination" : [ "obj-13", 0 ],
					"hidden" : 0,
					"midpoints" : [ 145.5, 127.0, 19.5, 127.0 ]
				}

			}
, 			{
				"patchline" : 				{
					"source" : [ "obj-5", 0 ],
					"destination" : [ "obj-13", 0 ],
					"hidden" : 0,
					"midpoints" : [ 272.0, 127.0, 19.5, 127.0 ]
				}

			}
, 			{
				"patchline" : 				{
					"source" : [ "obj-15", 0 ],
					"destination" : [ "obj-13", 0 ],
					"hidden" : 0,
					"midpoints" : [ 33.5, 97.0, 19.5, 97.0 ]
				}

			}
, 			{
				"patchline" : 				{
					"source" : [ "obj-14", 0 ],
					"destination" : [ "obj-13", 0 ],
					"hidden" : 0,
					"midpoints" : [ 183.5, 127.0, 19.5, 127.0 ]
				}

			}
, 			{
				"patchline" : 				{
					"source" : [ "obj-11", 0 ],
					"destination" : [ "obj-13", 0 ],
					"hidden" : 0,
					"midpoints" : [ 86.5, 97.0, 19.5, 97.0 ]
				}

			}
, 			{
				"patchline" : 				{
					"source" : [ "obj-10", 0 ],
					"destination" : [ "obj-13", 0 ],
					"hidden" : 0,
					"midpoints" : [ 109.5, 97.0, 19.5, 97.0 ]
				}

			}
, 			{
				"patchline" : 				{
					"source" : [ "obj-8", 0 ],
					"destination" : [ "obj-13", 0 ],
					"hidden" : 0,
					"midpoints" : [ 215.5, 97.0, 19.5, 97.0 ]
				}

			}
, 			{
				"patchline" : 				{
					"source" : [ "obj-7", 0 ],
					"destination" : [ "obj-13", 0 ],
					"hidden" : 0,
					"midpoints" : [ 32.5, 62.0, 19.5, 62.0 ]
				}

			}
, 			{
				"patchline" : 				{
					"source" : [ "obj-6", 0 ],
					"destination" : [ "obj-13", 0 ],
					"hidden" : 0,
					"midpoints" : [ 95.5, 62.0, 19.5, 62.0 ]
				}

			}
, 			{
				"patchline" : 				{
					"source" : [ "obj-4", 0 ],
					"destination" : [ "obj-13", 0 ],
					"hidden" : 0,
					"midpoints" : [ 33.5, 127.0, 19.5, 127.0 ]
				}

			}
, 			{
				"patchline" : 				{
					"source" : [ "obj-2", 0 ],
					"destination" : [ "obj-13", 0 ],
					"hidden" : 0,
					"midpoints" : [ 246.5, 97.0, 19.5, 97.0 ]
				}

			}
, 			{
				"patchline" : 				{
					"source" : [ "obj-1", 0 ],
					"destination" : [ "obj-13", 0 ],
					"hidden" : 0,
					"midpoints" : [ 245.5, 127.0, 19.5, 127.0 ]
				}

			}
 ]
	}

}
