{
	"patcher" : 	{
		"fileversion" : 1,
		"appversion" : 		{
			"major" : 5,
			"minor" : 1,
			"revision" : 9
		}
,
		"rect" : [ 528.0, 380.0, 402.0, 392.0 ],
		"bglocked" : 0,
		"defrect" : [ 528.0, 380.0, 402.0, 392.0 ],
		"openrect" : [ 0.0, 0.0, 0.0, 0.0 ],
		"openinpresentation" : 0,
		"default_fontsize" : 12.0,
		"default_fontface" : 0,
		"default_fontname" : "Arial",
		"gridonopen" : 0,
		"gridsize" : [ 15.0, 15.0 ],
		"gridsnaponopen" : 0,
		"toolbarvisible" : 1,
		"boxanimatetime" : 200,
		"imprint" : 0,
		"enablehscroll" : 1,
		"enablevscroll" : 1,
		"devicewidth" : 0.0,
		"boxes" : [ 			{
				"box" : 				{
					"maxclass" : "button",
					"patching_rect" : [ 29.0, 106.0, 15.0, 15.0 ],
					"id" : "obj-1",
					"numinlets" : 1,
					"numoutlets" : 1,
					"fgcolor" : [ 0.156863, 0.8, 0.54902, 1.0 ],
					"outlettype" : [ "bang" ]
				}

			}
, 			{
				"box" : 				{
					"maxclass" : "message",
					"text" : "0",
					"fontsize" : 9.0,
					"patching_rect" : [ 147.0, 178.0, 16.0, 17.0 ],
					"id" : "obj-2",
					"numinlets" : 2,
					"fontname" : "Geneva",
					"numoutlets" : 1,
					"outlettype" : [ "" ]
				}

			}
, 			{
				"box" : 				{
					"maxclass" : "message",
					"text" : "-2",
					"fontsize" : 9.0,
					"patching_rect" : [ 183.0, 178.0, 19.0, 17.0 ],
					"id" : "obj-3",
					"numinlets" : 2,
					"fontname" : "Geneva",
					"numoutlets" : 1,
					"outlettype" : [ "" ]
				}

			}
, 			{
				"box" : 				{
					"maxclass" : "message",
					"text" : "2",
					"fontsize" : 9.0,
					"patching_rect" : [ 52.0, 178.0, 16.0, 17.0 ],
					"id" : "obj-4",
					"numinlets" : 2,
					"fontname" : "Geneva",
					"numoutlets" : 1,
					"outlettype" : [ "" ]
				}

			}
, 			{
				"box" : 				{
					"maxclass" : "message",
					"text" : "-3",
					"fontsize" : 9.0,
					"patching_rect" : [ 312.0, 201.0, 19.0, 17.0 ],
					"id" : "obj-5",
					"numinlets" : 2,
					"fontname" : "Geneva",
					"numoutlets" : 1,
					"outlettype" : [ "" ]
				}

			}
, 			{
				"box" : 				{
					"maxclass" : "message",
					"text" : "-2",
					"fontsize" : 9.0,
					"patching_rect" : [ 292.0, 201.0, 19.0, 17.0 ],
					"id" : "obj-6",
					"numinlets" : 2,
					"fontname" : "Geneva",
					"numoutlets" : 1,
					"outlettype" : [ "" ]
				}

			}
, 			{
				"box" : 				{
					"maxclass" : "message",
					"text" : "-1",
					"fontsize" : 9.0,
					"patching_rect" : [ 272.0, 201.0, 19.0, 17.0 ],
					"id" : "obj-7",
					"numinlets" : 2,
					"fontname" : "Geneva",
					"numoutlets" : 1,
					"outlettype" : [ "" ]
				}

			}
, 			{
				"box" : 				{
					"maxclass" : "message",
					"text" : "2",
					"fontsize" : 9.0,
					"patching_rect" : [ 244.0, 201.0, 16.0, 17.0 ],
					"id" : "obj-8",
					"numinlets" : 2,
					"fontname" : "Geneva",
					"numoutlets" : 1,
					"outlettype" : [ "" ]
				}

			}
, 			{
				"box" : 				{
					"maxclass" : "message",
					"text" : "0",
					"fontsize" : 9.0,
					"patching_rect" : [ 17.0, 178.0, 16.0, 17.0 ],
					"id" : "obj-9",
					"numinlets" : 2,
					"fontname" : "Geneva",
					"numoutlets" : 1,
					"outlettype" : [ "" ]
				}

			}
, 			{
				"box" : 				{
					"maxclass" : "message",
					"text" : "-3",
					"fontsize" : 9.0,
					"patching_rect" : [ 203.0, 178.0, 19.0, 17.0 ],
					"id" : "obj-10",
					"numinlets" : 2,
					"fontname" : "Geneva",
					"numoutlets" : 1,
					"outlettype" : [ "" ]
				}

			}
, 			{
				"box" : 				{
					"maxclass" : "message",
					"text" : "3",
					"fontsize" : 9.0,
					"patching_rect" : [ 67.0, 178.0, 16.0, 17.0 ],
					"id" : "obj-11",
					"numinlets" : 2,
					"fontname" : "Geneva",
					"numoutlets" : 1,
					"outlettype" : [ "" ]
				}

			}
, 			{
				"box" : 				{
					"maxclass" : "message",
					"text" : "1",
					"fontsize" : 9.0,
					"patching_rect" : [ 34.0, 178.0, 16.0, 17.0 ],
					"id" : "obj-12",
					"numinlets" : 2,
					"fontname" : "Geneva",
					"numoutlets" : 1,
					"outlettype" : [ "" ]
				}

			}
, 			{
				"box" : 				{
					"maxclass" : "message",
					"text" : "-1",
					"fontsize" : 9.0,
					"patching_rect" : [ 162.0, 178.0, 19.0, 17.0 ],
					"id" : "obj-13",
					"numinlets" : 2,
					"fontname" : "Geneva",
					"numoutlets" : 1,
					"outlettype" : [ "" ]
				}

			}
, 			{
				"box" : 				{
					"maxclass" : "message",
					"text" : "3",
					"fontsize" : 9.0,
					"patching_rect" : [ 259.0, 201.0, 16.0, 17.0 ],
					"id" : "obj-14",
					"numinlets" : 2,
					"fontname" : "Geneva",
					"numoutlets" : 1,
					"outlettype" : [ "" ]
				}

			}
, 			{
				"box" : 				{
					"maxclass" : "message",
					"text" : "1",
					"fontsize" : 9.0,
					"patching_rect" : [ 229.0, 201.0, 16.0, 17.0 ],
					"id" : "obj-15",
					"numinlets" : 2,
					"fontname" : "Geneva",
					"numoutlets" : 1,
					"outlettype" : [ "" ]
				}

			}
, 			{
				"box" : 				{
					"maxclass" : "button",
					"patching_rect" : [ 226.0, 296.0, 15.0, 15.0 ],
					"id" : "obj-16",
					"numinlets" : 1,
					"numoutlets" : 1,
					"fgcolor" : [ 0.156863, 0.8, 0.54902, 1.0 ],
					"outlettype" : [ "bang" ]
				}

			}
, 			{
				"box" : 				{
					"maxclass" : "message",
					"text" : "bleh",
					"fontsize" : 9.0,
					"patching_rect" : [ 135.0, 296.0, 88.0, 17.0 ],
					"id" : "obj-17",
					"numinlets" : 2,
					"fontname" : "Geneva",
					"numoutlets" : 1,
					"outlettype" : [ "" ]
				}

			}
, 			{
				"box" : 				{
					"maxclass" : "newobj",
					"text" : "prepend set",
					"fontsize" : 9.0,
					"patching_rect" : [ 135.0, 263.0, 65.0, 19.0 ],
					"id" : "obj-18",
					"numinlets" : 1,
					"fontname" : "Geneva",
					"numoutlets" : 1,
					"outlettype" : [ "" ]
				}

			}
, 			{
				"box" : 				{
					"maxclass" : "newobj",
					"text" : "Vsegment -2 2",
					"fontsize" : 9.0,
					"patching_rect" : [ 135.0, 237.0, 79.0, 19.0 ],
					"id" : "obj-19",
					"numinlets" : 3,
					"color" : [ 1.0, 0.890196, 0.090196, 1.0 ],
					"fontname" : "Geneva",
					"numoutlets" : 1,
					"outlettype" : [ "" ]
				}

			}
, 			{
				"box" : 				{
					"maxclass" : "message",
					"text" : "bleh blah blih bloh bluh",
					"fontsize" : 9.0,
					"patching_rect" : [ 198.0, 89.0, 108.0, 17.0 ],
					"id" : "obj-20",
					"numinlets" : 2,
					"fontname" : "Geneva",
					"numoutlets" : 1,
					"outlettype" : [ "" ]
				}

			}
, 			{
				"box" : 				{
					"maxclass" : "message",
					"text" : "bleh blah",
					"fontsize" : 9.0,
					"patching_rect" : [ 186.0, 67.0, 47.0, 17.0 ],
					"id" : "obj-21",
					"numinlets" : 2,
					"fontname" : "Geneva",
					"numoutlets" : 1,
					"outlettype" : [ "" ]
				}

			}
, 			{
				"box" : 				{
					"maxclass" : "button",
					"patching_rect" : [ 97.0, 296.0, 15.0, 15.0 ],
					"id" : "obj-22",
					"numinlets" : 1,
					"numoutlets" : 1,
					"fgcolor" : [ 0.156863, 0.8, 0.54902, 1.0 ],
					"outlettype" : [ "bang" ]
				}

			}
, 			{
				"box" : 				{
					"maxclass" : "message",
					"text" : "blah bleh",
					"fontsize" : 9.0,
					"patching_rect" : [ 7.0, 296.0, 88.0, 17.0 ],
					"id" : "obj-23",
					"numinlets" : 2,
					"fontname" : "Geneva",
					"numoutlets" : 1,
					"outlettype" : [ "" ]
				}

			}
, 			{
				"box" : 				{
					"maxclass" : "newobj",
					"text" : "prepend set",
					"fontsize" : 9.0,
					"patching_rect" : [ 7.0, 263.0, 68.0, 19.0 ],
					"id" : "obj-24",
					"numinlets" : 1,
					"fontname" : "Geneva",
					"numoutlets" : 1,
					"outlettype" : [ "" ]
				}

			}
, 			{
				"box" : 				{
					"maxclass" : "newobj",
					"text" : "Vsegment 2 2",
					"fontsize" : 9.0,
					"patching_rect" : [ 7.0, 237.0, 81.0, 19.0 ],
					"id" : "obj-25",
					"numinlets" : 3,
					"color" : [ 1.0, 0.890196, 0.090196, 1.0 ],
					"fontname" : "Geneva",
					"numoutlets" : 1,
					"outlettype" : [ "" ]
				}

			}
, 			{
				"box" : 				{
					"maxclass" : "message",
					"text" : "blah blah blah bluh",
					"fontsize" : 9.0,
					"patching_rect" : [ 7.0, 67.0, 89.0, 17.0 ],
					"id" : "obj-26",
					"numinlets" : 2,
					"fontname" : "Geneva",
					"numoutlets" : 1,
					"outlettype" : [ "" ]
				}

			}
, 			{
				"box" : 				{
					"maxclass" : "message",
					"text" : "bluh blah blah bleh",
					"fontsize" : 9.0,
					"patching_rect" : [ 17.0, 87.0, 89.0, 17.0 ],
					"id" : "obj-27",
					"numinlets" : 2,
					"fontname" : "Geneva",
					"numoutlets" : 1,
					"outlettype" : [ "" ]
				}

			}
, 			{
				"box" : 				{
					"maxclass" : "message",
					"text" : "1 2 3 4 5",
					"fontsize" : 9.0,
					"patching_rect" : [ 103.0, 67.0, 50.0, 17.0 ],
					"id" : "obj-28",
					"numinlets" : 2,
					"fontname" : "Geneva",
					"numoutlets" : 1,
					"outlettype" : [ "" ]
				}

			}
, 			{
				"box" : 				{
					"maxclass" : "message",
					"text" : "1 2 3 blorg pi",
					"fontsize" : 9.0,
					"patching_rect" : [ 112.0, 87.0, 69.0, 17.0 ],
					"id" : "obj-29",
					"numinlets" : 2,
					"fontname" : "Geneva",
					"numoutlets" : 1,
					"outlettype" : [ "" ]
				}

			}
, 			{
				"box" : 				{
					"maxclass" : "message",
					"text" : "1 2 3 4.5 42",
					"fontsize" : 9.0,
					"patching_rect" : [ 122.0, 105.0, 65.0, 17.0 ],
					"id" : "obj-30",
					"numinlets" : 2,
					"fontname" : "Geneva",
					"numoutlets" : 1,
					"outlettype" : [ "" ]
				}

			}
, 			{
				"box" : 				{
					"maxclass" : "comment",
					"text" : "Vsegment",
					"fontsize" : 14.0,
					"patching_rect" : [ 4.0, 25.0, 78.0, 25.0 ],
					"id" : "obj-31",
					"numinlets" : 1,
					"fontname" : "Geneva",
					"numoutlets" : 0
				}

			}
, 			{
				"box" : 				{
					"maxclass" : "comment",
					"text" : "Extract elements from within a list",
					"fontsize" : 9.0,
					"patching_rect" : [ 4.0, 45.0, 174.0, 19.0 ],
					"id" : "obj-32",
					"numinlets" : 1,
					"fontname" : "Geneva",
					"numoutlets" : 0
				}

			}
, 			{
				"box" : 				{
					"maxclass" : "comment",
					"text" : "Argument: int int;\rLeft Inlet: list;\rMiddle Inlet: number;\rRight Inlet: number;\rOutlet: list",
					"linecount" : 5,
					"fontsize" : 9.0,
					"patching_rect" : [ 234.0, 21.0, 104.0, 67.0 ],
					"id" : "obj-33",
					"numinlets" : 1,
					"fontname" : "Geneva",
					"numoutlets" : 0
				}

			}
, 			{
				"box" : 				{
					"maxclass" : "comment",
					"text" : "The inlet takes an arbitrary list and outputs an arbitrary list by extracting elements from within the list.",
					"linecount" : 2,
					"fontsize" : 9.0,
					"patching_rect" : [ 1.0, 319.0, 299.0, 31.0 ],
					"id" : "obj-34",
					"numinlets" : 1,
					"fontname" : "Geneva",
					"numoutlets" : 0
				}

			}
, 			{
				"box" : 				{
					"maxclass" : "comment",
					"text" : "The arguments indicates the start of the segment and the number of elements to extract from the list.",
					"linecount" : 4,
					"fontsize" : 9.0,
					"patching_rect" : [ 206.0, 111.0, 149.0, 55.0 ],
					"id" : "obj-35",
					"numinlets" : 1,
					"fontname" : "Geneva",
					"numoutlets" : 0
				}

			}
, 			{
				"box" : 				{
					"maxclass" : "comment",
					"text" : "Number of elements",
					"fontsize" : 9.0,
					"patching_rect" : [ 235.0, 184.0, 100.0, 19.0 ],
					"id" : "obj-36",
					"numinlets" : 1,
					"fontname" : "Geneva",
					"numoutlets" : 0
				}

			}
, 			{
				"box" : 				{
					"maxclass" : "comment",
					"text" : "Starting element",
					"linecount" : 2,
					"fontsize" : 9.0,
					"patching_rect" : [ 86.0, 177.0, 46.0, 31.0 ],
					"id" : "obj-37",
					"numinlets" : 1,
					"fontname" : "Geneva",
					"numoutlets" : 0
				}

			}
 ],
		"lines" : [ 			{
				"patchline" : 				{
					"source" : [ "obj-18", 0 ],
					"destination" : [ "obj-16", 0 ],
					"hidden" : 0,
					"midpoints" : [ 144.5, 284.0, 235.0, 284.0 ]
				}

			}
, 			{
				"patchline" : 				{
					"source" : [ "obj-15", 0 ],
					"destination" : [ "obj-19", 2 ],
					"hidden" : 0,
					"midpoints" : [ 238.5, 226.0, 204.5, 226.0 ]
				}

			}
, 			{
				"patchline" : 				{
					"source" : [ "obj-14", 0 ],
					"destination" : [ "obj-19", 2 ],
					"hidden" : 0,
					"midpoints" : [ 268.5, 226.0, 204.5, 226.0 ]
				}

			}
, 			{
				"patchline" : 				{
					"source" : [ "obj-8", 0 ],
					"destination" : [ "obj-19", 2 ],
					"hidden" : 0,
					"midpoints" : [ 253.5, 226.0, 204.5, 226.0 ]
				}

			}
, 			{
				"patchline" : 				{
					"source" : [ "obj-7", 0 ],
					"destination" : [ "obj-19", 2 ],
					"hidden" : 0,
					"midpoints" : [ 281.5, 226.0, 204.5, 226.0 ]
				}

			}
, 			{
				"patchline" : 				{
					"source" : [ "obj-6", 0 ],
					"destination" : [ "obj-19", 2 ],
					"hidden" : 0,
					"midpoints" : [ 301.5, 226.0, 204.5, 226.0 ]
				}

			}
, 			{
				"patchline" : 				{
					"source" : [ "obj-5", 0 ],
					"destination" : [ "obj-19", 2 ],
					"hidden" : 0,
					"midpoints" : [ 321.5, 226.0, 204.5, 226.0 ]
				}

			}
, 			{
				"patchline" : 				{
					"source" : [ "obj-13", 0 ],
					"destination" : [ "obj-19", 1 ],
					"hidden" : 0,
					"midpoints" : [ 171.5, 210.0, 174.5, 210.0 ]
				}

			}
, 			{
				"patchline" : 				{
					"source" : [ "obj-10", 0 ],
					"destination" : [ "obj-19", 1 ],
					"hidden" : 0,
					"midpoints" : [ 212.5, 210.0, 174.5, 210.0 ]
				}

			}
, 			{
				"patchline" : 				{
					"source" : [ "obj-3", 0 ],
					"destination" : [ "obj-19", 1 ],
					"hidden" : 0,
					"midpoints" : [ 192.5, 210.0, 174.5, 210.0 ]
				}

			}
, 			{
				"patchline" : 				{
					"source" : [ "obj-2", 0 ],
					"destination" : [ "obj-19", 1 ],
					"hidden" : 0,
					"midpoints" : [ 156.5, 210.0, 174.5, 210.0 ]
				}

			}
, 			{
				"patchline" : 				{
					"source" : [ "obj-18", 0 ],
					"destination" : [ "obj-17", 0 ],
					"hidden" : 0,
					"midpoints" : [ 144.5, 284.0, 144.5, 284.0 ]
				}

			}
, 			{
				"patchline" : 				{
					"source" : [ "obj-19", 0 ],
					"destination" : [ "obj-18", 0 ],
					"hidden" : 0,
					"midpoints" : [ 144.5, 259.0, 144.5, 259.0 ]
				}

			}
, 			{
				"patchline" : 				{
					"source" : [ "obj-1", 0 ],
					"destination" : [ "obj-19", 0 ],
					"hidden" : 0,
					"midpoints" : [ 38.0, 172.0, 144.5, 172.0 ]
				}

			}
, 			{
				"patchline" : 				{
					"source" : [ "obj-30", 0 ],
					"destination" : [ "obj-19", 0 ],
					"hidden" : 0,
					"midpoints" : [ 131.5, 172.0, 144.5, 172.0 ]
				}

			}
, 			{
				"patchline" : 				{
					"source" : [ "obj-29", 0 ],
					"destination" : [ "obj-19", 0 ],
					"hidden" : 0,
					"midpoints" : [ 121.5, 172.0, 144.5, 172.0 ]
				}

			}
, 			{
				"patchline" : 				{
					"source" : [ "obj-28", 0 ],
					"destination" : [ "obj-19", 0 ],
					"hidden" : 0,
					"midpoints" : [ 112.5, 172.0, 144.5, 172.0 ]
				}

			}
, 			{
				"patchline" : 				{
					"source" : [ "obj-27", 0 ],
					"destination" : [ "obj-19", 0 ],
					"hidden" : 0,
					"midpoints" : [ 26.5, 172.0, 144.5, 172.0 ]
				}

			}
, 			{
				"patchline" : 				{
					"source" : [ "obj-26", 0 ],
					"destination" : [ "obj-19", 0 ],
					"hidden" : 0,
					"midpoints" : [ 16.5, 172.0, 144.5, 172.0 ]
				}

			}
, 			{
				"patchline" : 				{
					"source" : [ "obj-21", 0 ],
					"destination" : [ "obj-19", 0 ],
					"hidden" : 0,
					"midpoints" : [ 195.5, 172.0, 144.5, 172.0 ]
				}

			}
, 			{
				"patchline" : 				{
					"source" : [ "obj-20", 0 ],
					"destination" : [ "obj-19", 0 ],
					"hidden" : 0,
					"midpoints" : [ 207.5, 172.0, 144.5, 172.0 ]
				}

			}
, 			{
				"patchline" : 				{
					"source" : [ "obj-24", 0 ],
					"destination" : [ "obj-22", 0 ],
					"hidden" : 0,
					"midpoints" : [ 16.5, 286.0, 106.0, 286.0 ]
				}

			}
, 			{
				"patchline" : 				{
					"source" : [ "obj-14", 0 ],
					"destination" : [ "obj-25", 2 ],
					"hidden" : 0,
					"midpoints" : [ 268.5, 226.0, 78.5, 226.0 ]
				}

			}
, 			{
				"patchline" : 				{
					"source" : [ "obj-7", 0 ],
					"destination" : [ "obj-25", 2 ],
					"hidden" : 0,
					"midpoints" : [ 281.5, 226.0, 78.5, 226.0 ]
				}

			}
, 			{
				"patchline" : 				{
					"source" : [ "obj-5", 0 ],
					"destination" : [ "obj-25", 2 ],
					"hidden" : 0,
					"midpoints" : [ 321.5, 226.0, 78.5, 226.0 ]
				}

			}
, 			{
				"patchline" : 				{
					"source" : [ "obj-15", 0 ],
					"destination" : [ "obj-25", 2 ],
					"hidden" : 0,
					"midpoints" : [ 238.5, 226.0, 78.5, 226.0 ]
				}

			}
, 			{
				"patchline" : 				{
					"source" : [ "obj-8", 0 ],
					"destination" : [ "obj-25", 2 ],
					"hidden" : 0,
					"midpoints" : [ 253.5, 226.0, 78.5, 226.0 ]
				}

			}
, 			{
				"patchline" : 				{
					"source" : [ "obj-6", 0 ],
					"destination" : [ "obj-25", 2 ],
					"hidden" : 0,
					"midpoints" : [ 301.5, 226.0, 78.5, 226.0 ]
				}

			}
, 			{
				"patchline" : 				{
					"source" : [ "obj-12", 0 ],
					"destination" : [ "obj-25", 1 ],
					"hidden" : 0,
					"midpoints" : [ 43.5, 215.5, 47.5, 215.5 ]
				}

			}
, 			{
				"patchline" : 				{
					"source" : [ "obj-11", 0 ],
					"destination" : [ "obj-25", 1 ],
					"hidden" : 0,
					"midpoints" : [ 76.5, 210.0, 47.5, 210.0 ]
				}

			}
, 			{
				"patchline" : 				{
					"source" : [ "obj-9", 0 ],
					"destination" : [ "obj-25", 1 ],
					"hidden" : 0,
					"midpoints" : [ 26.5, 210.0, 47.5, 210.0 ]
				}

			}
, 			{
				"patchline" : 				{
					"source" : [ "obj-4", 0 ],
					"destination" : [ "obj-25", 1 ],
					"hidden" : 0,
					"midpoints" : [ 61.5, 210.0, 47.5, 210.0 ]
				}

			}
, 			{
				"patchline" : 				{
					"source" : [ "obj-24", 0 ],
					"destination" : [ "obj-23", 0 ],
					"hidden" : 0,
					"midpoints" : [ 16.5, 288.0, 16.5, 288.0 ]
				}

			}
, 			{
				"patchline" : 				{
					"source" : [ "obj-25", 0 ],
					"destination" : [ "obj-24", 0 ],
					"hidden" : 0,
					"midpoints" : [ 16.5, 259.0, 16.5, 259.0 ]
				}

			}
, 			{
				"patchline" : 				{
					"source" : [ "obj-30", 0 ],
					"destination" : [ "obj-25", 0 ],
					"hidden" : 0,
					"midpoints" : [ 131.5, 151.0, 16.5, 151.0 ]
				}

			}
, 			{
				"patchline" : 				{
					"source" : [ "obj-28", 0 ],
					"destination" : [ "obj-25", 0 ],
					"hidden" : 0,
					"midpoints" : [ 112.5, 151.0, 16.5, 151.0 ]
				}

			}
, 			{
				"patchline" : 				{
					"source" : [ "obj-26", 0 ],
					"destination" : [ "obj-25", 0 ],
					"hidden" : 0,
					"midpoints" : [ 16.5, 191.0, 16.5, 191.0 ]
				}

			}
, 			{
				"patchline" : 				{
					"source" : [ "obj-20", 0 ],
					"destination" : [ "obj-25", 0 ],
					"hidden" : 0,
					"midpoints" : [ 207.5, 151.0, 16.5, 151.0 ]
				}

			}
, 			{
				"patchline" : 				{
					"source" : [ "obj-1", 0 ],
					"destination" : [ "obj-25", 0 ],
					"hidden" : 0,
					"midpoints" : [ 38.0, 151.0, 16.5, 151.0 ]
				}

			}
, 			{
				"patchline" : 				{
					"source" : [ "obj-29", 0 ],
					"destination" : [ "obj-25", 0 ],
					"hidden" : 0,
					"midpoints" : [ 121.5, 151.0, 16.5, 151.0 ]
				}

			}
, 			{
				"patchline" : 				{
					"source" : [ "obj-27", 0 ],
					"destination" : [ "obj-25", 0 ],
					"hidden" : 0,
					"midpoints" : [ 26.5, 151.0, 16.5, 151.0 ]
				}

			}
, 			{
				"patchline" : 				{
					"source" : [ "obj-21", 0 ],
					"destination" : [ "obj-25", 0 ],
					"hidden" : 0,
					"midpoints" : [ 195.5, 151.0, 16.5, 151.0 ]
				}

			}
 ]
	}

}
