{
	"patcher" : 	{
		"fileversion" : 1,
		"appversion" : 		{
			"major" : 5,
			"minor" : 1,
			"revision" : 9
		}
,
		"rect" : [ 575.0, 276.0, 343.0, 295.0 ],
		"bglocked" : 0,
		"defrect" : [ 575.0, 276.0, 343.0, 295.0 ],
		"openrect" : [ 0.0, 0.0, 0.0, 0.0 ],
		"openinpresentation" : 0,
		"default_fontsize" : 12.0,
		"default_fontface" : 0,
		"default_fontname" : "Arial",
		"gridonopen" : 0,
		"gridsize" : [ 15.0, 15.0 ],
		"gridsnaponopen" : 0,
		"toolbarvisible" : 1,
		"boxanimatetime" : 200,
		"imprint" : 0,
		"enablehscroll" : 1,
		"enablevscroll" : 1,
		"devicewidth" : 0.0,
		"boxes" : [ 			{
				"box" : 				{
					"maxclass" : "comment",
					"text" : "notX takes no arguments. If the input is zero, the output will be the value one (1). If the input is non-zero, the output will be zero (0).",
					"linecount" : 3,
					"id" : "obj-1",
					"fontname" : "Geneva",
					"patching_rect" : [ 83.0, 167.0, 210.0, 43.0 ],
					"fontsize" : 9.0,
					"numinlets" : 1,
					"numoutlets" : 0
				}

			}
, 			{
				"box" : 				{
					"maxclass" : "button",
					"id" : "obj-2",
					"outlettype" : [ "bang" ],
					"fgcolor" : [ 0.156863, 0.8, 0.54902, 1.0 ],
					"patching_rect" : [ 94.0, 226.0, 15.0, 15.0 ],
					"numinlets" : 1,
					"numoutlets" : 1
				}

			}
, 			{
				"box" : 				{
					"maxclass" : "message",
					"text" : "bleh",
					"linecount" : 2,
					"id" : "obj-3",
					"outlettype" : [ "" ],
					"fontname" : "Geneva",
					"patching_rect" : [ 139.0, 117.0, 26.0, 29.0 ],
					"fontsize" : 9.0,
					"numinlets" : 2,
					"numoutlets" : 1
				}

			}
, 			{
				"box" : 				{
					"maxclass" : "message",
					"text" : "-1",
					"id" : "obj-4",
					"outlettype" : [ "" ],
					"fontname" : "Geneva",
					"patching_rect" : [ 271.0, 99.0, 19.0, 17.0 ],
					"fontsize" : 9.0,
					"numinlets" : 2,
					"numoutlets" : 1
				}

			}
, 			{
				"box" : 				{
					"maxclass" : "message",
					"text" : "1",
					"id" : "obj-5",
					"outlettype" : [ "" ],
					"fontname" : "Geneva",
					"patching_rect" : [ 260.0, 80.0, 16.0, 17.0 ],
					"fontsize" : 9.0,
					"numinlets" : 2,
					"numoutlets" : 1
				}

			}
, 			{
				"box" : 				{
					"maxclass" : "button",
					"id" : "obj-6",
					"outlettype" : [ "bang" ],
					"fgcolor" : [ 0.156863, 0.8, 0.54902, 1.0 ],
					"patching_rect" : [ 252.0, 61.0, 15.0, 15.0 ],
					"numinlets" : 1,
					"numoutlets" : 1
				}

			}
, 			{
				"box" : 				{
					"maxclass" : "message",
					"text" : "0.1",
					"id" : "obj-7",
					"outlettype" : [ "" ],
					"fontname" : "Geneva",
					"patching_rect" : [ 226.0, 61.0, 23.0, 17.0 ],
					"fontsize" : 9.0,
					"numinlets" : 2,
					"numoutlets" : 1
				}

			}
, 			{
				"box" : 				{
					"maxclass" : "message",
					"text" : "0",
					"id" : "obj-8",
					"outlettype" : [ "" ],
					"fontname" : "Geneva",
					"patching_rect" : [ 212.0, 99.0, 16.0, 17.0 ],
					"fontsize" : 9.0,
					"numinlets" : 2,
					"numoutlets" : 1
				}

			}
, 			{
				"box" : 				{
					"maxclass" : "message",
					"text" : "27",
					"id" : "obj-9",
					"outlettype" : [ "" ],
					"fontname" : "Geneva",
					"patching_rect" : [ 202.0, 80.0, 20.0, 17.0 ],
					"fontsize" : 9.0,
					"numinlets" : 2,
					"numoutlets" : 1
				}

			}
, 			{
				"box" : 				{
					"maxclass" : "message",
					"text" : "13.5",
					"id" : "obj-10",
					"outlettype" : [ "" ],
					"fontname" : "Geneva",
					"patching_rect" : [ 193.0, 61.0, 29.0, 17.0 ],
					"fontsize" : 9.0,
					"numinlets" : 2,
					"numoutlets" : 1
				}

			}
, 			{
				"box" : 				{
					"maxclass" : "message",
					"text" : "1 2 0 blorg -5",
					"id" : "obj-11",
					"outlettype" : [ "" ],
					"fontname" : "Geneva",
					"patching_rect" : [ 35.0, 117.0, 72.0, 17.0 ],
					"fontsize" : 9.0,
					"numinlets" : 2,
					"numoutlets" : 1
				}

			}
, 			{
				"box" : 				{
					"maxclass" : "message",
					"text" : "bluh 0 37.5",
					"id" : "obj-12",
					"outlettype" : [ "" ],
					"fontname" : "Geneva",
					"patching_rect" : [ 22.0, 99.0, 59.0, 17.0 ],
					"fontsize" : 9.0,
					"numinlets" : 2,
					"numoutlets" : 1
				}

			}
, 			{
				"box" : 				{
					"maxclass" : "message",
					"text" : "1",
					"id" : "obj-13",
					"outlettype" : [ "" ],
					"fontname" : "Geneva",
					"patching_rect" : [ 4.0, 226.0, 88.0, 17.0 ],
					"fontsize" : 9.0,
					"numinlets" : 2,
					"numoutlets" : 1
				}

			}
, 			{
				"box" : 				{
					"maxclass" : "newobj",
					"text" : "prepend set",
					"id" : "obj-14",
					"outlettype" : [ "" ],
					"fontname" : "Geneva",
					"patching_rect" : [ 4.0, 193.0, 65.0, 19.0 ],
					"fontsize" : 9.0,
					"numinlets" : 1,
					"numoutlets" : 1
				}

			}
, 			{
				"box" : 				{
					"maxclass" : "newobj",
					"text" : "notX",
					"id" : "obj-15",
					"outlettype" : [ "" ],
					"fontname" : "Geneva",
					"patching_rect" : [ 4.0, 167.0, 29.0, 19.0 ],
					"color" : [ 1.0, 0.890196, 0.090196, 1.0 ],
					"fontsize" : 9.0,
					"numinlets" : 1,
					"numoutlets" : 1
				}

			}
, 			{
				"box" : 				{
					"maxclass" : "message",
					"text" : "blah blah blah bluh",
					"id" : "obj-16",
					"outlettype" : [ "" ],
					"fontname" : "Geneva",
					"patching_rect" : [ 4.0, 61.0, 89.0, 17.0 ],
					"fontsize" : 9.0,
					"numinlets" : 2,
					"numoutlets" : 1
				}

			}
, 			{
				"box" : 				{
					"maxclass" : "message",
					"text" : "bluh 0 37.5 bleh",
					"id" : "obj-17",
					"outlettype" : [ "" ],
					"fontname" : "Geneva",
					"patching_rect" : [ 12.0, 80.0, 80.0, 17.0 ],
					"fontsize" : 9.0,
					"numinlets" : 2,
					"numoutlets" : 1
				}

			}
, 			{
				"box" : 				{
					"maxclass" : "message",
					"text" : "1 2 -3 4 0 5",
					"id" : "obj-18",
					"outlettype" : [ "" ],
					"fontname" : "Geneva",
					"patching_rect" : [ 110.0, 61.0, 64.0, 17.0 ],
					"fontsize" : 9.0,
					"numinlets" : 2,
					"numoutlets" : 1
				}

			}
, 			{
				"box" : 				{
					"maxclass" : "message",
					"text" : "1 2 0 blorg pi",
					"id" : "obj-19",
					"outlettype" : [ "" ],
					"fontname" : "Geneva",
					"patching_rect" : [ 119.0, 80.0, 69.0, 17.0 ],
					"fontsize" : 9.0,
					"numinlets" : 2,
					"numoutlets" : 1
				}

			}
, 			{
				"box" : 				{
					"maxclass" : "message",
					"text" : "1 2 3 4.5 42",
					"id" : "obj-20",
					"outlettype" : [ "" ],
					"fontname" : "Geneva",
					"patching_rect" : [ 129.0, 99.0, 65.0, 17.0 ],
					"fontsize" : 9.0,
					"numinlets" : 2,
					"numoutlets" : 1
				}

			}
, 			{
				"box" : 				{
					"maxclass" : "comment",
					"text" : "notX",
					"id" : "obj-21",
					"fontname" : "Geneva",
					"patching_rect" : [ 1.0, 23.0, 45.0, 25.0 ],
					"fontsize" : 14.0,
					"numinlets" : 1,
					"numoutlets" : 0
				}

			}
, 			{
				"box" : 				{
					"maxclass" : "comment",
					"text" : "Logical negation of a value",
					"id" : "obj-22",
					"fontname" : "Geneva",
					"patching_rect" : [ 1.0, 45.0, 127.0, 19.0 ],
					"fontsize" : 9.0,
					"numinlets" : 1,
					"numoutlets" : 0
				}

			}
, 			{
				"box" : 				{
					"maxclass" : "comment",
					"text" : "Argument: none;\rInlet: anything;\rOutlet: anything",
					"linecount" : 3,
					"id" : "obj-23",
					"fontname" : "Geneva",
					"patching_rect" : [ 171.0, 22.0, 104.0, 43.0 ],
					"fontsize" : 9.0,
					"numinlets" : 1,
					"numoutlets" : 0
				}

			}
 ],
		"lines" : [ 			{
				"patchline" : 				{
					"source" : [ "obj-14", 0 ],
					"destination" : [ "obj-2", 0 ],
					"hidden" : 0,
					"midpoints" : [ 13.5, 218.0, 103.0, 218.0 ]
				}

			}
, 			{
				"patchline" : 				{
					"source" : [ "obj-14", 0 ],
					"destination" : [ "obj-13", 0 ],
					"hidden" : 0,
					"midpoints" : [ 13.5, 218.0, 13.5, 218.0 ]
				}

			}
, 			{
				"patchline" : 				{
					"source" : [ "obj-15", 0 ],
					"destination" : [ "obj-14", 0 ],
					"hidden" : 0,
					"midpoints" : [ 13.5, 189.0, 13.5, 189.0 ]
				}

			}
, 			{
				"patchline" : 				{
					"source" : [ "obj-3", 0 ],
					"destination" : [ "obj-15", 0 ],
					"hidden" : 0,
					"midpoints" : [ 148.5, 151.0, 13.5, 151.0 ]
				}

			}
, 			{
				"patchline" : 				{
					"source" : [ "obj-5", 0 ],
					"destination" : [ "obj-15", 0 ],
					"hidden" : 0,
					"midpoints" : [ 269.5, 151.0, 13.5, 151.0 ]
				}

			}
, 			{
				"patchline" : 				{
					"source" : [ "obj-4", 0 ],
					"destination" : [ "obj-15", 0 ],
					"hidden" : 0,
					"midpoints" : [ 280.5, 151.0, 13.5, 151.0 ]
				}

			}
, 			{
				"patchline" : 				{
					"source" : [ "obj-6", 0 ],
					"destination" : [ "obj-15", 0 ],
					"hidden" : 0,
					"midpoints" : [ 261.0, 151.0, 13.5, 151.0 ]
				}

			}
, 			{
				"patchline" : 				{
					"source" : [ "obj-11", 0 ],
					"destination" : [ "obj-15", 0 ],
					"hidden" : 0,
					"midpoints" : [ 44.5, 151.0, 13.5, 151.0 ]
				}

			}
, 			{
				"patchline" : 				{
					"source" : [ "obj-12", 0 ],
					"destination" : [ "obj-15", 0 ],
					"hidden" : 0,
					"midpoints" : [ 31.5, 151.0, 13.5, 151.0 ]
				}

			}
, 			{
				"patchline" : 				{
					"source" : [ "obj-20", 0 ],
					"destination" : [ "obj-15", 0 ],
					"hidden" : 0,
					"midpoints" : [ 138.5, 151.0, 13.5, 151.0 ]
				}

			}
, 			{
				"patchline" : 				{
					"source" : [ "obj-18", 0 ],
					"destination" : [ "obj-15", 0 ],
					"hidden" : 0,
					"midpoints" : [ 119.5, 151.0, 13.5, 151.0 ]
				}

			}
, 			{
				"patchline" : 				{
					"source" : [ "obj-16", 0 ],
					"destination" : [ "obj-15", 0 ],
					"hidden" : 0,
					"midpoints" : [ 13.5, 151.0, 13.5, 151.0 ]
				}

			}
, 			{
				"patchline" : 				{
					"source" : [ "obj-19", 0 ],
					"destination" : [ "obj-15", 0 ],
					"hidden" : 0,
					"midpoints" : [ 128.5, 151.0, 13.5, 151.0 ]
				}

			}
, 			{
				"patchline" : 				{
					"source" : [ "obj-17", 0 ],
					"destination" : [ "obj-15", 0 ],
					"hidden" : 0,
					"midpoints" : [ 21.5, 151.0, 13.5, 151.0 ]
				}

			}
, 			{
				"patchline" : 				{
					"source" : [ "obj-9", 0 ],
					"destination" : [ "obj-15", 0 ],
					"hidden" : 0,
					"midpoints" : [ 211.5, 151.0, 13.5, 151.0 ]
				}

			}
, 			{
				"patchline" : 				{
					"source" : [ "obj-10", 0 ],
					"destination" : [ "obj-15", 0 ],
					"hidden" : 0,
					"midpoints" : [ 202.5, 151.0, 13.5, 151.0 ]
				}

			}
, 			{
				"patchline" : 				{
					"source" : [ "obj-7", 0 ],
					"destination" : [ "obj-15", 0 ],
					"hidden" : 0,
					"midpoints" : [ 235.5, 151.0, 13.5, 151.0 ]
				}

			}
, 			{
				"patchline" : 				{
					"source" : [ "obj-8", 0 ],
					"destination" : [ "obj-15", 0 ],
					"hidden" : 0,
					"midpoints" : [ 221.5, 151.0, 13.5, 151.0 ]
				}

			}
 ]
	}

}
