{
	"patcher" : 	{
		"fileversion" : 1,
		"appversion" : 		{
			"major" : 5,
			"minor" : 1,
			"revision" : 9
		}
,
		"rect" : [ 404.0, 262.0, 626.0, 423.0 ],
		"bglocked" : 0,
		"defrect" : [ 404.0, 262.0, 626.0, 423.0 ],
		"openrect" : [ 0.0, 0.0, 0.0, 0.0 ],
		"openinpresentation" : 0,
		"default_fontsize" : 12.0,
		"default_fontface" : 0,
		"default_fontname" : "Arial",
		"gridonopen" : 0,
		"gridsize" : [ 15.0, 15.0 ],
		"gridsnaponopen" : 0,
		"toolbarvisible" : 1,
		"boxanimatetime" : 200,
		"imprint" : 0,
		"enablehscroll" : 1,
		"enablevscroll" : 1,
		"devicewidth" : 0.0,
		"boxes" : [ 			{
				"box" : 				{
					"maxclass" : "newobj",
					"text" : "print <>",
					"fontsize" : 9.0,
					"patching_rect" : [ 15.0, 328.0, 47.0, 19.0 ],
					"fontname" : "Geneva",
					"id" : "obj-1",
					"numinlets" : 1,
					"numoutlets" : 0
				}

			}
, 			{
				"box" : 				{
					"maxclass" : "button",
					"outlettype" : [ "bang" ],
					"patching_rect" : [ 15.0, 296.0, 15.0, 15.0 ],
					"id" : "obj-2",
					"fgcolor" : [ 0.156863, 0.8, 0.54902, 1.0 ],
					"numinlets" : 1,
					"numoutlets" : 1
				}

			}
, 			{
				"box" : 				{
					"maxclass" : "newobj",
					"text" : "s checkers",
					"fontsize" : 9.0,
					"color" : [ 1.0, 0.541176, 0.843137, 1.0 ],
					"patching_rect" : [ 213.0, 130.0, 55.0, 19.0 ],
					"fontname" : "Geneva",
					"id" : "obj-3",
					"numinlets" : 1,
					"numoutlets" : 0
				}

			}
, 			{
				"box" : 				{
					"maxclass" : "newobj",
					"text" : "s checkers",
					"fontsize" : 9.0,
					"color" : [ 1.0, 0.541176, 0.843137, 1.0 ],
					"patching_rect" : [ 338.0, 129.0, 55.0, 19.0 ],
					"fontname" : "Geneva",
					"id" : "obj-4",
					"numinlets" : 1,
					"numoutlets" : 0
				}

			}
, 			{
				"box" : 				{
					"maxclass" : "message",
					"text" : "blap blup blop blip",
					"fontsize" : 9.0,
					"outlettype" : [ "" ],
					"patching_rect" : [ 227.0, 70.0, 90.0, 17.0 ],
					"fontname" : "Geneva",
					"id" : "obj-5",
					"numinlets" : 2,
					"numoutlets" : 1
				}

			}
, 			{
				"box" : 				{
					"maxclass" : "message",
					"text" : "blap blup blop blyp",
					"fontsize" : 9.0,
					"outlettype" : [ "" ],
					"patching_rect" : [ 347.0, 69.0, 90.0, 17.0 ],
					"fontname" : "Geneva",
					"id" : "obj-6",
					"numinlets" : 2,
					"numoutlets" : 1
				}

			}
, 			{
				"box" : 				{
					"maxclass" : "message",
					"text" : "blup blup blop blyp",
					"fontsize" : 9.0,
					"outlettype" : [ "" ],
					"patching_rect" : [ 347.0, 93.0, 97.0, 17.0 ],
					"fontname" : "Geneva",
					"id" : "obj-7",
					"numinlets" : 2,
					"numoutlets" : 1
				}

			}
, 			{
				"box" : 				{
					"maxclass" : "message",
					"text" : "blup blup blop blip",
					"fontsize" : 9.0,
					"outlettype" : [ "" ],
					"patching_rect" : [ 227.0, 95.0, 90.0, 17.0 ],
					"fontname" : "Geneva",
					"id" : "obj-8",
					"numinlets" : 2,
					"numoutlets" : 1
				}

			}
, 			{
				"box" : 				{
					"maxclass" : "message",
					"text" : "blup blep blop blip",
					"fontsize" : 9.0,
					"outlettype" : [ "" ],
					"patching_rect" : [ 227.0, 48.0, 91.0, 17.0 ],
					"fontname" : "Geneva",
					"id" : "obj-9",
					"numinlets" : 2,
					"numoutlets" : 1
				}

			}
, 			{
				"box" : 				{
					"maxclass" : "message",
					"text" : "blup blep blop blyp",
					"fontsize" : 9.0,
					"outlettype" : [ "" ],
					"patching_rect" : [ 347.0, 46.0, 92.0, 17.0 ],
					"fontname" : "Geneva",
					"id" : "obj-10",
					"numinlets" : 2,
					"numoutlets" : 1
				}

			}
, 			{
				"box" : 				{
					"maxclass" : "message",
					"text" : "blap blep blop blyp",
					"fontsize" : 9.0,
					"outlettype" : [ "" ],
					"patching_rect" : [ 347.0, 22.0, 90.0, 17.0 ],
					"fontname" : "Geneva",
					"id" : "obj-11",
					"numinlets" : 2,
					"numoutlets" : 1
				}

			}
, 			{
				"box" : 				{
					"maxclass" : "message",
					"text" : "blap blep blop blip",
					"fontsize" : 9.0,
					"outlettype" : [ "" ],
					"patching_rect" : [ 227.0, 23.0, 90.0, 17.0 ],
					"fontname" : "Geneva",
					"id" : "obj-12",
					"numinlets" : 2,
					"numoutlets" : 1
				}

			}
, 			{
				"box" : 				{
					"maxclass" : "newobj",
					"text" : "r checkers",
					"fontsize" : 9.0,
					"outlettype" : [ "" ],
					"color" : [ 1.0, 0.541176, 0.843137, 1.0 ],
					"patching_rect" : [ 25.0, 180.0, 55.0, 19.0 ],
					"fontname" : "Geneva",
					"id" : "obj-13",
					"numinlets" : 0,
					"numoutlets" : 1
				}

			}
, 			{
				"box" : 				{
					"maxclass" : "newobj",
					"text" : "print 0-1",
					"fontsize" : 9.0,
					"patching_rect" : [ 340.0, 266.0, 50.0, 19.0 ],
					"fontname" : "Geneva",
					"id" : "obj-14",
					"numinlets" : 1,
					"numoutlets" : 0
				}

			}
, 			{
				"box" : 				{
					"maxclass" : "newobj",
					"text" : "changes 0 -1",
					"fontsize" : 9.0,
					"outlettype" : [ "" ],
					"color" : [ 1.0, 0.890196, 0.090196, 1.0 ],
					"patching_rect" : [ 340.0, 236.0, 67.0, 19.0 ],
					"fontname" : "Geneva",
					"id" : "obj-15",
					"numinlets" : 1,
					"numoutlets" : 1
				}

			}
, 			{
				"box" : 				{
					"maxclass" : "newobj",
					"text" : "print 2",
					"fontsize" : 9.0,
					"patching_rect" : [ 211.0, 266.0, 39.0, 19.0 ],
					"fontname" : "Geneva",
					"id" : "obj-16",
					"numinlets" : 1,
					"numoutlets" : 0
				}

			}
, 			{
				"box" : 				{
					"maxclass" : "newobj",
					"text" : "changes 2",
					"fontsize" : 9.0,
					"outlettype" : [ "" ],
					"color" : [ 1.0, 0.890196, 0.090196, 1.0 ],
					"patching_rect" : [ 211.0, 236.0, 54.0, 19.0 ],
					"fontname" : "Geneva",
					"id" : "obj-17",
					"numinlets" : 1,
					"numoutlets" : 1
				}

			}
, 			{
				"box" : 				{
					"maxclass" : "newobj",
					"text" : "print 1-1",
					"fontsize" : 9.0,
					"patching_rect" : [ 270.0, 266.0, 50.0, 19.0 ],
					"fontname" : "Geneva",
					"id" : "obj-18",
					"numinlets" : 1,
					"numoutlets" : 0
				}

			}
, 			{
				"box" : 				{
					"maxclass" : "newobj",
					"text" : "changes 1 -1",
					"fontsize" : 9.0,
					"outlettype" : [ "" ],
					"color" : [ 1.0, 0.890196, 0.090196, 1.0 ],
					"patching_rect" : [ 270.0, 236.0, 69.0, 19.0 ],
					"fontname" : "Geneva",
					"id" : "obj-19",
					"numinlets" : 1,
					"numoutlets" : 1
				}

			}
, 			{
				"box" : 				{
					"maxclass" : "newobj",
					"text" : "changes -1",
					"fontsize" : 9.0,
					"outlettype" : [ "" ],
					"color" : [ 1.0, 0.890196, 0.090196, 1.0 ],
					"patching_rect" : [ 151.0, 236.0, 57.0, 19.0 ],
					"fontname" : "Geneva",
					"id" : "obj-20",
					"numinlets" : 1,
					"numoutlets" : 1
				}

			}
, 			{
				"box" : 				{
					"maxclass" : "newobj",
					"text" : "print -1",
					"fontsize" : 9.0,
					"patching_rect" : [ 151.0, 266.0, 44.0, 19.0 ],
					"fontname" : "Geneva",
					"id" : "obj-21",
					"numinlets" : 1,
					"numoutlets" : 0
				}

			}
, 			{
				"box" : 				{
					"maxclass" : "newobj",
					"text" : "changes 1",
					"fontsize" : 9.0,
					"outlettype" : [ "" ],
					"color" : [ 1.0, 0.890196, 0.090196, 1.0 ],
					"patching_rect" : [ 92.0, 236.0, 53.0, 19.0 ],
					"fontname" : "Geneva",
					"id" : "obj-22",
					"numinlets" : 1,
					"numoutlets" : 1
				}

			}
, 			{
				"box" : 				{
					"maxclass" : "newobj",
					"text" : "print 1",
					"fontsize" : 9.0,
					"patching_rect" : [ 92.0, 266.0, 39.0, 19.0 ],
					"fontname" : "Geneva",
					"id" : "obj-23",
					"numinlets" : 1,
					"numoutlets" : 0
				}

			}
, 			{
				"box" : 				{
					"maxclass" : "newobj",
					"text" : "print 0",
					"fontsize" : 9.0,
					"patching_rect" : [ 31.0, 266.0, 39.0, 19.0 ],
					"fontname" : "Geneva",
					"id" : "obj-24",
					"numinlets" : 1,
					"numoutlets" : 0
				}

			}
, 			{
				"box" : 				{
					"maxclass" : "newobj",
					"text" : "changes 0",
					"fontsize" : 9.0,
					"outlettype" : [ "" ],
					"color" : [ 1.0, 0.890196, 0.090196, 1.0 ],
					"patching_rect" : [ 31.0, 236.0, 57.0, 19.0 ],
					"fontname" : "Geneva",
					"id" : "obj-25",
					"numinlets" : 1,
					"numoutlets" : 1
				}

			}
, 			{
				"box" : 				{
					"maxclass" : "newobj",
					"text" : "s checkers",
					"fontsize" : 9.0,
					"color" : [ 1.0, 0.541176, 0.843137, 1.0 ],
					"patching_rect" : [ 108.0, 130.0, 55.0, 19.0 ],
					"fontname" : "Geneva",
					"id" : "obj-26",
					"numinlets" : 1,
					"numoutlets" : 0
				}

			}
, 			{
				"box" : 				{
					"maxclass" : "message",
					"text" : "1 2 3 4.5",
					"fontsize" : 9.0,
					"outlettype" : [ "" ],
					"patching_rect" : [ 120.0, 83.0, 50.0, 17.0 ],
					"fontname" : "Geneva",
					"id" : "obj-27",
					"numinlets" : 2,
					"numoutlets" : 1
				}

			}
, 			{
				"box" : 				{
					"maxclass" : "message",
					"text" : "1 2 3 blorg",
					"fontsize" : 9.0,
					"outlettype" : [ "" ],
					"patching_rect" : [ 120.0, 55.0, 58.0, 17.0 ],
					"fontname" : "Geneva",
					"id" : "obj-28",
					"numinlets" : 2,
					"numoutlets" : 1
				}

			}
, 			{
				"box" : 				{
					"maxclass" : "message",
					"text" : "1 2 3 4",
					"fontsize" : 9.0,
					"outlettype" : [ "" ],
					"patching_rect" : [ 120.0, 22.0, 41.0, 17.0 ],
					"fontname" : "Geneva",
					"id" : "obj-29",
					"numinlets" : 2,
					"numoutlets" : 1
				}

			}
, 			{
				"box" : 				{
					"maxclass" : "message",
					"text" : "bluh blah blah",
					"fontsize" : 9.0,
					"outlettype" : [ "" ],
					"patching_rect" : [ 38.0, 55.0, 68.0, 17.0 ],
					"fontname" : "Geneva",
					"id" : "obj-30",
					"numinlets" : 2,
					"numoutlets" : 1
				}

			}
, 			{
				"box" : 				{
					"maxclass" : "message",
					"text" : "blah blah blah",
					"fontsize" : 9.0,
					"outlettype" : [ "" ],
					"patching_rect" : [ 38.0, 22.0, 68.0, 17.0 ],
					"fontname" : "Geneva",
					"id" : "obj-31",
					"numinlets" : 2,
					"numoutlets" : 1
				}

			}
 ],
		"lines" : [ 			{
				"patchline" : 				{
					"source" : [ "obj-15", 0 ],
					"destination" : [ "obj-14", 0 ],
					"hidden" : 0,
					"midpoints" : [  ]
				}

			}
, 			{
				"patchline" : 				{
					"source" : [ "obj-13", 0 ],
					"destination" : [ "obj-15", 0 ],
					"hidden" : 0,
					"midpoints" : [ 34.5, 216.0, 349.5, 216.0 ]
				}

			}
, 			{
				"patchline" : 				{
					"source" : [ "obj-11", 0 ],
					"destination" : [ "obj-4", 0 ],
					"hidden" : 0,
					"midpoints" : [ 356.5, 40.0, 347.5, 40.0 ]
				}

			}
, 			{
				"patchline" : 				{
					"source" : [ "obj-10", 0 ],
					"destination" : [ "obj-4", 0 ],
					"hidden" : 0,
					"midpoints" : [ 356.5, 64.0, 347.5, 64.0 ]
				}

			}
, 			{
				"patchline" : 				{
					"source" : [ "obj-7", 0 ],
					"destination" : [ "obj-4", 0 ],
					"hidden" : 0,
					"midpoints" : [ 356.5, 112.0, 347.5, 112.0 ]
				}

			}
, 			{
				"patchline" : 				{
					"source" : [ "obj-6", 0 ],
					"destination" : [ "obj-4", 0 ],
					"hidden" : 0,
					"midpoints" : [ 356.5, 88.0, 347.5, 88.0 ]
				}

			}
, 			{
				"patchline" : 				{
					"source" : [ "obj-19", 0 ],
					"destination" : [ "obj-18", 0 ],
					"hidden" : 0,
					"midpoints" : [  ]
				}

			}
, 			{
				"patchline" : 				{
					"source" : [ "obj-13", 0 ],
					"destination" : [ "obj-19", 0 ],
					"hidden" : 0,
					"midpoints" : [ 34.5, 216.0, 279.5, 216.0 ]
				}

			}
, 			{
				"patchline" : 				{
					"source" : [ "obj-12", 0 ],
					"destination" : [ "obj-3", 0 ],
					"hidden" : 0,
					"midpoints" : [ 236.5, 42.0, 222.5, 42.0 ]
				}

			}
, 			{
				"patchline" : 				{
					"source" : [ "obj-9", 0 ],
					"destination" : [ "obj-3", 0 ],
					"hidden" : 0,
					"midpoints" : [ 236.5, 65.0, 222.5, 65.0 ]
				}

			}
, 			{
				"patchline" : 				{
					"source" : [ "obj-8", 0 ],
					"destination" : [ "obj-3", 0 ],
					"hidden" : 0,
					"midpoints" : [ 236.5, 115.0, 222.5, 115.0 ]
				}

			}
, 			{
				"patchline" : 				{
					"source" : [ "obj-5", 0 ],
					"destination" : [ "obj-3", 0 ],
					"hidden" : 0,
					"midpoints" : [ 236.5, 89.0, 222.5, 89.0 ]
				}

			}
, 			{
				"patchline" : 				{
					"source" : [ "obj-17", 0 ],
					"destination" : [ "obj-16", 0 ],
					"hidden" : 0,
					"midpoints" : [  ]
				}

			}
, 			{
				"patchline" : 				{
					"source" : [ "obj-13", 0 ],
					"destination" : [ "obj-17", 0 ],
					"hidden" : 0,
					"midpoints" : [ 34.5, 216.0, 220.5, 216.0 ]
				}

			}
, 			{
				"patchline" : 				{
					"source" : [ "obj-20", 0 ],
					"destination" : [ "obj-21", 0 ],
					"hidden" : 0,
					"midpoints" : [  ]
				}

			}
, 			{
				"patchline" : 				{
					"source" : [ "obj-13", 0 ],
					"destination" : [ "obj-20", 0 ],
					"hidden" : 0,
					"midpoints" : [ 34.5, 216.0, 160.5, 216.0 ]
				}

			}
, 			{
				"patchline" : 				{
					"source" : [ "obj-31", 0 ],
					"destination" : [ "obj-26", 0 ],
					"hidden" : 0,
					"midpoints" : [ 47.5, 46.0, 25.0, 46.0, 25.0, 114.0, 117.5, 114.0 ]
				}

			}
, 			{
				"patchline" : 				{
					"source" : [ "obj-28", 0 ],
					"destination" : [ "obj-26", 0 ],
					"hidden" : 0,
					"midpoints" : [ 129.5, 75.0, 117.5, 75.0 ]
				}

			}
, 			{
				"patchline" : 				{
					"source" : [ "obj-30", 0 ],
					"destination" : [ "obj-26", 0 ],
					"hidden" : 0,
					"midpoints" : [ 47.5, 81.0, 25.0, 81.0, 25.0, 114.0, 117.5, 114.0 ]
				}

			}
, 			{
				"patchline" : 				{
					"source" : [ "obj-29", 0 ],
					"destination" : [ "obj-26", 0 ],
					"hidden" : 0,
					"midpoints" : [ 129.5, 45.0, 117.5, 45.0 ]
				}

			}
, 			{
				"patchline" : 				{
					"source" : [ "obj-27", 0 ],
					"destination" : [ "obj-26", 0 ],
					"hidden" : 0,
					"midpoints" : [ 129.5, 110.0, 117.5, 110.0 ]
				}

			}
, 			{
				"patchline" : 				{
					"source" : [ "obj-22", 0 ],
					"destination" : [ "obj-23", 0 ],
					"hidden" : 0,
					"midpoints" : [  ]
				}

			}
, 			{
				"patchline" : 				{
					"source" : [ "obj-13", 0 ],
					"destination" : [ "obj-22", 0 ],
					"hidden" : 0,
					"midpoints" : [ 34.5, 216.0, 101.5, 216.0 ]
				}

			}
, 			{
				"patchline" : 				{
					"source" : [ "obj-25", 0 ],
					"destination" : [ "obj-24", 0 ],
					"hidden" : 0,
					"midpoints" : [  ]
				}

			}
, 			{
				"patchline" : 				{
					"source" : [ "obj-13", 0 ],
					"destination" : [ "obj-25", 0 ],
					"hidden" : 0,
					"midpoints" : [ 34.5, 216.0, 40.5, 216.0 ]
				}

			}
, 			{
				"patchline" : 				{
					"source" : [ "obj-2", 0 ],
					"destination" : [ "obj-1", 0 ],
					"hidden" : 0,
					"midpoints" : [ 24.0, 319.0, 24.5, 319.0 ]
				}

			}
, 			{
				"patchline" : 				{
					"source" : [ "obj-13", 0 ],
					"destination" : [ "obj-2", 0 ],
					"hidden" : 0,
					"midpoints" : [ 34.5, 216.0, 24.0, 216.0 ]
				}

			}
 ]
	}

}
