{
	"patcher" : 	{
		"fileversion" : 1,
		"appversion" : 		{
			"major" : 5,
			"minor" : 1,
			"revision" : 9
		}
,
		"rect" : [ 292.0, 166.0, 378.0, 317.0 ],
		"bglocked" : 0,
		"defrect" : [ 292.0, 166.0, 378.0, 317.0 ],
		"openrect" : [ 0.0, 0.0, 0.0, 0.0 ],
		"openinpresentation" : 0,
		"default_fontsize" : 12.0,
		"default_fontface" : 0,
		"default_fontname" : "Arial",
		"gridonopen" : 0,
		"gridsize" : [ 15.0, 15.0 ],
		"gridsnaponopen" : 0,
		"toolbarvisible" : 1,
		"boxanimatetime" : 200,
		"imprint" : 0,
		"enablehscroll" : 1,
		"enablevscroll" : 1,
		"devicewidth" : 0.0,
		"boxes" : [ 			{
				"box" : 				{
					"maxclass" : "button",
					"patching_rect" : [ 345.0, 247.0, 15.0, 15.0 ],
					"id" : "obj-1",
					"numinlets" : 1,
					"numoutlets" : 1,
					"fgcolor" : [ 0.156863, 0.8, 0.54902, 1.0 ],
					"outlettype" : [ "bang" ]
				}

			}
, 			{
				"box" : 				{
					"maxclass" : "newobj",
					"text" : "prepend set",
					"fontsize" : 9.0,
					"patching_rect" : [ 193.0, 193.0, 65.0, 19.0 ],
					"id" : "obj-2",
					"numinlets" : 1,
					"fontname" : "Geneva",
					"numoutlets" : 1,
					"outlettype" : [ "" ]
				}

			}
, 			{
				"box" : 				{
					"maxclass" : "newobj",
					"text" : "Vtruncate i",
					"fontsize" : 9.0,
					"patching_rect" : [ 193.0, 161.0, 58.0, 19.0 ],
					"id" : "obj-3",
					"numinlets" : 1,
					"color" : [ 1.0, 0.890196, 0.090196, 1.0 ],
					"fontname" : "Geneva",
					"numoutlets" : 1,
					"outlettype" : [ "" ]
				}

			}
, 			{
				"box" : 				{
					"maxclass" : "message",
					"text" : "15",
					"fontsize" : 9.0,
					"patching_rect" : [ 193.0, 247.0, 148.0, 17.0 ],
					"id" : "obj-4",
					"numinlets" : 2,
					"fontname" : "Geneva",
					"numoutlets" : 1,
					"outlettype" : [ "" ]
				}

			}
, 			{
				"box" : 				{
					"maxclass" : "message",
					"text" : "15",
					"fontsize" : 9.0,
					"patching_rect" : [ 165.0, 81.0, 20.0, 17.0 ],
					"id" : "obj-5",
					"numinlets" : 2,
					"fontname" : "Geneva",
					"numoutlets" : 1,
					"outlettype" : [ "" ]
				}

			}
, 			{
				"box" : 				{
					"maxclass" : "message",
					"text" : "13.2",
					"fontsize" : 9.0,
					"patching_rect" : [ 150.0, 61.0, 29.0, 17.0 ],
					"id" : "obj-6",
					"numinlets" : 2,
					"fontname" : "Geneva",
					"numoutlets" : 1,
					"outlettype" : [ "" ]
				}

			}
, 			{
				"box" : 				{
					"maxclass" : "message",
					"text" : "-1.1 2.3 4.6 -0.7",
					"fontsize" : 9.0,
					"patching_rect" : [ 52.0, 118.0, 85.0, 17.0 ],
					"id" : "obj-7",
					"numinlets" : 2,
					"fontname" : "Geneva",
					"numoutlets" : 1,
					"outlettype" : [ "" ]
				}

			}
, 			{
				"box" : 				{
					"maxclass" : "button",
					"patching_rect" : [ 175.0, 247.0, 15.0, 15.0 ],
					"id" : "obj-8",
					"numinlets" : 1,
					"numoutlets" : 1,
					"fgcolor" : [ 0.156863, 0.8, 0.54902, 1.0 ],
					"outlettype" : [ "bang" ]
				}

			}
, 			{
				"box" : 				{
					"maxclass" : "newobj",
					"text" : "prepend set",
					"fontsize" : 9.0,
					"patching_rect" : [ 23.0, 193.0, 66.0, 19.0 ],
					"id" : "obj-9",
					"numinlets" : 1,
					"fontname" : "Geneva",
					"numoutlets" : 1,
					"outlettype" : [ "" ]
				}

			}
, 			{
				"box" : 				{
					"maxclass" : "message",
					"text" : "1 2 3 4",
					"fontsize" : 9.0,
					"patching_rect" : [ 23.0, 61.0, 41.0, 17.0 ],
					"id" : "obj-10",
					"numinlets" : 2,
					"fontname" : "Geneva",
					"numoutlets" : 1,
					"outlettype" : [ "" ]
				}

			}
, 			{
				"box" : 				{
					"maxclass" : "message",
					"text" : "1 2 3 blorg",
					"fontsize" : 9.0,
					"patching_rect" : [ 32.0, 81.0, 58.0, 17.0 ],
					"id" : "obj-11",
					"numinlets" : 2,
					"fontname" : "Geneva",
					"numoutlets" : 1,
					"outlettype" : [ "" ]
				}

			}
, 			{
				"box" : 				{
					"maxclass" : "message",
					"text" : "1 2 3 4.5",
					"fontsize" : 9.0,
					"patching_rect" : [ 42.0, 99.0, 50.0, 17.0 ],
					"id" : "obj-12",
					"numinlets" : 2,
					"fontname" : "Geneva",
					"numoutlets" : 1,
					"outlettype" : [ "" ]
				}

			}
, 			{
				"box" : 				{
					"maxclass" : "newobj",
					"text" : "Vtruncate",
					"fontsize" : 9.0,
					"patching_rect" : [ 23.0, 161.0, 52.0, 19.0 ],
					"id" : "obj-13",
					"numinlets" : 1,
					"color" : [ 1.0, 0.890196, 0.090196, 1.0 ],
					"fontname" : "Geneva",
					"numoutlets" : 1,
					"outlettype" : [ "" ]
				}

			}
, 			{
				"box" : 				{
					"maxclass" : "message",
					"text" : "15",
					"fontsize" : 9.0,
					"patching_rect" : [ 23.0, 247.0, 148.0, 17.0 ],
					"id" : "obj-14",
					"numinlets" : 2,
					"fontname" : "Geneva",
					"numoutlets" : 1,
					"outlettype" : [ "" ]
				}

			}
, 			{
				"box" : 				{
					"maxclass" : "comment",
					"text" : "Vtruncate",
					"fontsize" : 14.0,
					"patching_rect" : [ 11.0, 24.0, 91.0, 25.0 ],
					"id" : "obj-15",
					"numinlets" : 1,
					"fontname" : "Geneva",
					"numoutlets" : 0
				}

			}
, 			{
				"box" : 				{
					"maxclass" : "comment",
					"text" : "Removes the fractional part of the input.",
					"fontsize" : 9.0,
					"patching_rect" : [ 11.0, 44.0, 192.0, 19.0 ],
					"id" : "obj-16",
					"numinlets" : 1,
					"fontname" : "Geneva",
					"numoutlets" : 0
				}

			}
, 			{
				"box" : 				{
					"maxclass" : "comment",
					"text" : "Argument: symbol;\rLeft Inlet: list;\rOutlet: list",
					"linecount" : 3,
					"fontsize" : 9.0,
					"patching_rect" : [ 209.0, 22.0, 93.0, 43.0 ],
					"id" : "obj-17",
					"numinlets" : 1,
					"fontname" : "Geneva",
					"numoutlets" : 0
				}

			}
 ],
		"lines" : [ 			{
				"patchline" : 				{
					"source" : [ "obj-2", 0 ],
					"destination" : [ "obj-1", 0 ],
					"hidden" : 0,
					"midpoints" : [ 202.5, 236.0, 354.0, 236.0 ]
				}

			}
, 			{
				"patchline" : 				{
					"source" : [ "obj-2", 0 ],
					"destination" : [ "obj-4", 0 ],
					"hidden" : 0,
					"midpoints" : [ 202.5, 238.0, 202.5, 238.0 ]
				}

			}
, 			{
				"patchline" : 				{
					"source" : [ "obj-3", 0 ],
					"destination" : [ "obj-2", 0 ],
					"hidden" : 0,
					"midpoints" : [ 202.5, 182.0, 202.5, 182.0 ]
				}

			}
, 			{
				"patchline" : 				{
					"source" : [ "obj-5", 0 ],
					"destination" : [ "obj-3", 0 ],
					"hidden" : 0,
					"midpoints" : [ 174.5, 145.0, 202.5, 145.0 ]
				}

			}
, 			{
				"patchline" : 				{
					"source" : [ "obj-6", 0 ],
					"destination" : [ "obj-3", 0 ],
					"hidden" : 0,
					"midpoints" : [ 159.5, 145.0, 202.5, 145.0 ]
				}

			}
, 			{
				"patchline" : 				{
					"source" : [ "obj-7", 0 ],
					"destination" : [ "obj-3", 0 ],
					"hidden" : 0,
					"midpoints" : [ 61.5, 145.0, 202.5, 145.0 ]
				}

			}
, 			{
				"patchline" : 				{
					"source" : [ "obj-10", 0 ],
					"destination" : [ "obj-3", 0 ],
					"hidden" : 0,
					"midpoints" : [ 32.5, 145.0, 202.5, 145.0 ]
				}

			}
, 			{
				"patchline" : 				{
					"source" : [ "obj-11", 0 ],
					"destination" : [ "obj-3", 0 ],
					"hidden" : 0,
					"midpoints" : [ 41.5, 145.0, 202.5, 145.0 ]
				}

			}
, 			{
				"patchline" : 				{
					"source" : [ "obj-12", 0 ],
					"destination" : [ "obj-3", 0 ],
					"hidden" : 0,
					"midpoints" : [ 51.5, 145.0, 202.5, 145.0 ]
				}

			}
, 			{
				"patchline" : 				{
					"source" : [ "obj-9", 0 ],
					"destination" : [ "obj-8", 0 ],
					"hidden" : 0,
					"midpoints" : [ 32.5, 237.0, 184.0, 237.0 ]
				}

			}
, 			{
				"patchline" : 				{
					"source" : [ "obj-9", 0 ],
					"destination" : [ "obj-14", 0 ],
					"hidden" : 0,
					"midpoints" : [ 32.5, 239.0, 32.5, 239.0 ]
				}

			}
, 			{
				"patchline" : 				{
					"source" : [ "obj-13", 0 ],
					"destination" : [ "obj-9", 0 ],
					"hidden" : 0,
					"midpoints" : [ 32.5, 183.0, 32.5, 183.0 ]
				}

			}
, 			{
				"patchline" : 				{
					"source" : [ "obj-6", 0 ],
					"destination" : [ "obj-13", 0 ],
					"hidden" : 0,
					"midpoints" : [ 159.5, 145.0, 32.5, 145.0 ]
				}

			}
, 			{
				"patchline" : 				{
					"source" : [ "obj-10", 0 ],
					"destination" : [ "obj-13", 0 ],
					"hidden" : 0,
					"midpoints" : [ 32.5, 145.0, 32.5, 145.0 ]
				}

			}
, 			{
				"patchline" : 				{
					"source" : [ "obj-12", 0 ],
					"destination" : [ "obj-13", 0 ],
					"hidden" : 0,
					"midpoints" : [ 51.5, 145.0, 32.5, 145.0 ]
				}

			}
, 			{
				"patchline" : 				{
					"source" : [ "obj-5", 0 ],
					"destination" : [ "obj-13", 0 ],
					"hidden" : 0,
					"midpoints" : [ 174.5, 145.0, 32.5, 145.0 ]
				}

			}
, 			{
				"patchline" : 				{
					"source" : [ "obj-7", 0 ],
					"destination" : [ "obj-13", 0 ],
					"hidden" : 0,
					"midpoints" : [ 61.5, 145.0, 32.5, 145.0 ]
				}

			}
, 			{
				"patchline" : 				{
					"source" : [ "obj-11", 0 ],
					"destination" : [ "obj-13", 0 ],
					"hidden" : 0,
					"midpoints" : [ 41.5, 145.0, 32.5, 145.0 ]
				}

			}
 ]
	}

}
