{
	"patcher" : 	{
		"fileversion" : 1,
		"appversion" : 		{
			"major" : 5,
			"minor" : 1,
			"revision" : 9
		}
,
		"rect" : [ 40.0, 55.0, 639.0, 574.0 ],
		"bglocked" : 0,
		"defrect" : [ 40.0, 55.0, 639.0, 574.0 ],
		"openrect" : [ 0.0, 0.0, 0.0, 0.0 ],
		"openinpresentation" : 0,
		"default_fontsize" : 12.0,
		"default_fontface" : 0,
		"default_fontname" : "Arial",
		"gridonopen" : 0,
		"gridsize" : [ 15.0, 15.0 ],
		"gridsnaponopen" : 0,
		"toolbarvisible" : 1,
		"boxanimatetime" : 200,
		"imprint" : 0,
		"enablehscroll" : 1,
		"enablevscroll" : 1,
		"devicewidth" : 0.0,
		"boxes" : [ 			{
				"box" : 				{
					"maxclass" : "message",
					"numoutlets" : 1,
					"outlettype" : [ "" ],
					"id" : "obj-1",
					"fontname" : "Geneva",
					"patching_rect" : [ 547.0, 434.0, 50.0, 17.0 ],
					"fontsize" : 9.0,
					"numinlets" : 2
				}

			}
, 			{
				"box" : 				{
					"maxclass" : "newobj",
					"text" : "prepend set",
					"linecount" : 2,
					"numoutlets" : 1,
					"outlettype" : [ "" ],
					"id" : "obj-2",
					"fontname" : "Geneva",
					"patching_rect" : [ 549.0, 404.0, 60.0, 31.0 ],
					"fontsize" : 9.0,
					"numinlets" : 1
				}

			}
, 			{
				"box" : 				{
					"maxclass" : "message",
					"text" : "listening 8193",
					"linecount" : 2,
					"numoutlets" : 1,
					"outlettype" : [ "" ],
					"id" : "obj-3",
					"fontname" : "Geneva",
					"patching_rect" : [ 485.0, 434.0, 50.0, 29.0 ],
					"fontsize" : 9.0,
					"numinlets" : 2
				}

			}
, 			{
				"box" : 				{
					"maxclass" : "newobj",
					"text" : "prepend set",
					"linecount" : 2,
					"numoutlets" : 1,
					"outlettype" : [ "" ],
					"id" : "obj-4",
					"fontname" : "Geneva",
					"patching_rect" : [ 487.0, 404.0, 60.0, 31.0 ],
					"fontsize" : 9.0,
					"numinlets" : 1
				}

			}
, 			{
				"box" : 				{
					"maxclass" : "message",
					"text" : "8",
					"numoutlets" : 1,
					"outlettype" : [ "" ],
					"id" : "obj-5",
					"fontname" : "Geneva",
					"patching_rect" : [ 423.0, 434.0, 50.0, 17.0 ],
					"fontsize" : 9.0,
					"numinlets" : 2
				}

			}
, 			{
				"box" : 				{
					"maxclass" : "newobj",
					"text" : "prepend set",
					"linecount" : 2,
					"numoutlets" : 1,
					"outlettype" : [ "" ],
					"id" : "obj-6",
					"fontname" : "Geneva",
					"patching_rect" : [ 425.0, 404.0, 60.0, 31.0 ],
					"fontsize" : 9.0,
					"numinlets" : 1
				}

			}
, 			{
				"box" : 				{
					"maxclass" : "newobj",
					"text" : "route reply status self",
					"numoutlets" : 4,
					"outlettype" : [ "", "", "", "" ],
					"id" : "obj-7",
					"fontname" : "Geneva",
					"patching_rect" : [ 454.0, 366.0, 110.0, 19.0 ],
					"fontsize" : 9.0,
					"numinlets" : 1
				}

			}
, 			{
				"box" : 				{
					"maxclass" : "newobj",
					"text" : "tcpServer 8193",
					"numoutlets" : 1,
					"outlettype" : [ "" ],
					"id" : "obj-8",
					"fontname" : "Geneva",
					"patching_rect" : [ 457.0, 334.0, 81.0, 19.0 ],
					"fontsize" : 9.0,
					"numinlets" : 1
				}

			}
, 			{
				"box" : 				{
					"maxclass" : "number",
					"numoutlets" : 2,
					"htextcolor" : [ 0.870588, 0.870588, 0.870588, 1.0 ],
					"outlettype" : [ "int", "bang" ],
					"id" : "obj-9",
					"fontname" : "Geneva",
					"triscale" : 0.9,
					"patching_rect" : [ 201.0, 282.0, 35.0, 19.0 ],
					"fontsize" : 9.0,
					"bgcolor" : [ 0.866667, 0.866667, 0.866667, 1.0 ],
					"numinlets" : 1
				}

			}
, 			{
				"box" : 				{
					"maxclass" : "newobj",
					"text" : "prepend send",
					"linecount" : 2,
					"numoutlets" : 1,
					"outlettype" : [ "" ],
					"id" : "obj-10",
					"fontname" : "Geneva",
					"patching_rect" : [ 199.0, 316.0, 65.0, 31.0 ],
					"fontsize" : 9.0,
					"numinlets" : 1
				}

			}
, 			{
				"box" : 				{
					"maxclass" : "number",
					"numoutlets" : 2,
					"htextcolor" : [ 0.870588, 0.870588, 0.870588, 1.0 ],
					"outlettype" : [ "int", "bang" ],
					"id" : "obj-11",
					"fontname" : "Geneva",
					"triscale" : 0.9,
					"patching_rect" : [ 422.0, 81.0, 35.0, 19.0 ],
					"fontsize" : 9.0,
					"bgcolor" : [ 0.866667, 0.866667, 0.866667, 1.0 ],
					"numinlets" : 1
				}

			}
, 			{
				"box" : 				{
					"maxclass" : "newobj",
					"text" : "prepend send",
					"linecount" : 2,
					"numoutlets" : 1,
					"outlettype" : [ "" ],
					"id" : "obj-12",
					"fontname" : "Geneva",
					"patching_rect" : [ 420.0, 115.0, 65.0, 31.0 ],
					"fontsize" : 9.0,
					"numinlets" : 1
				}

			}
, 			{
				"box" : 				{
					"maxclass" : "message",
					"text" : "connect",
					"linecount" : 2,
					"numoutlets" : 1,
					"outlettype" : [ "" ],
					"id" : "obj-13",
					"fontname" : "Geneva",
					"patching_rect" : [ 375.0, 102.0, 42.0, 29.0 ],
					"fontsize" : 9.0,
					"numinlets" : 2
				}

			}
, 			{
				"box" : 				{
					"maxclass" : "message",
					"numoutlets" : 1,
					"outlettype" : [ "" ],
					"id" : "obj-14",
					"fontname" : "Geneva",
					"patching_rect" : [ 435.0, 252.0, 50.0, 17.0 ],
					"fontsize" : 9.0,
					"numinlets" : 2
				}

			}
, 			{
				"box" : 				{
					"maxclass" : "newobj",
					"text" : "prepend set",
					"linecount" : 2,
					"numoutlets" : 1,
					"outlettype" : [ "" ],
					"id" : "obj-15",
					"fontname" : "Geneva",
					"patching_rect" : [ 437.0, 222.0, 60.0, 31.0 ],
					"fontsize" : 9.0,
					"numinlets" : 1
				}

			}
, 			{
				"box" : 				{
					"maxclass" : "message",
					"text" : "connected 10.17.12.90 8192",
					"linecount" : 4,
					"numoutlets" : 1,
					"outlettype" : [ "" ],
					"id" : "obj-16",
					"fontname" : "Geneva",
					"patching_rect" : [ 373.0, 252.0, 50.0, 53.0 ],
					"fontsize" : 9.0,
					"numinlets" : 2
				}

			}
, 			{
				"box" : 				{
					"maxclass" : "newobj",
					"text" : "prepend set",
					"linecount" : 2,
					"numoutlets" : 1,
					"outlettype" : [ "" ],
					"id" : "obj-17",
					"fontname" : "Geneva",
					"patching_rect" : [ 375.0, 222.0, 60.0, 31.0 ],
					"fontsize" : 9.0,
					"numinlets" : 1
				}

			}
, 			{
				"box" : 				{
					"maxclass" : "message",
					"text" : "22",
					"numoutlets" : 1,
					"outlettype" : [ "" ],
					"id" : "obj-18",
					"fontname" : "Geneva",
					"patching_rect" : [ 311.0, 252.0, 50.0, 17.0 ],
					"fontsize" : 9.0,
					"numinlets" : 2
				}

			}
, 			{
				"box" : 				{
					"maxclass" : "newobj",
					"text" : "prepend set",
					"linecount" : 2,
					"numoutlets" : 1,
					"outlettype" : [ "" ],
					"id" : "obj-19",
					"fontname" : "Geneva",
					"patching_rect" : [ 313.0, 222.0, 60.0, 31.0 ],
					"fontsize" : 9.0,
					"numinlets" : 1
				}

			}
, 			{
				"box" : 				{
					"maxclass" : "newobj",
					"text" : "route reply status self",
					"numoutlets" : 4,
					"outlettype" : [ "", "", "", "" ],
					"id" : "obj-20",
					"fontname" : "Geneva",
					"patching_rect" : [ 342.0, 184.0, 110.0, 19.0 ],
					"fontsize" : 9.0,
					"numinlets" : 1
				}

			}
, 			{
				"box" : 				{
					"maxclass" : "newobj",
					"text" : "tcpClient 10.17.12.90 8192",
					"numoutlets" : 1,
					"outlettype" : [ "" ],
					"id" : "obj-21",
					"fontname" : "Geneva",
					"patching_rect" : [ 336.0, 152.0, 135.0, 19.0 ],
					"fontsize" : 9.0,
					"numinlets" : 1
				}

			}
, 			{
				"box" : 				{
					"maxclass" : "message",
					"text" : "status",
					"linecount" : 2,
					"numoutlets" : 1,
					"outlettype" : [ "" ],
					"id" : "obj-22",
					"fontname" : "Geneva",
					"patching_rect" : [ 284.0, 112.0, 35.0, 29.0 ],
					"fontsize" : 9.0,
					"numinlets" : 2
				}

			}
, 			{
				"box" : 				{
					"maxclass" : "message",
					"numoutlets" : 1,
					"outlettype" : [ "" ],
					"id" : "obj-23",
					"fontname" : "Geneva",
					"patching_rect" : [ 362.0, 435.0, 50.0, 17.0 ],
					"fontsize" : 9.0,
					"numinlets" : 2
				}

			}
, 			{
				"box" : 				{
					"maxclass" : "newobj",
					"text" : "prepend set",
					"linecount" : 2,
					"numoutlets" : 1,
					"outlettype" : [ "" ],
					"id" : "obj-24",
					"fontname" : "Geneva",
					"patching_rect" : [ 364.0, 405.0, 60.0, 31.0 ],
					"fontsize" : 9.0,
					"numinlets" : 1
				}

			}
, 			{
				"box" : 				{
					"maxclass" : "message",
					"text" : "connected 10.17.12.90 49358 8192",
					"linecount" : 6,
					"numoutlets" : 1,
					"outlettype" : [ "" ],
					"id" : "obj-25",
					"fontname" : "Geneva",
					"patching_rect" : [ 300.0, 435.0, 50.0, 77.0 ],
					"fontsize" : 9.0,
					"numinlets" : 2
				}

			}
, 			{
				"box" : 				{
					"maxclass" : "newobj",
					"text" : "prepend set",
					"linecount" : 2,
					"numoutlets" : 1,
					"outlettype" : [ "" ],
					"id" : "obj-26",
					"fontname" : "Geneva",
					"patching_rect" : [ 302.0, 405.0, 60.0, 31.0 ],
					"fontsize" : 9.0,
					"numinlets" : 1
				}

			}
, 			{
				"box" : 				{
					"maxclass" : "message",
					"text" : "19",
					"numoutlets" : 1,
					"outlettype" : [ "" ],
					"id" : "obj-27",
					"fontname" : "Geneva",
					"patching_rect" : [ 238.0, 435.0, 50.0, 17.0 ],
					"fontsize" : 9.0,
					"numinlets" : 2
				}

			}
, 			{
				"box" : 				{
					"maxclass" : "newobj",
					"text" : "prepend set",
					"linecount" : 2,
					"numoutlets" : 1,
					"outlettype" : [ "" ],
					"id" : "obj-28",
					"fontname" : "Geneva",
					"patching_rect" : [ 240.0, 405.0, 60.0, 31.0 ],
					"fontsize" : 9.0,
					"numinlets" : 1
				}

			}
, 			{
				"box" : 				{
					"maxclass" : "newobj",
					"text" : "route reply status self",
					"numoutlets" : 4,
					"outlettype" : [ "", "", "", "" ],
					"id" : "obj-29",
					"fontname" : "Geneva",
					"patching_rect" : [ 269.0, 367.0, 110.0, 19.0 ],
					"fontsize" : 9.0,
					"numinlets" : 1
				}

			}
, 			{
				"box" : 				{
					"maxclass" : "message",
					"numoutlets" : 1,
					"outlettype" : [ "" ],
					"id" : "obj-30",
					"fontname" : "Geneva",
					"patching_rect" : [ 217.0, 257.0, 50.0, 17.0 ],
					"fontsize" : 9.0,
					"numinlets" : 2
				}

			}
, 			{
				"box" : 				{
					"maxclass" : "newobj",
					"text" : "prepend set",
					"linecount" : 2,
					"numoutlets" : 1,
					"outlettype" : [ "" ],
					"id" : "obj-31",
					"fontname" : "Geneva",
					"patching_rect" : [ 219.0, 227.0, 60.0, 31.0 ],
					"fontsize" : 9.0,
					"numinlets" : 1
				}

			}
, 			{
				"box" : 				{
					"maxclass" : "message",
					"text" : "bound",
					"numoutlets" : 1,
					"outlettype" : [ "" ],
					"id" : "obj-32",
					"fontname" : "Geneva",
					"patching_rect" : [ 155.0, 257.0, 50.0, 17.0 ],
					"fontsize" : 9.0,
					"numinlets" : 2
				}

			}
, 			{
				"box" : 				{
					"maxclass" : "newobj",
					"text" : "prepend set",
					"linecount" : 2,
					"numoutlets" : 1,
					"outlettype" : [ "" ],
					"id" : "obj-33",
					"fontname" : "Geneva",
					"patching_rect" : [ 157.0, 227.0, 60.0, 31.0 ],
					"fontsize" : 9.0,
					"numinlets" : 1
				}

			}
, 			{
				"box" : 				{
					"maxclass" : "message",
					"numoutlets" : 1,
					"outlettype" : [ "" ],
					"id" : "obj-34",
					"fontname" : "Geneva",
					"patching_rect" : [ 93.0, 257.0, 50.0, 17.0 ],
					"fontsize" : 9.0,
					"numinlets" : 2
				}

			}
, 			{
				"box" : 				{
					"maxclass" : "newobj",
					"text" : "prepend set",
					"linecount" : 2,
					"numoutlets" : 1,
					"outlettype" : [ "" ],
					"id" : "obj-35",
					"fontname" : "Geneva",
					"patching_rect" : [ 95.0, 227.0, 60.0, 31.0 ],
					"fontsize" : 9.0,
					"numinlets" : 1
				}

			}
, 			{
				"box" : 				{
					"maxclass" : "newobj",
					"text" : "route reply status self",
					"numoutlets" : 4,
					"outlettype" : [ "", "", "", "" ],
					"id" : "obj-36",
					"fontname" : "Geneva",
					"patching_rect" : [ 124.0, 189.0, 110.0, 19.0 ],
					"fontsize" : 9.0,
					"numinlets" : 1
				}

			}
, 			{
				"box" : 				{
					"maxclass" : "message",
					"text" : "connect",
					"linecount" : 2,
					"numoutlets" : 1,
					"outlettype" : [ "" ],
					"id" : "obj-37",
					"fontname" : "Geneva",
					"patching_rect" : [ 122.0, 109.0, 42.0, 29.0 ],
					"fontsize" : 9.0,
					"numinlets" : 2
				}

			}
, 			{
				"box" : 				{
					"maxclass" : "message",
					"text" : "listen on",
					"numoutlets" : 1,
					"outlettype" : [ "" ],
					"id" : "obj-38",
					"fontname" : "Geneva",
					"patching_rect" : [ 319.0, 280.0, 45.0, 17.0 ],
					"fontsize" : 9.0,
					"numinlets" : 2
				}

			}
, 			{
				"box" : 				{
					"maxclass" : "newobj",
					"text" : "tcpServer 8192",
					"numoutlets" : 1,
					"outlettype" : [ "" ],
					"id" : "obj-39",
					"fontname" : "Geneva",
					"patching_rect" : [ 272.0, 335.0, 81.0, 19.0 ],
					"fontsize" : 9.0,
					"numinlets" : 1
				}

			}
, 			{
				"box" : 				{
					"maxclass" : "newobj",
					"text" : "tcpClient 127.0.0.1 8192",
					"numoutlets" : 1,
					"outlettype" : [ "" ],
					"id" : "obj-40",
					"fontname" : "Geneva",
					"patching_rect" : [ 129.0, 155.0, 123.0, 19.0 ],
					"fontsize" : 9.0,
					"numinlets" : 1
				}

			}
, 			{
				"box" : 				{
					"maxclass" : "newobj",
					"text" : "tcpClient 10.17.12.6 8192",
					"numoutlets" : 0,
					"id" : "obj-41",
					"fontname" : "Geneva",
					"patching_rect" : [ 214.0, 59.0, 136.0, 19.0 ],
					"fontsize" : 9.0,
					"numinlets" : 0
				}

			}
, 			{
				"box" : 				{
					"maxclass" : "newobj",
					"text" : "tcpClient 10.17.12.5 8192",
					"numoutlets" : 0,
					"id" : "obj-42",
					"fontname" : "Geneva",
					"patching_rect" : [ 65.0, 59.0, 129.0, 19.0 ],
					"fontsize" : 9.0,
					"numinlets" : 0
				}

			}
 ],
		"lines" : [ 			{
				"patchline" : 				{
					"source" : [ "obj-7", 2 ],
					"destination" : [ "obj-2", 0 ],
					"hidden" : 0,
					"midpoints" : [  ]
				}

			}
, 			{
				"patchline" : 				{
					"source" : [ "obj-2", 0 ],
					"destination" : [ "obj-1", 0 ],
					"hidden" : 0,
					"midpoints" : [  ]
				}

			}
, 			{
				"patchline" : 				{
					"source" : [ "obj-7", 1 ],
					"destination" : [ "obj-4", 0 ],
					"hidden" : 0,
					"midpoints" : [  ]
				}

			}
, 			{
				"patchline" : 				{
					"source" : [ "obj-4", 0 ],
					"destination" : [ "obj-3", 0 ],
					"hidden" : 0,
					"midpoints" : [  ]
				}

			}
, 			{
				"patchline" : 				{
					"source" : [ "obj-22", 0 ],
					"destination" : [ "obj-8", 0 ],
					"hidden" : 0,
					"midpoints" : [  ]
				}

			}
, 			{
				"patchline" : 				{
					"source" : [ "obj-38", 0 ],
					"destination" : [ "obj-8", 0 ],
					"hidden" : 0,
					"midpoints" : [  ]
				}

			}
, 			{
				"patchline" : 				{
					"source" : [ "obj-8", 0 ],
					"destination" : [ "obj-7", 0 ],
					"hidden" : 0,
					"midpoints" : [  ]
				}

			}
, 			{
				"patchline" : 				{
					"source" : [ "obj-20", 2 ],
					"destination" : [ "obj-15", 0 ],
					"hidden" : 0,
					"midpoints" : [  ]
				}

			}
, 			{
				"patchline" : 				{
					"source" : [ "obj-15", 0 ],
					"destination" : [ "obj-14", 0 ],
					"hidden" : 0,
					"midpoints" : [  ]
				}

			}
, 			{
				"patchline" : 				{
					"source" : [ "obj-7", 0 ],
					"destination" : [ "obj-6", 0 ],
					"hidden" : 0,
					"midpoints" : [  ]
				}

			}
, 			{
				"patchline" : 				{
					"source" : [ "obj-6", 0 ],
					"destination" : [ "obj-5", 0 ],
					"hidden" : 0,
					"midpoints" : [  ]
				}

			}
, 			{
				"patchline" : 				{
					"source" : [ "obj-11", 0 ],
					"destination" : [ "obj-12", 0 ],
					"hidden" : 0,
					"midpoints" : [  ]
				}

			}
, 			{
				"patchline" : 				{
					"source" : [ "obj-20", 1 ],
					"destination" : [ "obj-17", 0 ],
					"hidden" : 0,
					"midpoints" : [  ]
				}

			}
, 			{
				"patchline" : 				{
					"source" : [ "obj-17", 0 ],
					"destination" : [ "obj-16", 0 ],
					"hidden" : 0,
					"midpoints" : [  ]
				}

			}
, 			{
				"patchline" : 				{
					"source" : [ "obj-29", 2 ],
					"destination" : [ "obj-24", 0 ],
					"hidden" : 0,
					"midpoints" : [  ]
				}

			}
, 			{
				"patchline" : 				{
					"source" : [ "obj-24", 0 ],
					"destination" : [ "obj-23", 0 ],
					"hidden" : 0,
					"midpoints" : [  ]
				}

			}
, 			{
				"patchline" : 				{
					"source" : [ "obj-21", 0 ],
					"destination" : [ "obj-20", 0 ],
					"hidden" : 0,
					"midpoints" : [  ]
				}

			}
, 			{
				"patchline" : 				{
					"source" : [ "obj-13", 0 ],
					"destination" : [ "obj-21", 0 ],
					"hidden" : 0,
					"midpoints" : [  ]
				}

			}
, 			{
				"patchline" : 				{
					"source" : [ "obj-12", 0 ],
					"destination" : [ "obj-21", 0 ],
					"hidden" : 0,
					"midpoints" : [  ]
				}

			}
, 			{
				"patchline" : 				{
					"source" : [ "obj-22", 0 ],
					"destination" : [ "obj-21", 0 ],
					"hidden" : 0,
					"midpoints" : [  ]
				}

			}
, 			{
				"patchline" : 				{
					"source" : [ "obj-20", 0 ],
					"destination" : [ "obj-19", 0 ],
					"hidden" : 0,
					"midpoints" : [  ]
				}

			}
, 			{
				"patchline" : 				{
					"source" : [ "obj-19", 0 ],
					"destination" : [ "obj-18", 0 ],
					"hidden" : 0,
					"midpoints" : [  ]
				}

			}
, 			{
				"patchline" : 				{
					"source" : [ "obj-29", 1 ],
					"destination" : [ "obj-26", 0 ],
					"hidden" : 0,
					"midpoints" : [  ]
				}

			}
, 			{
				"patchline" : 				{
					"source" : [ "obj-26", 0 ],
					"destination" : [ "obj-25", 0 ],
					"hidden" : 0,
					"midpoints" : [  ]
				}

			}
, 			{
				"patchline" : 				{
					"source" : [ "obj-10", 0 ],
					"destination" : [ "obj-39", 0 ],
					"hidden" : 0,
					"midpoints" : [  ]
				}

			}
, 			{
				"patchline" : 				{
					"source" : [ "obj-22", 0 ],
					"destination" : [ "obj-39", 0 ],
					"hidden" : 0,
					"midpoints" : [  ]
				}

			}
, 			{
				"patchline" : 				{
					"source" : [ "obj-38", 0 ],
					"destination" : [ "obj-39", 0 ],
					"hidden" : 0,
					"midpoints" : [  ]
				}

			}
, 			{
				"patchline" : 				{
					"source" : [ "obj-39", 0 ],
					"destination" : [ "obj-29", 0 ],
					"hidden" : 0,
					"midpoints" : [  ]
				}

			}
, 			{
				"patchline" : 				{
					"source" : [ "obj-29", 0 ],
					"destination" : [ "obj-28", 0 ],
					"hidden" : 0,
					"midpoints" : [  ]
				}

			}
, 			{
				"patchline" : 				{
					"source" : [ "obj-28", 0 ],
					"destination" : [ "obj-27", 0 ],
					"hidden" : 0,
					"midpoints" : [  ]
				}

			}
, 			{
				"patchline" : 				{
					"source" : [ "obj-36", 2 ],
					"destination" : [ "obj-31", 0 ],
					"hidden" : 0,
					"midpoints" : [  ]
				}

			}
, 			{
				"patchline" : 				{
					"source" : [ "obj-31", 0 ],
					"destination" : [ "obj-30", 0 ],
					"hidden" : 0,
					"midpoints" : [  ]
				}

			}
, 			{
				"patchline" : 				{
					"source" : [ "obj-9", 0 ],
					"destination" : [ "obj-10", 0 ],
					"hidden" : 0,
					"midpoints" : [  ]
				}

			}
, 			{
				"patchline" : 				{
					"source" : [ "obj-36", 1 ],
					"destination" : [ "obj-33", 0 ],
					"hidden" : 0,
					"midpoints" : [  ]
				}

			}
, 			{
				"patchline" : 				{
					"source" : [ "obj-33", 0 ],
					"destination" : [ "obj-32", 0 ],
					"hidden" : 0,
					"midpoints" : [  ]
				}

			}
, 			{
				"patchline" : 				{
					"source" : [ "obj-37", 0 ],
					"destination" : [ "obj-40", 0 ],
					"hidden" : 0,
					"midpoints" : [  ]
				}

			}
, 			{
				"patchline" : 				{
					"source" : [ "obj-22", 0 ],
					"destination" : [ "obj-40", 0 ],
					"hidden" : 0,
					"midpoints" : [  ]
				}

			}
, 			{
				"patchline" : 				{
					"source" : [ "obj-40", 0 ],
					"destination" : [ "obj-36", 0 ],
					"hidden" : 0,
					"midpoints" : [  ]
				}

			}
, 			{
				"patchline" : 				{
					"source" : [ "obj-36", 0 ],
					"destination" : [ "obj-35", 0 ],
					"hidden" : 0,
					"midpoints" : [  ]
				}

			}
, 			{
				"patchline" : 				{
					"source" : [ "obj-35", 0 ],
					"destination" : [ "obj-34", 0 ],
					"hidden" : 0,
					"midpoints" : [  ]
				}

			}
 ]
	}

}
