{
	"patcher" : 	{
		"fileversion" : 1,
		"appversion" : 		{
			"major" : 5,
			"minor" : 1,
			"revision" : 9
		}
,
		"rect" : [ 246.0, 197.0, 298.0, 326.0 ],
		"bglocked" : 0,
		"defrect" : [ 246.0, 197.0, 298.0, 326.0 ],
		"openrect" : [ 0.0, 0.0, 0.0, 0.0 ],
		"openinpresentation" : 0,
		"default_fontsize" : 12.0,
		"default_fontface" : 0,
		"default_fontname" : "Arial",
		"gridonopen" : 0,
		"gridsize" : [ 15.0, 15.0 ],
		"gridsnaponopen" : 0,
		"toolbarvisible" : 1,
		"boxanimatetime" : 200,
		"imprint" : 0,
		"enablehscroll" : 1,
		"enablevscroll" : 1,
		"devicewidth" : 0.0,
		"boxes" : [ 			{
				"box" : 				{
					"maxclass" : "message",
					"text" : "status",
					"linecount" : 2,
					"patching_rect" : [ 52.0, 153.0, 35.0, 29.0 ],
					"id" : "obj-1",
					"fontsize" : 9.0,
					"numinlets" : 2,
					"numoutlets" : 1,
					"outlettype" : [ "" ],
					"fontname" : "Geneva"
				}

			}
, 			{
				"box" : 				{
					"maxclass" : "button",
					"patching_rect" : [ 34.0, 153.0, 15.0, 15.0 ],
					"id" : "obj-2",
					"numinlets" : 1,
					"numoutlets" : 1,
					"outlettype" : [ "bang" ],
					"fgcolor" : [ 0.156863, 0.8, 0.54902, 1.0 ]
				}

			}
, 			{
				"box" : 				{
					"maxclass" : "message",
					"text" : "disconnect",
					"linecount" : 2,
					"patching_rect" : [ 136.0, 121.0, 55.0, 29.0 ],
					"id" : "obj-3",
					"fontsize" : 9.0,
					"numinlets" : 2,
					"numoutlets" : 1,
					"outlettype" : [ "" ],
					"fontname" : "Geneva"
				}

			}
, 			{
				"box" : 				{
					"maxclass" : "message",
					"text" : "verbose off",
					"patching_rect" : [ 33.0, 26.0, 60.0, 17.0 ],
					"id" : "obj-4",
					"fontsize" : 9.0,
					"numinlets" : 2,
					"numoutlets" : 1,
					"outlettype" : [ "" ],
					"fontname" : "Geneva"
				}

			}
, 			{
				"box" : 				{
					"maxclass" : "message",
					"text" : "verbose on",
					"linecount" : 2,
					"patching_rect" : [ 96.0, 26.0, 55.0, 29.0 ],
					"id" : "obj-5",
					"fontsize" : 9.0,
					"numinlets" : 2,
					"numoutlets" : 1,
					"outlettype" : [ "" ],
					"fontname" : "Geneva"
				}

			}
, 			{
				"box" : 				{
					"maxclass" : "message",
					"text" : "1 2 3 4",
					"patching_rect" : [ 200.0, 60.0, 41.0, 17.0 ],
					"id" : "obj-6",
					"fontsize" : 9.0,
					"numinlets" : 2,
					"numoutlets" : 1,
					"outlettype" : [ "" ],
					"fontname" : "Geneva"
				}

			}
, 			{
				"box" : 				{
					"maxclass" : "message",
					"text" : "98.75",
					"patching_rect" : [ 162.0, 60.0, 35.0, 17.0 ],
					"id" : "obj-7",
					"fontsize" : 9.0,
					"numinlets" : 2,
					"numoutlets" : 1,
					"outlettype" : [ "" ],
					"fontname" : "Geneva"
				}

			}
, 			{
				"box" : 				{
					"maxclass" : "message",
					"text" : "42",
					"patching_rect" : [ 140.0, 60.0, 20.0, 17.0 ],
					"id" : "obj-8",
					"fontsize" : 9.0,
					"numinlets" : 2,
					"numoutlets" : 1,
					"outlettype" : [ "" ],
					"fontname" : "Geneva"
				}

			}
, 			{
				"box" : 				{
					"maxclass" : "message",
					"text" : "send I knew him well",
					"patching_rect" : [ 33.0, 60.0, 101.0, 17.0 ],
					"id" : "obj-9",
					"fontsize" : 9.0,
					"numinlets" : 2,
					"numoutlets" : 1,
					"outlettype" : [ "" ],
					"fontname" : "Geneva"
				}

			}
, 			{
				"box" : 				{
					"maxclass" : "newobj",
					"text" : "tcpServer 8192",
					"patching_rect" : [ 20.0, 197.0, 81.0, 19.0 ],
					"id" : "obj-10",
					"fontsize" : 9.0,
					"numinlets" : 1,
					"color" : [ 1.0, 0.890196, 0.090196, 1.0 ],
					"numoutlets" : 2,
					"outlettype" : [ "", "" ],
					"fontname" : "Geneva"
				}

			}
, 			{
				"box" : 				{
					"maxclass" : "message",
					"text" : "listen off",
					"patching_rect" : [ 82.0, 121.0, 49.0, 17.0 ],
					"id" : "obj-11",
					"fontsize" : 9.0,
					"numinlets" : 2,
					"numoutlets" : 1,
					"outlettype" : [ "" ],
					"fontname" : "Geneva"
				}

			}
, 			{
				"box" : 				{
					"maxclass" : "newobj",
					"text" : "print server",
					"patching_rect" : [ 20.0, 231.0, 64.0, 19.0 ],
					"id" : "obj-12",
					"fontsize" : 9.0,
					"numinlets" : 1,
					"numoutlets" : 0,
					"fontname" : "Geneva"
				}

			}
, 			{
				"box" : 				{
					"maxclass" : "button",
					"patching_rect" : [ 102.0, 246.0, 27.0, 27.0 ],
					"id" : "obj-13",
					"numinlets" : 1,
					"numoutlets" : 1,
					"outlettype" : [ "bang" ],
					"fgcolor" : [ 0.156863, 0.8, 0.54902, 1.0 ]
				}

			}
, 			{
				"box" : 				{
					"maxclass" : "message",
					"text" : "port 4096",
					"patching_rect" : [ 33.0, 90.0, 54.0, 17.0 ],
					"id" : "obj-14",
					"fontsize" : 9.0,
					"numinlets" : 2,
					"numoutlets" : 1,
					"outlettype" : [ "" ],
					"fontname" : "Geneva"
				}

			}
, 			{
				"box" : 				{
					"maxclass" : "message",
					"text" : "listen on",
					"patching_rect" : [ 33.0, 121.0, 45.0, 17.0 ],
					"id" : "obj-15",
					"fontsize" : 9.0,
					"numinlets" : 2,
					"numoutlets" : 1,
					"outlettype" : [ "" ],
					"fontname" : "Geneva"
				}

			}
 ],
		"lines" : [ 			{
				"patchline" : 				{
					"source" : [ "obj-10", 1 ],
					"destination" : [ "obj-13", 0 ],
					"hidden" : 0,
					"midpoints" : [ 91.5, 230.0, 111.5, 230.0 ]
				}

			}
, 			{
				"patchline" : 				{
					"source" : [ "obj-10", 0 ],
					"destination" : [ "obj-12", 0 ],
					"hidden" : 0,
					"midpoints" : [ 29.5, 217.0, 29.5, 217.0 ]
				}

			}
, 			{
				"patchline" : 				{
					"source" : [ "obj-1", 0 ],
					"destination" : [ "obj-10", 0 ],
					"hidden" : 0,
					"midpoints" : [ 61.5, 180.0, 29.5, 180.0 ]
				}

			}
, 			{
				"patchline" : 				{
					"source" : [ "obj-3", 0 ],
					"destination" : [ "obj-10", 0 ],
					"hidden" : 0,
					"midpoints" : [ 145.5, 145.0, 29.5, 145.0 ]
				}

			}
, 			{
				"patchline" : 				{
					"source" : [ "obj-4", 0 ],
					"destination" : [ "obj-10", 0 ],
					"hidden" : 0,
					"midpoints" : [ 42.5, 52.0, 29.5, 52.0 ]
				}

			}
, 			{
				"patchline" : 				{
					"source" : [ "obj-5", 0 ],
					"destination" : [ "obj-10", 0 ],
					"hidden" : 0,
					"midpoints" : [ 105.5, 52.0, 29.5, 52.0 ]
				}

			}
, 			{
				"patchline" : 				{
					"source" : [ "obj-7", 0 ],
					"destination" : [ "obj-10", 0 ],
					"hidden" : 0,
					"midpoints" : [ 171.5, 83.0, 29.5, 83.0 ]
				}

			}
, 			{
				"patchline" : 				{
					"source" : [ "obj-6", 0 ],
					"destination" : [ "obj-10", 0 ],
					"hidden" : 0,
					"midpoints" : [ 209.5, 83.0, 29.5, 83.0 ]
				}

			}
, 			{
				"patchline" : 				{
					"source" : [ "obj-8", 0 ],
					"destination" : [ "obj-10", 0 ],
					"hidden" : 0,
					"midpoints" : [ 149.5, 83.0, 29.5, 83.0 ]
				}

			}
, 			{
				"patchline" : 				{
					"source" : [ "obj-9", 0 ],
					"destination" : [ "obj-10", 0 ],
					"hidden" : 0,
					"midpoints" : [ 42.5, 83.0, 29.5, 83.0 ]
				}

			}
, 			{
				"patchline" : 				{
					"source" : [ "obj-11", 0 ],
					"destination" : [ "obj-10", 0 ],
					"hidden" : 0,
					"midpoints" : [ 91.5, 145.0, 29.5, 145.0 ]
				}

			}
, 			{
				"patchline" : 				{
					"source" : [ "obj-15", 0 ],
					"destination" : [ "obj-10", 0 ],
					"hidden" : 0,
					"midpoints" : [ 42.5, 145.0, 29.5, 145.0 ]
				}

			}
, 			{
				"patchline" : 				{
					"source" : [ "obj-14", 0 ],
					"destination" : [ "obj-10", 0 ],
					"hidden" : 0,
					"midpoints" : [ 42.5, 112.0, 29.5, 112.0 ]
				}

			}
, 			{
				"patchline" : 				{
					"source" : [ "obj-2", 0 ],
					"destination" : [ "obj-10", 0 ],
					"hidden" : 0,
					"midpoints" : [ 43.0, 180.0, 29.5, 180.0 ]
				}

			}
 ]
	}

}
