{
	"patcher" : 	{
		"fileversion" : 1,
		"appversion" : 		{
			"major" : 5,
			"minor" : 1,
			"revision" : 9
		}
,
		"rect" : [ 246.0, 197.0, 364.0, 336.0 ],
		"bglocked" : 0,
		"defrect" : [ 246.0, 197.0, 364.0, 336.0 ],
		"openrect" : [ 0.0, 0.0, 0.0, 0.0 ],
		"openinpresentation" : 0,
		"default_fontsize" : 12.0,
		"default_fontface" : 0,
		"default_fontname" : "Arial",
		"gridonopen" : 0,
		"gridsize" : [ 15.0, 15.0 ],
		"gridsnaponopen" : 0,
		"toolbarvisible" : 1,
		"boxanimatetime" : 200,
		"imprint" : 0,
		"enablehscroll" : 1,
		"enablevscroll" : 1,
		"devicewidth" : 0.0,
		"boxes" : [ 			{
				"box" : 				{
					"maxclass" : "message",
					"text" : "send a longer message with numbers like 14.7 and 32",
					"linecount" : 4,
					"patching_rect" : [ 237.0, 37.0, 90.0, 53.0 ],
					"id" : "obj-1",
					"fontsize" : 9.0,
					"numinlets" : 2,
					"numoutlets" : 1,
					"outlettype" : [ "" ],
					"fontname" : "Geneva"
				}

			}
, 			{
				"box" : 				{
					"maxclass" : "message",
					"text" : "status",
					"linecount" : 2,
					"patching_rect" : [ 108.0, 104.0, 35.0, 29.0 ],
					"id" : "obj-2",
					"fontsize" : 9.0,
					"numinlets" : 2,
					"numoutlets" : 1,
					"outlettype" : [ "" ],
					"fontname" : "Geneva"
				}

			}
, 			{
				"box" : 				{
					"maxclass" : "message",
					"text" : "server 10.0.0.4",
					"patching_rect" : [ 24.0, 104.0, 81.0, 17.0 ],
					"id" : "obj-3",
					"fontsize" : 9.0,
					"numinlets" : 2,
					"numoutlets" : 1,
					"outlettype" : [ "" ],
					"fontname" : "Geneva"
				}

			}
, 			{
				"box" : 				{
					"maxclass" : "button",
					"patching_rect" : [ 24.0, 166.0, 15.0, 15.0 ],
					"id" : "obj-4",
					"numinlets" : 1,
					"numoutlets" : 1,
					"outlettype" : [ "bang" ],
					"fgcolor" : [ 0.156863, 0.8, 0.54902, 1.0 ]
				}

			}
, 			{
				"box" : 				{
					"maxclass" : "message",
					"text" : "verbose on",
					"linecount" : 2,
					"patching_rect" : [ 86.0, 39.0, 55.0, 29.0 ],
					"id" : "obj-5",
					"fontsize" : 9.0,
					"numinlets" : 2,
					"numoutlets" : 1,
					"outlettype" : [ "" ],
					"fontname" : "Geneva"
				}

			}
, 			{
				"box" : 				{
					"maxclass" : "message",
					"text" : "verbose off",
					"patching_rect" : [ 23.0, 39.0, 60.0, 17.0 ],
					"id" : "obj-6",
					"fontsize" : 9.0,
					"numinlets" : 2,
					"numoutlets" : 1,
					"outlettype" : [ "" ],
					"fontname" : "Geneva"
				}

			}
, 			{
				"box" : 				{
					"maxclass" : "message",
					"text" : "95.5",
					"patching_rect" : [ 206.0, 73.0, 29.0, 17.0 ],
					"id" : "obj-7",
					"fontsize" : 9.0,
					"numinlets" : 2,
					"numoutlets" : 1,
					"outlettype" : [ "" ],
					"fontname" : "Geneva"
				}

			}
, 			{
				"box" : 				{
					"maxclass" : "button",
					"patching_rect" : [ 130.0, 259.0, 27.0, 27.0 ],
					"id" : "obj-8",
					"numinlets" : 1,
					"numoutlets" : 1,
					"outlettype" : [ "bang" ],
					"fgcolor" : [ 0.156863, 0.8, 0.54902, 1.0 ]
				}

			}
, 			{
				"box" : 				{
					"maxclass" : "message",
					"text" : "send alas poor yorick",
					"patching_rect" : [ 100.0, 73.0, 104.0, 17.0 ],
					"id" : "obj-9",
					"fontsize" : 9.0,
					"numinlets" : 2,
					"numoutlets" : 1,
					"outlettype" : [ "" ],
					"fontname" : "Geneva"
				}

			}
, 			{
				"box" : 				{
					"maxclass" : "message",
					"text" : "55",
					"patching_rect" : [ 77.0, 73.0, 20.0, 17.0 ],
					"id" : "obj-10",
					"fontsize" : 9.0,
					"numinlets" : 2,
					"numoutlets" : 1,
					"outlettype" : [ "" ],
					"fontname" : "Geneva"
				}

			}
, 			{
				"box" : 				{
					"maxclass" : "newobj",
					"text" : "print client",
					"patching_rect" : [ 11.0, 244.0, 58.0, 19.0 ],
					"id" : "obj-11",
					"fontsize" : 9.0,
					"numinlets" : 1,
					"numoutlets" : 0,
					"fontname" : "Geneva"
				}

			}
, 			{
				"box" : 				{
					"maxclass" : "message",
					"text" : "disconnect",
					"linecount" : 2,
					"patching_rect" : [ 69.0, 134.0, 55.0, 29.0 ],
					"id" : "obj-12",
					"fontsize" : 9.0,
					"numinlets" : 2,
					"numoutlets" : 1,
					"outlettype" : [ "" ],
					"fontname" : "Geneva"
				}

			}
, 			{
				"box" : 				{
					"maxclass" : "newobj",
					"text" : "tcpClient 10.17.12.3 8192",
					"patching_rect" : [ 11.0, 210.0, 129.0, 19.0 ],
					"id" : "obj-13",
					"fontsize" : 9.0,
					"numinlets" : 1,
					"color" : [ 1.0, 0.890196, 0.090196, 1.0 ],
					"numoutlets" : 2,
					"outlettype" : [ "", "" ],
					"fontname" : "Geneva"
				}

			}
, 			{
				"box" : 				{
					"maxclass" : "message",
					"text" : "connect",
					"linecount" : 2,
					"patching_rect" : [ 24.0, 134.0, 42.0, 29.0 ],
					"id" : "obj-14",
					"fontsize" : 9.0,
					"numinlets" : 2,
					"numoutlets" : 1,
					"outlettype" : [ "" ],
					"fontname" : "Geneva"
				}

			}
, 			{
				"box" : 				{
					"maxclass" : "message",
					"text" : "port 40000",
					"patching_rect" : [ 127.0, 134.0, 60.0, 17.0 ],
					"id" : "obj-15",
					"fontsize" : 9.0,
					"numinlets" : 2,
					"numoutlets" : 1,
					"outlettype" : [ "" ],
					"fontname" : "Geneva"
				}

			}
, 			{
				"box" : 				{
					"maxclass" : "message",
					"text" : "57 12 13",
					"patching_rect" : [ 24.0, 73.0, 50.0, 17.0 ],
					"id" : "obj-16",
					"fontsize" : 9.0,
					"numinlets" : 2,
					"numoutlets" : 1,
					"outlettype" : [ "" ],
					"fontname" : "Geneva"
				}

			}
 ],
		"lines" : [ 			{
				"patchline" : 				{
					"source" : [ "obj-13", 1 ],
					"destination" : [ "obj-8", 0 ],
					"hidden" : 0,
					"midpoints" : [ 130.5, 242.0, 139.5, 242.0 ]
				}

			}
, 			{
				"patchline" : 				{
					"source" : [ "obj-13", 0 ],
					"destination" : [ "obj-11", 0 ],
					"hidden" : 0,
					"midpoints" : [ 20.5, 234.0, 20.5, 234.0 ]
				}

			}
, 			{
				"patchline" : 				{
					"source" : [ "obj-2", 0 ],
					"destination" : [ "obj-13", 0 ],
					"hidden" : 0,
					"midpoints" : [ 117.5, 127.0, 20.5, 127.0 ]
				}

			}
, 			{
				"patchline" : 				{
					"source" : [ "obj-4", 0 ],
					"destination" : [ "obj-13", 0 ],
					"hidden" : 0,
					"midpoints" : [ 33.0, 194.0, 20.5, 194.0 ]
				}

			}
, 			{
				"patchline" : 				{
					"source" : [ "obj-16", 0 ],
					"destination" : [ "obj-13", 0 ],
					"hidden" : 0,
					"midpoints" : [ 33.5, 97.0, 20.5, 97.0 ]
				}

			}
, 			{
				"patchline" : 				{
					"source" : [ "obj-15", 0 ],
					"destination" : [ "obj-13", 0 ],
					"hidden" : 0,
					"midpoints" : [ 136.5, 160.0, 20.5, 160.0 ]
				}

			}
, 			{
				"patchline" : 				{
					"source" : [ "obj-14", 0 ],
					"destination" : [ "obj-13", 0 ],
					"hidden" : 0,
					"midpoints" : [ 33.5, 160.0, 20.5, 160.0 ]
				}

			}
, 			{
				"patchline" : 				{
					"source" : [ "obj-12", 0 ],
					"destination" : [ "obj-13", 0 ],
					"hidden" : 0,
					"midpoints" : [ 78.5, 160.0, 20.5, 160.0 ]
				}

			}
, 			{
				"patchline" : 				{
					"source" : [ "obj-10", 0 ],
					"destination" : [ "obj-13", 0 ],
					"hidden" : 0,
					"midpoints" : [ 86.5, 97.0, 20.5, 97.0 ]
				}

			}
, 			{
				"patchline" : 				{
					"source" : [ "obj-9", 0 ],
					"destination" : [ "obj-13", 0 ],
					"hidden" : 0,
					"midpoints" : [ 109.5, 97.0, 20.5, 97.0 ]
				}

			}
, 			{
				"patchline" : 				{
					"source" : [ "obj-7", 0 ],
					"destination" : [ "obj-13", 0 ],
					"hidden" : 0,
					"midpoints" : [ 215.5, 97.0, 20.5, 97.0 ]
				}

			}
, 			{
				"patchline" : 				{
					"source" : [ "obj-6", 0 ],
					"destination" : [ "obj-13", 0 ],
					"hidden" : 0,
					"midpoints" : [ 32.5, 62.0, 20.5, 62.0 ]
				}

			}
, 			{
				"patchline" : 				{
					"source" : [ "obj-5", 0 ],
					"destination" : [ "obj-13", 0 ],
					"hidden" : 0,
					"midpoints" : [ 95.5, 62.0, 20.5, 62.0 ]
				}

			}
, 			{
				"patchline" : 				{
					"source" : [ "obj-3", 0 ],
					"destination" : [ "obj-13", 0 ],
					"hidden" : 0,
					"midpoints" : [ 33.5, 127.0, 20.5, 127.0 ]
				}

			}
, 			{
				"patchline" : 				{
					"source" : [ "obj-1", 0 ],
					"destination" : [ "obj-13", 0 ],
					"hidden" : 0,
					"midpoints" : [ 246.5, 97.0, 20.5, 97.0 ]
				}

			}
 ]
	}

}
