{
	"patcher" : 	{
		"fileversion" : 1,
		"appversion" : 		{
			"major" : 5,
			"minor" : 1,
			"revision" : 9
		}
,
		"rect" : [ 444.0, 219.0, 375.0, 322.0 ],
		"bglocked" : 0,
		"defrect" : [ 444.0, 219.0, 375.0, 322.0 ],
		"openrect" : [ 0.0, 0.0, 0.0, 0.0 ],
		"openinpresentation" : 0,
		"default_fontsize" : 12.0,
		"default_fontface" : 0,
		"default_fontname" : "Arial",
		"gridonopen" : 0,
		"gridsize" : [ 15.0, 15.0 ],
		"gridsnaponopen" : 0,
		"toolbarvisible" : 1,
		"boxanimatetime" : 200,
		"imprint" : 0,
		"enablehscroll" : 1,
		"enablevscroll" : 1,
		"devicewidth" : 0.0,
		"boxes" : [ 			{
				"box" : 				{
					"maxclass" : "button",
					"patching_rect" : [ 337.0, 251.0, 15.0, 15.0 ],
					"id" : "obj-1",
					"numinlets" : 1,
					"numoutlets" : 1,
					"fgcolor" : [ 0.156863, 0.8, 0.54902, 1.0 ],
					"outlettype" : [ "bang" ]
				}

			}
, 			{
				"box" : 				{
					"maxclass" : "newobj",
					"text" : "prepend set",
					"fontsize" : 9.0,
					"patching_rect" : [ 185.0, 197.0, 78.0, 19.0 ],
					"id" : "obj-2",
					"numinlets" : 1,
					"fontname" : "Geneva",
					"numoutlets" : 1,
					"outlettype" : [ "" ]
				}

			}
, 			{
				"box" : 				{
					"maxclass" : "newobj",
					"text" : "Vround i",
					"fontsize" : 9.0,
					"patching_rect" : [ 185.0, 165.0, 51.0, 19.0 ],
					"id" : "obj-3",
					"numinlets" : 1,
					"color" : [ 1.0, 0.890196, 0.090196, 1.0 ],
					"fontname" : "Geneva",
					"numoutlets" : 1,
					"outlettype" : [ "" ]
				}

			}
, 			{
				"box" : 				{
					"maxclass" : "message",
					"text" : "-1 2 5 -1",
					"fontsize" : 9.0,
					"patching_rect" : [ 185.0, 251.0, 148.0, 17.0 ],
					"id" : "obj-4",
					"numinlets" : 2,
					"fontname" : "Geneva",
					"numoutlets" : 1,
					"outlettype" : [ "" ]
				}

			}
, 			{
				"box" : 				{
					"maxclass" : "message",
					"text" : "15",
					"fontsize" : 9.0,
					"patching_rect" : [ 157.0, 85.0, 20.0, 17.0 ],
					"id" : "obj-5",
					"numinlets" : 2,
					"fontname" : "Geneva",
					"numoutlets" : 1,
					"outlettype" : [ "" ]
				}

			}
, 			{
				"box" : 				{
					"maxclass" : "message",
					"text" : "13.2",
					"fontsize" : 9.0,
					"patching_rect" : [ 142.0, 65.0, 29.0, 17.0 ],
					"id" : "obj-6",
					"numinlets" : 2,
					"fontname" : "Geneva",
					"numoutlets" : 1,
					"outlettype" : [ "" ]
				}

			}
, 			{
				"box" : 				{
					"maxclass" : "message",
					"text" : "-1.1 2.3 4.6 -0.7",
					"fontsize" : 9.0,
					"patching_rect" : [ 44.0, 122.0, 85.0, 17.0 ],
					"id" : "obj-7",
					"numinlets" : 2,
					"fontname" : "Geneva",
					"numoutlets" : 1,
					"outlettype" : [ "" ]
				}

			}
, 			{
				"box" : 				{
					"maxclass" : "button",
					"patching_rect" : [ 167.0, 251.0, 15.0, 15.0 ],
					"id" : "obj-8",
					"numinlets" : 1,
					"numoutlets" : 1,
					"fgcolor" : [ 0.156863, 0.8, 0.54902, 1.0 ],
					"outlettype" : [ "bang" ]
				}

			}
, 			{
				"box" : 				{
					"maxclass" : "newobj",
					"text" : "prepend set",
					"fontsize" : 9.0,
					"patching_rect" : [ 15.0, 197.0, 71.0, 19.0 ],
					"id" : "obj-9",
					"numinlets" : 1,
					"fontname" : "Geneva",
					"numoutlets" : 1,
					"outlettype" : [ "" ]
				}

			}
, 			{
				"box" : 				{
					"maxclass" : "message",
					"text" : "1 2 3 4",
					"fontsize" : 9.0,
					"patching_rect" : [ 15.0, 65.0, 41.0, 17.0 ],
					"id" : "obj-10",
					"numinlets" : 2,
					"fontname" : "Geneva",
					"numoutlets" : 1,
					"outlettype" : [ "" ]
				}

			}
, 			{
				"box" : 				{
					"maxclass" : "message",
					"text" : "1 2 3 blorg",
					"fontsize" : 9.0,
					"patching_rect" : [ 24.0, 85.0, 58.0, 17.0 ],
					"id" : "obj-11",
					"numinlets" : 2,
					"fontname" : "Geneva",
					"numoutlets" : 1,
					"outlettype" : [ "" ]
				}

			}
, 			{
				"box" : 				{
					"maxclass" : "message",
					"text" : "1 2 3 4.5",
					"fontsize" : 9.0,
					"patching_rect" : [ 34.0, 103.0, 50.0, 17.0 ],
					"id" : "obj-12",
					"numinlets" : 2,
					"fontname" : "Geneva",
					"numoutlets" : 1,
					"outlettype" : [ "" ]
				}

			}
, 			{
				"box" : 				{
					"maxclass" : "newobj",
					"text" : "Vround",
					"fontsize" : 9.0,
					"patching_rect" : [ 15.0, 165.0, 49.0, 19.0 ],
					"id" : "obj-13",
					"numinlets" : 1,
					"color" : [ 1.0, 0.890196, 0.090196, 1.0 ],
					"fontname" : "Geneva",
					"numoutlets" : 1,
					"outlettype" : [ "" ]
				}

			}
, 			{
				"box" : 				{
					"maxclass" : "message",
					"text" : "-1. 2. 5. -1.",
					"fontsize" : 9.0,
					"patching_rect" : [ 15.0, 251.0, 148.0, 17.0 ],
					"id" : "obj-14",
					"numinlets" : 2,
					"fontname" : "Geneva",
					"numoutlets" : 1,
					"outlettype" : [ "" ]
				}

			}
, 			{
				"box" : 				{
					"maxclass" : "comment",
					"text" : "Vround",
					"fontsize" : 14.0,
					"patching_rect" : [ 7.0, 24.0, 85.0, 25.0 ],
					"id" : "obj-15",
					"numinlets" : 1,
					"fontname" : "Geneva",
					"numoutlets" : 0
				}

			}
, 			{
				"box" : 				{
					"maxclass" : "comment",
					"text" : "Rounds the input to the nearest integer.",
					"fontsize" : 9.0,
					"patching_rect" : [ 7.0, 44.0, 193.0, 19.0 ],
					"id" : "obj-16",
					"numinlets" : 1,
					"fontname" : "Geneva",
					"numoutlets" : 0
				}

			}
, 			{
				"box" : 				{
					"maxclass" : "comment",
					"text" : "Argument: symbol;\rLeft Inlet: list;\rOutlet: list",
					"linecount" : 3,
					"fontsize" : 9.0,
					"patching_rect" : [ 206.0, 22.0, 93.0, 43.0 ],
					"id" : "obj-17",
					"numinlets" : 1,
					"fontname" : "Geneva",
					"numoutlets" : 0
				}

			}
 ],
		"lines" : [ 			{
				"patchline" : 				{
					"source" : [ "obj-2", 0 ],
					"destination" : [ "obj-1", 0 ],
					"hidden" : 0,
					"midpoints" : [ 194.5, 240.0, 346.0, 240.0 ]
				}

			}
, 			{
				"patchline" : 				{
					"source" : [ "obj-2", 0 ],
					"destination" : [ "obj-4", 0 ],
					"hidden" : 0,
					"midpoints" : [ 194.5, 242.0, 194.5, 242.0 ]
				}

			}
, 			{
				"patchline" : 				{
					"source" : [ "obj-3", 0 ],
					"destination" : [ "obj-2", 0 ],
					"hidden" : 0,
					"midpoints" : [ 194.5, 186.0, 194.5, 186.0 ]
				}

			}
, 			{
				"patchline" : 				{
					"source" : [ "obj-5", 0 ],
					"destination" : [ "obj-3", 0 ],
					"hidden" : 0,
					"midpoints" : [ 166.5, 149.0, 194.5, 149.0 ]
				}

			}
, 			{
				"patchline" : 				{
					"source" : [ "obj-6", 0 ],
					"destination" : [ "obj-3", 0 ],
					"hidden" : 0,
					"midpoints" : [ 151.5, 149.0, 194.5, 149.0 ]
				}

			}
, 			{
				"patchline" : 				{
					"source" : [ "obj-7", 0 ],
					"destination" : [ "obj-3", 0 ],
					"hidden" : 0,
					"midpoints" : [ 53.5, 149.0, 194.5, 149.0 ]
				}

			}
, 			{
				"patchline" : 				{
					"source" : [ "obj-10", 0 ],
					"destination" : [ "obj-3", 0 ],
					"hidden" : 0,
					"midpoints" : [ 24.5, 149.0, 194.5, 149.0 ]
				}

			}
, 			{
				"patchline" : 				{
					"source" : [ "obj-11", 0 ],
					"destination" : [ "obj-3", 0 ],
					"hidden" : 0,
					"midpoints" : [ 33.5, 149.0, 194.5, 149.0 ]
				}

			}
, 			{
				"patchline" : 				{
					"source" : [ "obj-12", 0 ],
					"destination" : [ "obj-3", 0 ],
					"hidden" : 0,
					"midpoints" : [ 43.5, 149.0, 194.5, 149.0 ]
				}

			}
, 			{
				"patchline" : 				{
					"source" : [ "obj-9", 0 ],
					"destination" : [ "obj-8", 0 ],
					"hidden" : 0,
					"midpoints" : [ 24.5, 241.0, 176.0, 241.0 ]
				}

			}
, 			{
				"patchline" : 				{
					"source" : [ "obj-9", 0 ],
					"destination" : [ "obj-14", 0 ],
					"hidden" : 0,
					"midpoints" : [ 24.5, 243.0, 24.5, 243.0 ]
				}

			}
, 			{
				"patchline" : 				{
					"source" : [ "obj-13", 0 ],
					"destination" : [ "obj-9", 0 ],
					"hidden" : 0,
					"midpoints" : [ 24.5, 187.0, 24.5, 187.0 ]
				}

			}
, 			{
				"patchline" : 				{
					"source" : [ "obj-6", 0 ],
					"destination" : [ "obj-13", 0 ],
					"hidden" : 0,
					"midpoints" : [ 151.5, 149.0, 24.5, 149.0 ]
				}

			}
, 			{
				"patchline" : 				{
					"source" : [ "obj-10", 0 ],
					"destination" : [ "obj-13", 0 ],
					"hidden" : 0,
					"midpoints" : [ 24.5, 149.0, 24.5, 149.0 ]
				}

			}
, 			{
				"patchline" : 				{
					"source" : [ "obj-12", 0 ],
					"destination" : [ "obj-13", 0 ],
					"hidden" : 0,
					"midpoints" : [ 43.5, 149.0, 24.5, 149.0 ]
				}

			}
, 			{
				"patchline" : 				{
					"source" : [ "obj-5", 0 ],
					"destination" : [ "obj-13", 0 ],
					"hidden" : 0,
					"midpoints" : [ 166.5, 149.0, 24.5, 149.0 ]
				}

			}
, 			{
				"patchline" : 				{
					"source" : [ "obj-7", 0 ],
					"destination" : [ "obj-13", 0 ],
					"hidden" : 0,
					"midpoints" : [ 53.5, 149.0, 24.5, 149.0 ]
				}

			}
, 			{
				"patchline" : 				{
					"source" : [ "obj-11", 0 ],
					"destination" : [ "obj-13", 0 ],
					"hidden" : 0,
					"midpoints" : [ 33.5, 149.0, 24.5, 149.0 ]
				}

			}
 ]
	}

}
