{
	"patcher" : 	{
		"fileversion" : 1,
		"appversion" : 		{
			"major" : 5,
			"minor" : 1,
			"revision" : 9
		}
,
		"rect" : [ 243.0, 108.0, 612.0, 447.0 ],
		"bglocked" : 0,
		"defrect" : [ 243.0, 108.0, 612.0, 447.0 ],
		"openrect" : [ 0.0, 0.0, 0.0, 0.0 ],
		"openinpresentation" : 0,
		"default_fontsize" : 12.0,
		"default_fontface" : 0,
		"default_fontname" : "Arial",
		"gridonopen" : 0,
		"gridsize" : [ 15.0, 15.0 ],
		"gridsnaponopen" : 0,
		"toolbarvisible" : 1,
		"boxanimatetime" : 200,
		"imprint" : 0,
		"enablehscroll" : 1,
		"enablevscroll" : 1,
		"devicewidth" : 0.0,
		"boxes" : [ 			{
				"box" : 				{
					"maxclass" : "newobj",
					"text" : "prepend recall",
					"id" : "obj-1",
					"fontname" : "Geneva",
					"fontsize" : 9.0,
					"numinlets" : 1,
					"numoutlets" : 1,
					"outlettype" : [ "" ],
					"patching_rect" : [ 436.0, 232.0, 72.0, 19.0 ]
				}

			}
, 			{
				"box" : 				{
					"maxclass" : "message",
					"text" : "blirg",
					"id" : "obj-2",
					"fontname" : "Geneva",
					"fontsize" : 9.0,
					"numinlets" : 2,
					"numoutlets" : 1,
					"outlettype" : [ "" ],
					"patching_rect" : [ 564.0, 190.0, 29.0, 17.0 ]
				}

			}
, 			{
				"box" : 				{
					"maxclass" : "message",
					"text" : "blorg",
					"id" : "obj-3",
					"fontname" : "Geneva",
					"fontsize" : 9.0,
					"numinlets" : 2,
					"numoutlets" : 1,
					"outlettype" : [ "" ],
					"patching_rect" : [ 533.0, 190.0, 32.0, 17.0 ]
				}

			}
, 			{
				"box" : 				{
					"maxclass" : "message",
					"text" : "blarg",
					"id" : "obj-4",
					"fontname" : "Geneva",
					"fontsize" : 9.0,
					"numinlets" : 2,
					"numoutlets" : 1,
					"outlettype" : [ "" ],
					"patching_rect" : [ 468.0, 190.0, 31.0, 17.0 ]
				}

			}
, 			{
				"box" : 				{
					"maxclass" : "message",
					"text" : "blorg",
					"id" : "obj-5",
					"fontname" : "Geneva",
					"fontsize" : 9.0,
					"numinlets" : 2,
					"numoutlets" : 1,
					"outlettype" : [ "" ],
					"patching_rect" : [ 436.0, 190.0, 31.0, 17.0 ]
				}

			}
, 			{
				"box" : 				{
					"maxclass" : "message",
					"text" : "blurg",
					"id" : "obj-6",
					"fontname" : "Geneva",
					"fontsize" : 9.0,
					"numinlets" : 2,
					"numoutlets" : 1,
					"outlettype" : [ "" ],
					"patching_rect" : [ 500.0, 190.0, 31.0, 17.0 ]
				}

			}
, 			{
				"box" : 				{
					"maxclass" : "newobj",
					"text" : "print Error seen",
					"id" : "obj-7",
					"fontname" : "Geneva",
					"fontsize" : 9.0,
					"numinlets" : 1,
					"numoutlets" : 0,
					"patching_rect" : [ 506.0, 371.0, 81.0, 19.0 ]
				}

			}
, 			{
				"box" : 				{
					"maxclass" : "newobj",
					"text" : "print Output2",
					"id" : "obj-8",
					"fontname" : "Geneva",
					"fontsize" : 9.0,
					"numinlets" : 1,
					"numoutlets" : 0,
					"patching_rect" : [ 436.0, 371.0, 68.0, 19.0 ]
				}

			}
, 			{
				"box" : 				{
					"maxclass" : "newobj",
					"text" : "memory blorg",
					"id" : "obj-9",
					"fontname" : "Geneva",
					"fontsize" : 9.0,
					"color" : [ 1.0, 0.890196, 0.090196, 1.0 ],
					"numinlets" : 1,
					"numoutlets" : 2,
					"outlettype" : [ "", "bang" ],
					"patching_rect" : [ 436.0, 315.0, 71.0, 19.0 ]
				}

			}
, 			{
				"box" : 				{
					"maxclass" : "newobj",
					"text" : "prepend forget",
					"id" : "obj-10",
					"fontname" : "Geneva",
					"fontsize" : 9.0,
					"numinlets" : 1,
					"numoutlets" : 1,
					"outlettype" : [ "" ],
					"patching_rect" : [ 356.0, 129.0, 74.0, 19.0 ]
				}

			}
, 			{
				"box" : 				{
					"maxclass" : "message",
					"text" : "blirg",
					"id" : "obj-11",
					"fontname" : "Geneva",
					"fontsize" : 9.0,
					"numinlets" : 2,
					"numoutlets" : 1,
					"outlettype" : [ "" ],
					"patching_rect" : [ 484.0, 81.0, 29.0, 17.0 ]
				}

			}
, 			{
				"box" : 				{
					"maxclass" : "message",
					"text" : "blorg",
					"id" : "obj-12",
					"fontname" : "Geneva",
					"fontsize" : 9.0,
					"numinlets" : 2,
					"numoutlets" : 1,
					"outlettype" : [ "" ],
					"patching_rect" : [ 453.0, 81.0, 32.0, 17.0 ]
				}

			}
, 			{
				"box" : 				{
					"maxclass" : "message",
					"text" : "blarg",
					"id" : "obj-13",
					"fontname" : "Geneva",
					"fontsize" : 9.0,
					"numinlets" : 2,
					"numoutlets" : 1,
					"outlettype" : [ "" ],
					"patching_rect" : [ 388.0, 81.0, 31.0, 17.0 ]
				}

			}
, 			{
				"box" : 				{
					"maxclass" : "message",
					"text" : "blorg",
					"id" : "obj-14",
					"fontname" : "Geneva",
					"fontsize" : 9.0,
					"numinlets" : 2,
					"numoutlets" : 1,
					"outlettype" : [ "" ],
					"patching_rect" : [ 356.0, 81.0, 31.0, 17.0 ]
				}

			}
, 			{
				"box" : 				{
					"maxclass" : "message",
					"text" : "blurg",
					"id" : "obj-15",
					"fontname" : "Geneva",
					"fontsize" : 9.0,
					"numinlets" : 2,
					"numoutlets" : 1,
					"outlettype" : [ "" ],
					"patching_rect" : [ 420.0, 81.0, 31.0, 17.0 ]
				}

			}
, 			{
				"box" : 				{
					"maxclass" : "newobj",
					"text" : "prepend recall",
					"id" : "obj-16",
					"fontname" : "Geneva",
					"fontsize" : 9.0,
					"numinlets" : 1,
					"numoutlets" : 1,
					"outlettype" : [ "" ],
					"patching_rect" : [ 195.0, 129.0, 72.0, 19.0 ]
				}

			}
, 			{
				"box" : 				{
					"maxclass" : "message",
					"text" : "blirg",
					"id" : "obj-17",
					"fontname" : "Geneva",
					"fontsize" : 9.0,
					"numinlets" : 2,
					"numoutlets" : 1,
					"outlettype" : [ "" ],
					"patching_rect" : [ 323.0, 81.0, 29.0, 17.0 ]
				}

			}
, 			{
				"box" : 				{
					"maxclass" : "message",
					"text" : "blorg",
					"id" : "obj-18",
					"fontname" : "Geneva",
					"fontsize" : 9.0,
					"numinlets" : 2,
					"numoutlets" : 1,
					"outlettype" : [ "" ],
					"patching_rect" : [ 292.0, 81.0, 34.0, 17.0 ]
				}

			}
, 			{
				"box" : 				{
					"maxclass" : "message",
					"text" : "blarg",
					"id" : "obj-19",
					"fontname" : "Geneva",
					"fontsize" : 9.0,
					"numinlets" : 2,
					"numoutlets" : 1,
					"outlettype" : [ "" ],
					"patching_rect" : [ 227.0, 81.0, 31.0, 17.0 ]
				}

			}
, 			{
				"box" : 				{
					"maxclass" : "message",
					"text" : "blorg",
					"id" : "obj-20",
					"fontname" : "Geneva",
					"fontsize" : 9.0,
					"numinlets" : 2,
					"numoutlets" : 1,
					"outlettype" : [ "" ],
					"patching_rect" : [ 195.0, 81.0, 31.0, 17.0 ]
				}

			}
, 			{
				"box" : 				{
					"maxclass" : "message",
					"text" : "blurg",
					"id" : "obj-21",
					"fontname" : "Geneva",
					"fontsize" : 9.0,
					"numinlets" : 2,
					"numoutlets" : 1,
					"outlettype" : [ "" ],
					"patching_rect" : [ 259.0, 81.0, 31.0, 17.0 ]
				}

			}
, 			{
				"box" : 				{
					"maxclass" : "message",
					"text" : "store data_file",
					"id" : "obj-22",
					"fontname" : "Geneva",
					"fontsize" : 9.0,
					"numinlets" : 2,
					"numoutlets" : 1,
					"outlettype" : [ "" ],
					"patching_rect" : [ 189.0, 232.0, 75.0, 17.0 ]
				}

			}
, 			{
				"box" : 				{
					"maxclass" : "newobj",
					"text" : "prepend remember",
					"id" : "obj-23",
					"fontname" : "Geneva",
					"fontsize" : 9.0,
					"numinlets" : 1,
					"numoutlets" : 1,
					"outlettype" : [ "" ],
					"patching_rect" : [ 55.0, 129.0, 92.0, 19.0 ]
				}

			}
, 			{
				"box" : 				{
					"maxclass" : "message",
					"text" : "trace",
					"id" : "obj-24",
					"fontname" : "Geneva",
					"fontsize" : 9.0,
					"numinlets" : 2,
					"numoutlets" : 1,
					"outlettype" : [ "" ],
					"patching_rect" : [ 400.0, 232.0, 32.0, 17.0 ]
				}

			}
, 			{
				"box" : 				{
					"maxclass" : "message",
					"text" : "trace off",
					"id" : "obj-25",
					"fontname" : "Geneva",
					"fontsize" : 9.0,
					"numinlets" : 2,
					"numoutlets" : 1,
					"outlettype" : [ "" ],
					"patching_rect" : [ 350.0, 232.0, 48.0, 17.0 ]
				}

			}
, 			{
				"box" : 				{
					"maxclass" : "message",
					"text" : "trace on",
					"id" : "obj-26",
					"fontname" : "Geneva",
					"fontsize" : 9.0,
					"numinlets" : 2,
					"numoutlets" : 1,
					"outlettype" : [ "" ],
					"patching_rect" : [ 303.0, 232.0, 45.0, 17.0 ]
				}

			}
, 			{
				"box" : 				{
					"maxclass" : "message",
					"text" : "load data_file",
					"id" : "obj-27",
					"fontname" : "Geneva",
					"fontsize" : 9.0,
					"numinlets" : 2,
					"numoutlets" : 1,
					"outlettype" : [ "" ],
					"patching_rect" : [ 119.0, 232.0, 69.0, 17.0 ]
				}

			}
, 			{
				"box" : 				{
					"maxclass" : "message",
					"text" : "clear",
					"id" : "obj-28",
					"fontname" : "Geneva",
					"fontsize" : 9.0,
					"numinlets" : 2,
					"numoutlets" : 1,
					"outlettype" : [ "" ],
					"patching_rect" : [ 86.0, 232.0, 31.0, 17.0 ]
				}

			}
, 			{
				"box" : 				{
					"maxclass" : "newobj",
					"text" : "print Error seen",
					"id" : "obj-29",
					"fontname" : "Geneva",
					"fontsize" : 9.0,
					"numinlets" : 1,
					"numoutlets" : 0,
					"patching_rect" : [ 125.0, 371.0, 81.0, 19.0 ]
				}

			}
, 			{
				"box" : 				{
					"maxclass" : "newobj",
					"text" : "print Output1",
					"id" : "obj-30",
					"fontname" : "Geneva",
					"fontsize" : 9.0,
					"numinlets" : 1,
					"numoutlets" : 0,
					"patching_rect" : [ 55.0, 371.0, 68.0, 19.0 ]
				}

			}
, 			{
				"box" : 				{
					"maxclass" : "newobj",
					"text" : "memory blorg",
					"id" : "obj-31",
					"fontname" : "Geneva",
					"fontsize" : 9.0,
					"color" : [ 1.0, 0.890196, 0.090196, 1.0 ],
					"numinlets" : 1,
					"numoutlets" : 2,
					"outlettype" : [ "", "bang" ],
					"patching_rect" : [ 55.0, 315.0, 71.0, 19.0 ]
				}

			}
, 			{
				"box" : 				{
					"maxclass" : "message",
					"text" : "blirg",
					"id" : "obj-32",
					"fontname" : "Geneva",
					"fontsize" : 9.0,
					"numinlets" : 2,
					"numoutlets" : 1,
					"outlettype" : [ "" ],
					"patching_rect" : [ 163.0, 81.0, 29.0, 17.0 ]
				}

			}
, 			{
				"box" : 				{
					"maxclass" : "message",
					"text" : "blorg",
					"id" : "obj-33",
					"fontname" : "Geneva",
					"fontsize" : 9.0,
					"numinlets" : 2,
					"numoutlets" : 1,
					"outlettype" : [ "" ],
					"patching_rect" : [ 132.0, 81.0, 34.0, 17.0 ]
				}

			}
, 			{
				"box" : 				{
					"maxclass" : "comment",
					"text" : "memory",
					"id" : "obj-34",
					"fontname" : "Geneva",
					"fontsize" : 14.0,
					"numinlets" : 1,
					"numoutlets" : 0,
					"patching_rect" : [ 7.0, 24.0, 63.0, 25.0 ]
				}

			}
, 			{
				"box" : 				{
					"maxclass" : "comment",
					"text" : "Remember arbitrary data",
					"id" : "obj-35",
					"fontname" : "Geneva",
					"fontsize" : 9.0,
					"numinlets" : 1,
					"numoutlets" : 0,
					"patching_rect" : [ 7.0, 44.0, 124.0, 19.0 ]
				}

			}
, 			{
				"box" : 				{
					"maxclass" : "comment",
					"text" : "Arguments: none;\rLeft Inlet: command;\rLeft Outlet: list;\rRight Outlet: bang",
					"linecount" : 4,
					"id" : "obj-36",
					"fontname" : "Geneva",
					"fontsize" : 9.0,
					"numinlets" : 1,
					"numoutlets" : 0,
					"patching_rect" : [ 292.0, 26.0, 102.0, 55.0 ]
				}

			}
, 			{
				"box" : 				{
					"maxclass" : "comment",
					"text" : "A memory object stores arbitrary data with symbol keys.",
					"id" : "obj-37",
					"fontname" : "Geneva",
					"fontsize" : 9.0,
					"numinlets" : 1,
					"numoutlets" : 0,
					"patching_rect" : [ 88.0, 278.0, 281.0, 19.0 ]
				}

			}
, 			{
				"box" : 				{
					"maxclass" : "message",
					"text" : "blarg",
					"id" : "obj-38",
					"fontname" : "Geneva",
					"fontsize" : 9.0,
					"numinlets" : 2,
					"numoutlets" : 1,
					"outlettype" : [ "" ],
					"patching_rect" : [ 50.0, 81.0, 31.0, 17.0 ]
				}

			}
, 			{
				"box" : 				{
					"maxclass" : "message",
					"text" : "blorg 1",
					"id" : "obj-39",
					"fontname" : "Geneva",
					"fontsize" : 9.0,
					"numinlets" : 2,
					"numoutlets" : 1,
					"outlettype" : [ "" ],
					"patching_rect" : [ 8.0, 81.0, 40.0, 17.0 ]
				}

			}
, 			{
				"box" : 				{
					"maxclass" : "message",
					"text" : "blarg x y",
					"id" : "obj-40",
					"fontname" : "Geneva",
					"fontsize" : 9.0,
					"numinlets" : 2,
					"numoutlets" : 1,
					"outlettype" : [ "" ],
					"patching_rect" : [ 82.0, 81.0, 49.0, 17.0 ]
				}

			}
, 			{
				"box" : 				{
					"maxclass" : "comment",
					"text" : "Commands",
					"id" : "obj-41",
					"fontname" : "Geneva",
					"fontsize" : 9.0,
					"numinlets" : 1,
					"numoutlets" : 0,
					"patching_rect" : [ 302.0, 204.0, 57.0, 19.0 ]
				}

			}
, 			{
				"box" : 				{
					"maxclass" : "comment",
					"text" : "input data",
					"linecount" : 2,
					"id" : "obj-42",
					"fontname" : "Geneva",
					"fontsize" : 9.0,
					"numinlets" : 1,
					"numoutlets" : 0,
					"patching_rect" : [ 8.0, 64.0, 50.0, 31.0 ]
				}

			}
, 			{
				"box" : 				{
					"maxclass" : "comment",
					"text" : "Note that commands and arguments are case-sensitive.",
					"linecount" : 2,
					"id" : "obj-43",
					"fontname" : "Geneva",
					"fontsize" : 9.0,
					"numinlets" : 1,
					"numoutlets" : 0,
					"patching_rect" : [ 370.0, 157.0, 189.0, 31.0 ]
				}

			}
 ],
		"lines" : [ 			{
				"patchline" : 				{
					"source" : [ "obj-9", 1 ],
					"destination" : [ "obj-7", 0 ],
					"hidden" : 0,
					"midpoints" : [ 497.5, 344.0, 515.5, 344.0 ]
				}

			}
, 			{
				"patchline" : 				{
					"source" : [ "obj-9", 0 ],
					"destination" : [ "obj-8", 0 ],
					"hidden" : 0,
					"midpoints" : [ 445.5, 328.0, 445.5, 328.0 ]
				}

			}
, 			{
				"patchline" : 				{
					"source" : [ "obj-1", 0 ],
					"destination" : [ "obj-9", 0 ],
					"hidden" : 0,
					"midpoints" : [ 445.5, 297.0, 445.5, 297.0 ]
				}

			}
, 			{
				"patchline" : 				{
					"source" : [ "obj-5", 0 ],
					"destination" : [ "obj-1", 0 ],
					"hidden" : 0,
					"midpoints" : [ 445.5, 222.0, 445.5, 222.0 ]
				}

			}
, 			{
				"patchline" : 				{
					"source" : [ "obj-4", 0 ],
					"destination" : [ "obj-1", 0 ],
					"hidden" : 0,
					"midpoints" : [ 477.5, 222.0, 445.5, 222.0 ]
				}

			}
, 			{
				"patchline" : 				{
					"source" : [ "obj-6", 0 ],
					"destination" : [ "obj-1", 0 ],
					"hidden" : 0,
					"midpoints" : [ 509.5, 222.0, 445.5, 222.0 ]
				}

			}
, 			{
				"patchline" : 				{
					"source" : [ "obj-3", 0 ],
					"destination" : [ "obj-1", 0 ],
					"hidden" : 0,
					"midpoints" : [ 542.5, 222.0, 445.5, 222.0 ]
				}

			}
, 			{
				"patchline" : 				{
					"source" : [ "obj-2", 0 ],
					"destination" : [ "obj-1", 0 ],
					"hidden" : 0,
					"midpoints" : [ 573.5, 222.0, 445.5, 222.0 ]
				}

			}
, 			{
				"patchline" : 				{
					"source" : [ "obj-11", 0 ],
					"destination" : [ "obj-10", 0 ],
					"hidden" : 0,
					"midpoints" : [ 493.5, 120.0, 365.5, 120.0 ]
				}

			}
, 			{
				"patchline" : 				{
					"source" : [ "obj-12", 0 ],
					"destination" : [ "obj-10", 0 ],
					"hidden" : 0,
					"midpoints" : [ 462.5, 120.0, 365.5, 120.0 ]
				}

			}
, 			{
				"patchline" : 				{
					"source" : [ "obj-15", 0 ],
					"destination" : [ "obj-10", 0 ],
					"hidden" : 0,
					"midpoints" : [ 429.5, 120.0, 365.5, 120.0 ]
				}

			}
, 			{
				"patchline" : 				{
					"source" : [ "obj-13", 0 ],
					"destination" : [ "obj-10", 0 ],
					"hidden" : 0,
					"midpoints" : [ 397.5, 120.0, 365.5, 120.0 ]
				}

			}
, 			{
				"patchline" : 				{
					"source" : [ "obj-14", 0 ],
					"destination" : [ "obj-10", 0 ],
					"hidden" : 0,
					"midpoints" : [ 365.5, 120.0, 365.5, 120.0 ]
				}

			}
, 			{
				"patchline" : 				{
					"source" : [ "obj-17", 0 ],
					"destination" : [ "obj-16", 0 ],
					"hidden" : 0,
					"midpoints" : [ 332.5, 120.0, 204.5, 120.0 ]
				}

			}
, 			{
				"patchline" : 				{
					"source" : [ "obj-18", 0 ],
					"destination" : [ "obj-16", 0 ],
					"hidden" : 0,
					"midpoints" : [ 301.5, 120.0, 204.5, 120.0 ]
				}

			}
, 			{
				"patchline" : 				{
					"source" : [ "obj-21", 0 ],
					"destination" : [ "obj-16", 0 ],
					"hidden" : 0,
					"midpoints" : [ 268.5, 120.0, 204.5, 120.0 ]
				}

			}
, 			{
				"patchline" : 				{
					"source" : [ "obj-19", 0 ],
					"destination" : [ "obj-16", 0 ],
					"hidden" : 0,
					"midpoints" : [ 236.5, 120.0, 204.5, 120.0 ]
				}

			}
, 			{
				"patchline" : 				{
					"source" : [ "obj-20", 0 ],
					"destination" : [ "obj-16", 0 ],
					"hidden" : 0,
					"midpoints" : [ 204.5, 120.0, 204.5, 120.0 ]
				}

			}
, 			{
				"patchline" : 				{
					"source" : [ "obj-31", 1 ],
					"destination" : [ "obj-29", 0 ],
					"hidden" : 0,
					"midpoints" : [ 116.5, 351.0, 134.5, 351.0 ]
				}

			}
, 			{
				"patchline" : 				{
					"source" : [ "obj-31", 0 ],
					"destination" : [ "obj-30", 0 ],
					"hidden" : 0,
					"midpoints" : [ 64.5, 335.0, 64.5, 335.0 ]
				}

			}
, 			{
				"patchline" : 				{
					"source" : [ "obj-28", 0 ],
					"destination" : [ "obj-31", 0 ],
					"hidden" : 0,
					"midpoints" : [ 95.5, 265.0, 64.5, 265.0 ]
				}

			}
, 			{
				"patchline" : 				{
					"source" : [ "obj-27", 0 ],
					"destination" : [ "obj-31", 0 ],
					"hidden" : 0,
					"midpoints" : [ 128.5, 265.0, 64.5, 265.0 ]
				}

			}
, 			{
				"patchline" : 				{
					"source" : [ "obj-26", 0 ],
					"destination" : [ "obj-31", 0 ],
					"hidden" : 0,
					"midpoints" : [ 312.5, 265.0, 64.5, 265.0 ]
				}

			}
, 			{
				"patchline" : 				{
					"source" : [ "obj-25", 0 ],
					"destination" : [ "obj-31", 0 ],
					"hidden" : 0,
					"midpoints" : [ 359.5, 265.0, 64.5, 265.0 ]
				}

			}
, 			{
				"patchline" : 				{
					"source" : [ "obj-24", 0 ],
					"destination" : [ "obj-31", 0 ],
					"hidden" : 0,
					"midpoints" : [ 409.5, 265.0, 64.5, 265.0 ]
				}

			}
, 			{
				"patchline" : 				{
					"source" : [ "obj-22", 0 ],
					"destination" : [ "obj-31", 0 ],
					"hidden" : 0,
					"midpoints" : [ 198.5, 265.0, 64.5, 265.0 ]
				}

			}
, 			{
				"patchline" : 				{
					"source" : [ "obj-23", 0 ],
					"destination" : [ "obj-31", 0 ],
					"hidden" : 0,
					"midpoints" : [ 64.5, 161.0, 64.5, 161.0 ]
				}

			}
, 			{
				"patchline" : 				{
					"source" : [ "obj-16", 0 ],
					"destination" : [ "obj-31", 0 ],
					"hidden" : 0,
					"midpoints" : [ 204.5, 176.0, 64.5, 176.0 ]
				}

			}
, 			{
				"patchline" : 				{
					"source" : [ "obj-10", 0 ],
					"destination" : [ "obj-31", 0 ],
					"hidden" : 0,
					"midpoints" : [ 365.5, 176.0, 64.5, 176.0 ]
				}

			}
, 			{
				"patchline" : 				{
					"source" : [ "obj-32", 0 ],
					"destination" : [ "obj-23", 0 ],
					"hidden" : 0,
					"midpoints" : [ 172.5, 120.0, 64.5, 120.0 ]
				}

			}
, 			{
				"patchline" : 				{
					"source" : [ "obj-33", 0 ],
					"destination" : [ "obj-23", 0 ],
					"hidden" : 0,
					"midpoints" : [ 141.5, 120.0, 64.5, 120.0 ]
				}

			}
, 			{
				"patchline" : 				{
					"source" : [ "obj-40", 0 ],
					"destination" : [ "obj-23", 0 ],
					"hidden" : 0,
					"midpoints" : [ 91.5, 120.0, 64.5, 120.0 ]
				}

			}
, 			{
				"patchline" : 				{
					"source" : [ "obj-38", 0 ],
					"destination" : [ "obj-23", 0 ],
					"hidden" : 0,
					"midpoints" : [ 59.5, 120.0, 64.5, 120.0 ]
				}

			}
, 			{
				"patchline" : 				{
					"source" : [ "obj-39", 0 ],
					"destination" : [ "obj-23", 0 ],
					"hidden" : 0,
					"midpoints" : [ 17.5, 120.0, 64.5, 120.0 ]
				}

			}
 ]
	}

}
