{
	"patcher" : 	{
		"fileversion" : 1,
		"appversion" : 		{
			"major" : 5,
			"minor" : 1,
			"revision" : 9
		}
,
		"rect" : [ 278.0, 576.0, 400.0, 313.0 ],
		"bglocked" : 0,
		"defrect" : [ 278.0, 576.0, 400.0, 313.0 ],
		"openrect" : [ 0.0, 0.0, 0.0, 0.0 ],
		"openinpresentation" : 0,
		"default_fontsize" : 12.0,
		"default_fontface" : 0,
		"default_fontname" : "Arial",
		"gridonopen" : 0,
		"gridsize" : [ 15.0, 15.0 ],
		"gridsnaponopen" : 0,
		"toolbarvisible" : 1,
		"boxanimatetime" : 200,
		"imprint" : 0,
		"enablehscroll" : 1,
		"enablevscroll" : 1,
		"devicewidth" : 0.0,
		"boxes" : [ 			{
				"box" : 				{
					"maxclass" : "button",
					"numinlets" : 1,
					"numoutlets" : 1,
					"patching_rect" : [ 329.0, 256.0, 15.0, 15.0 ],
					"id" : "obj-1",
					"fgcolor" : [ 0.156863, 0.8, 0.54902, 1.0 ],
					"outlettype" : [ "bang" ]
				}

			}
, 			{
				"box" : 				{
					"maxclass" : "newobj",
					"text" : "prepend set",
					"fontsize" : 9.0,
					"numinlets" : 1,
					"numoutlets" : 1,
					"patching_rect" : [ 177.0, 202.0, 66.0, 19.0 ],
					"id" : "obj-2",
					"fontname" : "Geneva",
					"outlettype" : [ "" ]
				}

			}
, 			{
				"box" : 				{
					"maxclass" : "newobj",
					"text" : "Vceiling i",
					"fontsize" : 9.0,
					"numinlets" : 1,
					"color" : [ 1.0, 0.890196, 0.090196, 1.0 ],
					"numoutlets" : 1,
					"patching_rect" : [ 177.0, 170.0, 49.0, 19.0 ],
					"id" : "obj-3",
					"fontname" : "Geneva",
					"outlettype" : [ "" ]
				}

			}
, 			{
				"box" : 				{
					"maxclass" : "message",
					"text" : "15.",
					"fontsize" : 9.0,
					"numinlets" : 2,
					"numoutlets" : 1,
					"patching_rect" : [ 177.0, 256.0, 148.0, 17.0 ],
					"id" : "obj-4",
					"fontname" : "Geneva",
					"outlettype" : [ "" ]
				}

			}
, 			{
				"box" : 				{
					"maxclass" : "message",
					"text" : "15",
					"fontsize" : 9.0,
					"numinlets" : 2,
					"numoutlets" : 1,
					"patching_rect" : [ 149.0, 90.0, 20.0, 17.0 ],
					"id" : "obj-5",
					"fontname" : "Geneva",
					"outlettype" : [ "" ]
				}

			}
, 			{
				"box" : 				{
					"maxclass" : "message",
					"text" : "13.2",
					"fontsize" : 9.0,
					"numinlets" : 2,
					"numoutlets" : 1,
					"patching_rect" : [ 134.0, 70.0, 29.0, 17.0 ],
					"id" : "obj-6",
					"fontname" : "Geneva",
					"outlettype" : [ "" ]
				}

			}
, 			{
				"box" : 				{
					"maxclass" : "message",
					"text" : "-1.1 2.3 4.6 -0.7",
					"fontsize" : 9.0,
					"numinlets" : 2,
					"numoutlets" : 1,
					"patching_rect" : [ 36.0, 127.0, 85.0, 17.0 ],
					"id" : "obj-7",
					"fontname" : "Geneva",
					"outlettype" : [ "" ]
				}

			}
, 			{
				"box" : 				{
					"maxclass" : "button",
					"numinlets" : 1,
					"numoutlets" : 1,
					"patching_rect" : [ 159.0, 256.0, 15.0, 15.0 ],
					"id" : "obj-8",
					"fgcolor" : [ 0.156863, 0.8, 0.54902, 1.0 ],
					"outlettype" : [ "bang" ]
				}

			}
, 			{
				"box" : 				{
					"maxclass" : "newobj",
					"text" : "prepend set",
					"fontsize" : 9.0,
					"numinlets" : 1,
					"numoutlets" : 1,
					"patching_rect" : [ 7.0, 202.0, 72.0, 19.0 ],
					"id" : "obj-9",
					"fontname" : "Geneva",
					"outlettype" : [ "" ]
				}

			}
, 			{
				"box" : 				{
					"maxclass" : "message",
					"text" : "1 2 3 4",
					"fontsize" : 9.0,
					"numinlets" : 2,
					"numoutlets" : 1,
					"patching_rect" : [ 7.0, 70.0, 41.0, 17.0 ],
					"id" : "obj-10",
					"fontname" : "Geneva",
					"outlettype" : [ "" ]
				}

			}
, 			{
				"box" : 				{
					"maxclass" : "message",
					"text" : "1 2 3 blorg",
					"fontsize" : 9.0,
					"numinlets" : 2,
					"numoutlets" : 1,
					"patching_rect" : [ 16.0, 90.0, 58.0, 17.0 ],
					"id" : "obj-11",
					"fontname" : "Geneva",
					"outlettype" : [ "" ]
				}

			}
, 			{
				"box" : 				{
					"maxclass" : "message",
					"text" : "1 2 3 4.5",
					"fontsize" : 9.0,
					"numinlets" : 2,
					"numoutlets" : 1,
					"patching_rect" : [ 26.0, 108.0, 50.0, 17.0 ],
					"id" : "obj-12",
					"fontname" : "Geneva",
					"outlettype" : [ "" ]
				}

			}
, 			{
				"box" : 				{
					"maxclass" : "comment",
					"text" : "Vceiling",
					"fontsize" : 14.0,
					"numinlets" : 1,
					"numoutlets" : 0,
					"patching_rect" : [ 4.0, 25.0, 85.0, 25.0 ],
					"id" : "obj-13",
					"fontname" : "Geneva"
				}

			}
, 			{
				"box" : 				{
					"maxclass" : "comment",
					"text" : "Returns the smallest integer greater than the input.",
					"fontsize" : 9.0,
					"numinlets" : 1,
					"numoutlets" : 0,
					"patching_rect" : [ 4.0, 45.0, 236.0, 19.0 ],
					"id" : "obj-14",
					"fontname" : "Geneva"
				}

			}
, 			{
				"box" : 				{
					"maxclass" : "comment",
					"text" : "Argument: symbol;\rLeft Inlet: list;\rOutlet: list",
					"linecount" : 3,
					"fontsize" : 9.0,
					"numinlets" : 1,
					"numoutlets" : 0,
					"patching_rect" : [ 242.0, 22.0, 95.0, 43.0 ],
					"id" : "obj-15",
					"fontname" : "Geneva"
				}

			}
, 			{
				"box" : 				{
					"maxclass" : "newobj",
					"text" : "Vceiling",
					"fontsize" : 9.0,
					"numinlets" : 1,
					"color" : [ 1.0, 0.890196, 0.090196, 1.0 ],
					"numoutlets" : 1,
					"patching_rect" : [ 7.0, 170.0, 43.0, 19.0 ],
					"id" : "obj-16",
					"fontname" : "Geneva",
					"outlettype" : [ "" ]
				}

			}
, 			{
				"box" : 				{
					"maxclass" : "message",
					"text" : "15",
					"fontsize" : 9.0,
					"numinlets" : 2,
					"numoutlets" : 1,
					"patching_rect" : [ 7.0, 256.0, 148.0, 17.0 ],
					"id" : "obj-17",
					"fontname" : "Geneva",
					"outlettype" : [ "" ]
				}

			}
 ],
		"lines" : [ 			{
				"patchline" : 				{
					"source" : [ "obj-2", 0 ],
					"destination" : [ "obj-1", 0 ],
					"hidden" : 0,
					"midpoints" : [ 186.5, 245.0, 338.0, 245.0 ]
				}

			}
, 			{
				"patchline" : 				{
					"source" : [ "obj-2", 0 ],
					"destination" : [ "obj-4", 0 ],
					"hidden" : 0,
					"midpoints" : [ 186.5, 247.0, 186.5, 247.0 ]
				}

			}
, 			{
				"patchline" : 				{
					"source" : [ "obj-3", 0 ],
					"destination" : [ "obj-2", 0 ],
					"hidden" : 0,
					"midpoints" : [ 186.5, 191.0, 186.5, 191.0 ]
				}

			}
, 			{
				"patchline" : 				{
					"source" : [ "obj-12", 0 ],
					"destination" : [ "obj-3", 0 ],
					"hidden" : 0,
					"midpoints" : [ 35.5, 154.0, 186.5, 154.0 ]
				}

			}
, 			{
				"patchline" : 				{
					"source" : [ "obj-11", 0 ],
					"destination" : [ "obj-3", 0 ],
					"hidden" : 0,
					"midpoints" : [ 25.5, 154.0, 186.5, 154.0 ]
				}

			}
, 			{
				"patchline" : 				{
					"source" : [ "obj-10", 0 ],
					"destination" : [ "obj-3", 0 ],
					"hidden" : 0,
					"midpoints" : [ 16.5, 154.0, 186.5, 154.0 ]
				}

			}
, 			{
				"patchline" : 				{
					"source" : [ "obj-7", 0 ],
					"destination" : [ "obj-3", 0 ],
					"hidden" : 0,
					"midpoints" : [ 45.5, 154.0, 186.5, 154.0 ]
				}

			}
, 			{
				"patchline" : 				{
					"source" : [ "obj-6", 0 ],
					"destination" : [ "obj-3", 0 ],
					"hidden" : 0,
					"midpoints" : [ 143.5, 154.0, 186.5, 154.0 ]
				}

			}
, 			{
				"patchline" : 				{
					"source" : [ "obj-5", 0 ],
					"destination" : [ "obj-3", 0 ],
					"hidden" : 0,
					"midpoints" : [ 158.5, 154.0, 186.5, 154.0 ]
				}

			}
, 			{
				"patchline" : 				{
					"source" : [ "obj-9", 0 ],
					"destination" : [ "obj-8", 0 ],
					"hidden" : 0,
					"midpoints" : [ 16.5, 246.0, 168.0, 246.0 ]
				}

			}
, 			{
				"patchline" : 				{
					"source" : [ "obj-9", 0 ],
					"destination" : [ "obj-17", 0 ],
					"hidden" : 0,
					"midpoints" : [ 16.5, 248.0, 16.5, 248.0 ]
				}

			}
, 			{
				"patchline" : 				{
					"source" : [ "obj-16", 0 ],
					"destination" : [ "obj-9", 0 ],
					"hidden" : 0,
					"midpoints" : [ 16.5, 192.0, 16.5, 192.0 ]
				}

			}
, 			{
				"patchline" : 				{
					"source" : [ "obj-11", 0 ],
					"destination" : [ "obj-16", 0 ],
					"hidden" : 0,
					"midpoints" : [ 25.5, 154.0, 16.5, 154.0 ]
				}

			}
, 			{
				"patchline" : 				{
					"source" : [ "obj-7", 0 ],
					"destination" : [ "obj-16", 0 ],
					"hidden" : 0,
					"midpoints" : [ 45.5, 154.0, 16.5, 154.0 ]
				}

			}
, 			{
				"patchline" : 				{
					"source" : [ "obj-5", 0 ],
					"destination" : [ "obj-16", 0 ],
					"hidden" : 0,
					"midpoints" : [ 158.5, 154.0, 16.5, 154.0 ]
				}

			}
, 			{
				"patchline" : 				{
					"source" : [ "obj-12", 0 ],
					"destination" : [ "obj-16", 0 ],
					"hidden" : 0,
					"midpoints" : [ 35.5, 154.0, 16.5, 154.0 ]
				}

			}
, 			{
				"patchline" : 				{
					"source" : [ "obj-10", 0 ],
					"destination" : [ "obj-16", 0 ],
					"hidden" : 0,
					"midpoints" : [ 16.5, 154.0, 16.5, 154.0 ]
				}

			}
, 			{
				"patchline" : 				{
					"source" : [ "obj-6", 0 ],
					"destination" : [ "obj-16", 0 ],
					"hidden" : 0,
					"midpoints" : [ 143.5, 154.0, 16.5, 154.0 ]
				}

			}
 ]
	}

}
