{
	"patcher" : 	{
		"fileversion" : 1,
		"appversion" : 		{
			"major" : 5,
			"minor" : 1,
			"revision" : 9
		}
,
		"rect" : [ 73.0, 306.0, 387.0, 309.0 ],
		"bglocked" : 0,
		"defrect" : [ 73.0, 306.0, 387.0, 309.0 ],
		"openrect" : [ 0.0, 0.0, 0.0, 0.0 ],
		"openinpresentation" : 0,
		"default_fontsize" : 12.0,
		"default_fontface" : 0,
		"default_fontname" : "Arial",
		"gridonopen" : 0,
		"gridsize" : [ 15.0, 15.0 ],
		"gridsnaponopen" : 0,
		"toolbarvisible" : 1,
		"boxanimatetime" : 200,
		"imprint" : 0,
		"enablehscroll" : 1,
		"enablevscroll" : 1,
		"devicewidth" : 0.0,
		"boxes" : [ 			{
				"box" : 				{
					"maxclass" : "button",
					"numoutlets" : 1,
					"patching_rect" : [ 331.0, 246.0, 15.0, 15.0 ],
					"id" : "obj-1",
					"fgcolor" : [ 0.156863, 0.8, 0.54902, 1.0 ],
					"outlettype" : [ "bang" ],
					"numinlets" : 1
				}

			}
, 			{
				"box" : 				{
					"maxclass" : "newobj",
					"text" : "prepend set",
					"numoutlets" : 1,
					"patching_rect" : [ 179.0, 192.0, 66.0, 19.0 ],
					"fontname" : "Geneva",
					"id" : "obj-2",
					"outlettype" : [ "" ],
					"fontsize" : 9.0,
					"numinlets" : 1
				}

			}
, 			{
				"box" : 				{
					"maxclass" : "newobj",
					"text" : "Vfloor i",
					"numoutlets" : 1,
					"patching_rect" : [ 179.0, 160.0, 42.0, 19.0 ],
					"fontname" : "Geneva",
					"id" : "obj-3",
					"outlettype" : [ "" ],
					"color" : [ 1.0, 0.890196, 0.090196, 1.0 ],
					"fontsize" : 9.0,
					"numinlets" : 1
				}

			}
, 			{
				"box" : 				{
					"maxclass" : "message",
					"text" : "13",
					"numoutlets" : 1,
					"patching_rect" : [ 179.0, 246.0, 148.0, 17.0 ],
					"fontname" : "Geneva",
					"id" : "obj-4",
					"outlettype" : [ "" ],
					"fontsize" : 9.0,
					"numinlets" : 2
				}

			}
, 			{
				"box" : 				{
					"maxclass" : "message",
					"text" : "15",
					"numoutlets" : 1,
					"patching_rect" : [ 151.0, 80.0, 20.0, 17.0 ],
					"fontname" : "Geneva",
					"id" : "obj-5",
					"outlettype" : [ "" ],
					"fontsize" : 9.0,
					"numinlets" : 2
				}

			}
, 			{
				"box" : 				{
					"maxclass" : "message",
					"text" : "13.2",
					"numoutlets" : 1,
					"patching_rect" : [ 136.0, 60.0, 29.0, 17.0 ],
					"fontname" : "Geneva",
					"id" : "obj-6",
					"outlettype" : [ "" ],
					"fontsize" : 9.0,
					"numinlets" : 2
				}

			}
, 			{
				"box" : 				{
					"maxclass" : "message",
					"text" : "-1.1 2.3 4.6 -0.7",
					"numoutlets" : 1,
					"patching_rect" : [ 38.0, 117.0, 85.0, 17.0 ],
					"fontname" : "Geneva",
					"id" : "obj-7",
					"outlettype" : [ "" ],
					"fontsize" : 9.0,
					"numinlets" : 2
				}

			}
, 			{
				"box" : 				{
					"maxclass" : "button",
					"numoutlets" : 1,
					"patching_rect" : [ 161.0, 246.0, 15.0, 15.0 ],
					"id" : "obj-8",
					"fgcolor" : [ 0.156863, 0.8, 0.54902, 1.0 ],
					"outlettype" : [ "bang" ],
					"numinlets" : 1
				}

			}
, 			{
				"box" : 				{
					"maxclass" : "newobj",
					"text" : "prepend set",
					"numoutlets" : 1,
					"patching_rect" : [ 9.0, 192.0, 68.0, 19.0 ],
					"fontname" : "Geneva",
					"id" : "obj-9",
					"outlettype" : [ "" ],
					"fontsize" : 9.0,
					"numinlets" : 1
				}

			}
, 			{
				"box" : 				{
					"maxclass" : "message",
					"text" : "1 2 3 4",
					"numoutlets" : 1,
					"patching_rect" : [ 9.0, 60.0, 41.0, 17.0 ],
					"fontname" : "Geneva",
					"id" : "obj-10",
					"outlettype" : [ "" ],
					"fontsize" : 9.0,
					"numinlets" : 2
				}

			}
, 			{
				"box" : 				{
					"maxclass" : "message",
					"text" : "1 2 3 blorg",
					"numoutlets" : 1,
					"patching_rect" : [ 18.0, 80.0, 58.0, 17.0 ],
					"fontname" : "Geneva",
					"id" : "obj-11",
					"outlettype" : [ "" ],
					"fontsize" : 9.0,
					"numinlets" : 2
				}

			}
, 			{
				"box" : 				{
					"maxclass" : "message",
					"text" : "1 2 3 4.5",
					"numoutlets" : 1,
					"patching_rect" : [ 28.0, 98.0, 50.0, 17.0 ],
					"fontname" : "Geneva",
					"id" : "obj-12",
					"outlettype" : [ "" ],
					"fontsize" : 9.0,
					"numinlets" : 2
				}

			}
, 			{
				"box" : 				{
					"maxclass" : "newobj",
					"text" : "Vfloor",
					"numoutlets" : 1,
					"patching_rect" : [ 9.0, 160.0, 35.0, 19.0 ],
					"fontname" : "Geneva",
					"id" : "obj-13",
					"outlettype" : [ "" ],
					"color" : [ 1.0, 0.890196, 0.090196, 1.0 ],
					"fontsize" : 9.0,
					"numinlets" : 1
				}

			}
, 			{
				"box" : 				{
					"maxclass" : "message",
					"text" : "13.",
					"numoutlets" : 1,
					"patching_rect" : [ 9.0, 246.0, 148.0, 17.0 ],
					"fontname" : "Geneva",
					"id" : "obj-14",
					"outlettype" : [ "" ],
					"fontsize" : 9.0,
					"numinlets" : 2
				}

			}
, 			{
				"box" : 				{
					"maxclass" : "comment",
					"text" : "Vfloor",
					"numoutlets" : 0,
					"patching_rect" : [ 1.0, 24.0, 85.0, 25.0 ],
					"fontname" : "Geneva",
					"id" : "obj-15",
					"fontsize" : 14.0,
					"numinlets" : 1
				}

			}
, 			{
				"box" : 				{
					"maxclass" : "comment",
					"text" : "Returns the largest integer less than the input.",
					"numoutlets" : 0,
					"patching_rect" : [ 1.0, 44.0, 219.0, 19.0 ],
					"fontname" : "Geneva",
					"id" : "obj-16",
					"fontsize" : 9.0,
					"numinlets" : 1
				}

			}
, 			{
				"box" : 				{
					"maxclass" : "comment",
					"text" : "Argument: symbol;\rLeft Inlet: list;\rOutlet: list",
					"linecount" : 3,
					"numoutlets" : 0,
					"patching_rect" : [ 228.0, 21.0, 92.0, 43.0 ],
					"fontname" : "Geneva",
					"id" : "obj-17",
					"fontsize" : 9.0,
					"numinlets" : 1
				}

			}
 ],
		"lines" : [ 			{
				"patchline" : 				{
					"source" : [ "obj-2", 0 ],
					"destination" : [ "obj-1", 0 ],
					"hidden" : 0,
					"midpoints" : [ 188.5, 235.0, 340.0, 235.0 ]
				}

			}
, 			{
				"patchline" : 				{
					"source" : [ "obj-2", 0 ],
					"destination" : [ "obj-4", 0 ],
					"hidden" : 0,
					"midpoints" : [ 188.5, 237.0, 188.5, 237.0 ]
				}

			}
, 			{
				"patchline" : 				{
					"source" : [ "obj-3", 0 ],
					"destination" : [ "obj-2", 0 ],
					"hidden" : 0,
					"midpoints" : [ 188.5, 181.0, 188.5, 181.0 ]
				}

			}
, 			{
				"patchline" : 				{
					"source" : [ "obj-5", 0 ],
					"destination" : [ "obj-3", 0 ],
					"hidden" : 0,
					"midpoints" : [ 160.5, 144.0, 188.5, 144.0 ]
				}

			}
, 			{
				"patchline" : 				{
					"source" : [ "obj-6", 0 ],
					"destination" : [ "obj-3", 0 ],
					"hidden" : 0,
					"midpoints" : [ 145.5, 144.0, 188.5, 144.0 ]
				}

			}
, 			{
				"patchline" : 				{
					"source" : [ "obj-7", 0 ],
					"destination" : [ "obj-3", 0 ],
					"hidden" : 0,
					"midpoints" : [ 47.5, 144.0, 188.5, 144.0 ]
				}

			}
, 			{
				"patchline" : 				{
					"source" : [ "obj-10", 0 ],
					"destination" : [ "obj-3", 0 ],
					"hidden" : 0,
					"midpoints" : [ 18.5, 144.0, 188.5, 144.0 ]
				}

			}
, 			{
				"patchline" : 				{
					"source" : [ "obj-11", 0 ],
					"destination" : [ "obj-3", 0 ],
					"hidden" : 0,
					"midpoints" : [ 27.5, 144.0, 188.5, 144.0 ]
				}

			}
, 			{
				"patchline" : 				{
					"source" : [ "obj-12", 0 ],
					"destination" : [ "obj-3", 0 ],
					"hidden" : 0,
					"midpoints" : [ 37.5, 144.0, 188.5, 144.0 ]
				}

			}
, 			{
				"patchline" : 				{
					"source" : [ "obj-9", 0 ],
					"destination" : [ "obj-8", 0 ],
					"hidden" : 0,
					"midpoints" : [ 18.5, 236.0, 170.0, 236.0 ]
				}

			}
, 			{
				"patchline" : 				{
					"source" : [ "obj-9", 0 ],
					"destination" : [ "obj-14", 0 ],
					"hidden" : 0,
					"midpoints" : [ 18.5, 238.0, 18.5, 238.0 ]
				}

			}
, 			{
				"patchline" : 				{
					"source" : [ "obj-13", 0 ],
					"destination" : [ "obj-9", 0 ],
					"hidden" : 0,
					"midpoints" : [ 18.5, 182.0, 18.5, 182.0 ]
				}

			}
, 			{
				"patchline" : 				{
					"source" : [ "obj-6", 0 ],
					"destination" : [ "obj-13", 0 ],
					"hidden" : 0,
					"midpoints" : [ 145.5, 144.0, 18.5, 144.0 ]
				}

			}
, 			{
				"patchline" : 				{
					"source" : [ "obj-10", 0 ],
					"destination" : [ "obj-13", 0 ],
					"hidden" : 0,
					"midpoints" : [ 18.5, 144.0, 18.5, 144.0 ]
				}

			}
, 			{
				"patchline" : 				{
					"source" : [ "obj-12", 0 ],
					"destination" : [ "obj-13", 0 ],
					"hidden" : 0,
					"midpoints" : [ 37.5, 144.0, 18.5, 144.0 ]
				}

			}
, 			{
				"patchline" : 				{
					"source" : [ "obj-5", 0 ],
					"destination" : [ "obj-13", 0 ],
					"hidden" : 0,
					"midpoints" : [ 160.5, 144.0, 18.5, 144.0 ]
				}

			}
, 			{
				"patchline" : 				{
					"source" : [ "obj-7", 0 ],
					"destination" : [ "obj-13", 0 ],
					"hidden" : 0,
					"midpoints" : [ 47.5, 144.0, 18.5, 144.0 ]
				}

			}
, 			{
				"patchline" : 				{
					"source" : [ "obj-11", 0 ],
					"destination" : [ "obj-13", 0 ],
					"hidden" : 0,
					"midpoints" : [ 27.5, 144.0, 18.5, 144.0 ]
				}

			}
 ]
	}

}
