{
	"patcher" : 	{
		"fileversion" : 1,
		"appversion" : 		{
			"major" : 5,
			"minor" : 1,
			"revision" : 9
		}
,
		"rect" : [ 591.0, 226.0, 527.0, 317.0 ],
		"bglocked" : 0,
		"defrect" : [ 591.0, 226.0, 527.0, 317.0 ],
		"openrect" : [ 0.0, 0.0, 0.0, 0.0 ],
		"openinpresentation" : 0,
		"default_fontsize" : 12.0,
		"default_fontface" : 0,
		"default_fontname" : "Arial",
		"gridonopen" : 0,
		"gridsize" : [ 15.0, 15.0 ],
		"gridsnaponopen" : 0,
		"toolbarvisible" : 1,
		"boxanimatetime" : 200,
		"imprint" : 0,
		"enablehscroll" : 1,
		"enablevscroll" : 1,
		"devicewidth" : 0.0,
		"boxes" : [ 			{
				"box" : 				{
					"maxclass" : "message",
					"text" : "depth",
					"fontname" : "Geneva",
					"patching_rect" : [ 383.0, 90.0, 36.0, 17.0 ],
					"id" : "obj-1",
					"fontsize" : 9.0,
					"numinlets" : 2,
					"numoutlets" : 1,
					"outlettype" : [ "" ]
				}

			}
, 			{
				"box" : 				{
					"maxclass" : "message",
					"text" : "setdepth 0",
					"fontname" : "Geneva",
					"patching_rect" : [ 329.0, 125.0, 59.0, 17.0 ],
					"id" : "obj-2",
					"fontsize" : 9.0,
					"numinlets" : 2,
					"numoutlets" : 1,
					"outlettype" : [ "" ]
				}

			}
, 			{
				"box" : 				{
					"maxclass" : "message",
					"text" : "pull",
					"fontname" : "Geneva",
					"patching_rect" : [ 258.0, 90.0, 24.0, 17.0 ],
					"id" : "obj-3",
					"fontsize" : 9.0,
					"numinlets" : 2,
					"numoutlets" : 1,
					"outlettype" : [ "" ]
				}

			}
, 			{
				"box" : 				{
					"maxclass" : "message",
					"text" : "setdepth 6",
					"fontname" : "Geneva",
					"patching_rect" : [ 318.0, 106.0, 58.0, 17.0 ],
					"id" : "obj-4",
					"fontsize" : 9.0,
					"numinlets" : 2,
					"numoutlets" : 1,
					"outlettype" : [ "" ]
				}

			}
, 			{
				"box" : 				{
					"maxclass" : "message",
					"text" : "setdepth 4",
					"fontname" : "Geneva",
					"patching_rect" : [ 306.0, 90.0, 57.0, 17.0 ],
					"id" : "obj-5",
					"fontsize" : 9.0,
					"numinlets" : 2,
					"numoutlets" : 1,
					"outlettype" : [ "" ]
				}

			}
, 			{
				"box" : 				{
					"maxclass" : "newobj",
					"text" : "print depth",
					"fontname" : "Geneva",
					"patching_rect" : [ 115.0, 235.0, 57.0, 19.0 ],
					"id" : "obj-6",
					"fontsize" : 9.0,
					"numinlets" : 1,
					"numoutlets" : 0
				}

			}
, 			{
				"box" : 				{
					"maxclass" : "button",
					"fgcolor" : [ 0.156863, 0.8, 0.54902, 1.0 ],
					"patching_rect" : [ 289.0, 90.0, 15.0, 15.0 ],
					"id" : "obj-7",
					"numinlets" : 1,
					"numoutlets" : 1,
					"outlettype" : [ "bang" ]
				}

			}
, 			{
				"box" : 				{
					"maxclass" : "message",
					"text" : "fetch",
					"fontname" : "Geneva",
					"patching_rect" : [ 224.0, 90.0, 31.0, 17.0 ],
					"id" : "obj-8",
					"fontsize" : 9.0,
					"numinlets" : 2,
					"numoutlets" : 1,
					"outlettype" : [ "" ]
				}

			}
, 			{
				"box" : 				{
					"maxclass" : "newobj",
					"text" : "prepend add",
					"fontname" : "Geneva",
					"patching_rect" : [ 52.0, 138.0, 70.0, 19.0 ],
					"id" : "obj-9",
					"fontsize" : 9.0,
					"numinlets" : 1,
					"numoutlets" : 1,
					"outlettype" : [ "" ]
				}

			}
, 			{
				"box" : 				{
					"maxclass" : "message",
					"text" : "trace",
					"fontname" : "Geneva",
					"patching_rect" : [ 443.0, 123.0, 32.0, 17.0 ],
					"id" : "obj-10",
					"fontsize" : 9.0,
					"numinlets" : 2,
					"numoutlets" : 1,
					"outlettype" : [ "" ]
				}

			}
, 			{
				"box" : 				{
					"maxclass" : "message",
					"text" : "trace off",
					"fontname" : "Geneva",
					"patching_rect" : [ 434.0, 106.0, 48.0, 17.0 ],
					"id" : "obj-11",
					"fontsize" : 9.0,
					"numinlets" : 2,
					"numoutlets" : 1,
					"outlettype" : [ "" ]
				}

			}
, 			{
				"box" : 				{
					"maxclass" : "message",
					"text" : "trace on",
					"fontname" : "Geneva",
					"patching_rect" : [ 426.0, 90.0, 45.0, 17.0 ],
					"id" : "obj-12",
					"fontsize" : 9.0,
					"numinlets" : 2,
					"numoutlets" : 1,
					"outlettype" : [ "" ]
				}

			}
, 			{
				"box" : 				{
					"maxclass" : "message",
					"text" : "clear",
					"fontname" : "Geneva",
					"patching_rect" : [ 190.0, 90.0, 31.0, 17.0 ],
					"id" : "obj-13",
					"fontsize" : 9.0,
					"numinlets" : 2,
					"numoutlets" : 1,
					"outlettype" : [ "" ]
				}

			}
, 			{
				"box" : 				{
					"maxclass" : "newobj",
					"text" : "print Error seen",
					"fontname" : "Geneva",
					"patching_rect" : [ 171.0, 235.0, 81.0, 19.0 ],
					"id" : "obj-14",
					"fontsize" : 9.0,
					"numinlets" : 1,
					"numoutlets" : 0
				}

			}
, 			{
				"box" : 				{
					"maxclass" : "newobj",
					"text" : "print Output",
					"fontname" : "Geneva",
					"patching_rect" : [ 52.0, 235.0, 62.0, 19.0 ],
					"id" : "obj-15",
					"fontsize" : 9.0,
					"numinlets" : 1,
					"numoutlets" : 0
				}

			}
, 			{
				"box" : 				{
					"maxclass" : "newobj",
					"text" : "queue 4",
					"fontname" : "Geneva",
					"patching_rect" : [ 52.0, 179.0, 46.0, 19.0 ],
					"id" : "obj-16",
					"fontsize" : 9.0,
					"color" : [ 1.0, 0.890196, 0.090196, 1.0 ],
					"numinlets" : 1,
					"numoutlets" : 3,
					"outlettype" : [ "", "int", "bang" ]
				}

			}
, 			{
				"box" : 				{
					"maxclass" : "message",
					"text" : "blirg",
					"fontname" : "Geneva",
					"patching_rect" : [ 160.0, 90.0, 29.0, 17.0 ],
					"id" : "obj-17",
					"fontsize" : 9.0,
					"numinlets" : 2,
					"numoutlets" : 1,
					"outlettype" : [ "" ]
				}

			}
, 			{
				"box" : 				{
					"maxclass" : "message",
					"text" : "blorg",
					"fontname" : "Geneva",
					"patching_rect" : [ 129.0, 90.0, 36.0, 17.0 ],
					"id" : "obj-18",
					"fontsize" : 9.0,
					"numinlets" : 2,
					"numoutlets" : 1,
					"outlettype" : [ "" ]
				}

			}
, 			{
				"box" : 				{
					"maxclass" : "comment",
					"text" : "queue",
					"fontname" : "Geneva",
					"patching_rect" : [ 4.0, 24.0, 63.0, 25.0 ],
					"id" : "obj-19",
					"fontsize" : 14.0,
					"numinlets" : 1,
					"numoutlets" : 0
				}

			}
, 			{
				"box" : 				{
					"maxclass" : "comment",
					"text" : "First-in-first-out queue for arbitrary data",
					"fontname" : "Geneva",
					"patching_rect" : [ 4.0, 44.0, 206.0, 19.0 ],
					"id" : "obj-20",
					"fontsize" : 9.0,
					"numinlets" : 1,
					"numoutlets" : 0
				}

			}
, 			{
				"box" : 				{
					"maxclass" : "comment",
					"text" : "Arguments: maximum depth;\rLeft Inlet: command;\rLeft Outlet: list;\rMiddle Outlet: number;\rRight Outlet: bang",
					"linecount" : 5,
					"fontname" : "Geneva",
					"patching_rect" : [ 289.0, 26.0, 168.0, 67.0 ],
					"id" : "obj-21",
					"fontsize" : 9.0,
					"numinlets" : 1,
					"numoutlets" : 0
				}

			}
, 			{
				"box" : 				{
					"maxclass" : "comment",
					"text" : "A queue object stores arbitrary data in received order.",
					"fontname" : "Geneva",
					"patching_rect" : [ 197.0, 186.0, 256.0, 19.0 ],
					"id" : "obj-22",
					"fontsize" : 9.0,
					"numinlets" : 1,
					"numoutlets" : 0
				}

			}
, 			{
				"box" : 				{
					"maxclass" : "message",
					"text" : "blarg",
					"fontname" : "Geneva",
					"patching_rect" : [ 47.0, 90.0, 31.0, 17.0 ],
					"id" : "obj-23",
					"fontsize" : 9.0,
					"numinlets" : 2,
					"numoutlets" : 1,
					"outlettype" : [ "" ]
				}

			}
, 			{
				"box" : 				{
					"maxclass" : "message",
					"text" : "blorg 1",
					"fontname" : "Geneva",
					"patching_rect" : [ 5.0, 90.0, 40.0, 17.0 ],
					"id" : "obj-24",
					"fontsize" : 9.0,
					"numinlets" : 2,
					"numoutlets" : 1,
					"outlettype" : [ "" ]
				}

			}
, 			{
				"box" : 				{
					"maxclass" : "message",
					"text" : "blarg x y",
					"fontname" : "Geneva",
					"patching_rect" : [ 79.0, 90.0, 49.0, 17.0 ],
					"id" : "obj-25",
					"fontsize" : 9.0,
					"numinlets" : 2,
					"numoutlets" : 1,
					"outlettype" : [ "" ]
				}

			}
, 			{
				"box" : 				{
					"maxclass" : "comment",
					"text" : "Commands",
					"linecount" : 2,
					"fontname" : "Geneva",
					"patching_rect" : [ 172.0, 73.0, 53.0, 31.0 ],
					"id" : "obj-26",
					"fontsize" : 9.0,
					"numinlets" : 1,
					"numoutlets" : 0
				}

			}
, 			{
				"box" : 				{
					"maxclass" : "comment",
					"text" : "input data",
					"linecount" : 2,
					"fontname" : "Geneva",
					"patching_rect" : [ 5.0, 73.0, 50.0, 31.0 ],
					"id" : "obj-27",
					"fontsize" : 9.0,
					"numinlets" : 1,
					"numoutlets" : 0
				}

			}
 ],
		"lines" : [ 			{
				"patchline" : 				{
					"source" : [ "obj-16", 2 ],
					"destination" : [ "obj-14", 0 ],
					"hidden" : 0,
					"midpoints" : [ 88.5, 210.0, 180.5, 210.0 ]
				}

			}
, 			{
				"patchline" : 				{
					"source" : [ "obj-16", 1 ],
					"destination" : [ "obj-6", 0 ],
					"hidden" : 0,
					"midpoints" : [ 75.0, 215.0, 124.5, 215.0 ]
				}

			}
, 			{
				"patchline" : 				{
					"source" : [ "obj-16", 0 ],
					"destination" : [ "obj-15", 0 ],
					"hidden" : 0,
					"midpoints" : [ 61.5, 199.0, 61.5, 199.0 ]
				}

			}
, 			{
				"patchline" : 				{
					"source" : [ "obj-4", 0 ],
					"destination" : [ "obj-16", 0 ],
					"hidden" : 0,
					"midpoints" : [ 327.5, 168.0, 61.5, 168.0 ]
				}

			}
, 			{
				"patchline" : 				{
					"source" : [ "obj-5", 0 ],
					"destination" : [ "obj-16", 0 ],
					"hidden" : 0,
					"midpoints" : [ 315.5, 168.0, 61.5, 168.0 ]
				}

			}
, 			{
				"patchline" : 				{
					"source" : [ "obj-7", 0 ],
					"destination" : [ "obj-16", 0 ],
					"hidden" : 0,
					"midpoints" : [ 298.0, 168.0, 61.5, 168.0 ]
				}

			}
, 			{
				"patchline" : 				{
					"source" : [ "obj-9", 0 ],
					"destination" : [ "obj-16", 0 ],
					"hidden" : 0,
					"midpoints" : [ 61.5, 168.0, 61.5, 168.0 ]
				}

			}
, 			{
				"patchline" : 				{
					"source" : [ "obj-8", 0 ],
					"destination" : [ "obj-16", 0 ],
					"hidden" : 0,
					"midpoints" : [ 233.5, 168.0, 61.5, 168.0 ]
				}

			}
, 			{
				"patchline" : 				{
					"source" : [ "obj-10", 0 ],
					"destination" : [ "obj-16", 0 ],
					"hidden" : 0,
					"midpoints" : [ 452.5, 168.0, 61.5, 168.0 ]
				}

			}
, 			{
				"patchline" : 				{
					"source" : [ "obj-11", 0 ],
					"destination" : [ "obj-16", 0 ],
					"hidden" : 0,
					"midpoints" : [ 443.5, 168.0, 61.5, 168.0 ]
				}

			}
, 			{
				"patchline" : 				{
					"source" : [ "obj-12", 0 ],
					"destination" : [ "obj-16", 0 ],
					"hidden" : 0,
					"midpoints" : [ 435.5, 168.0, 61.5, 168.0 ]
				}

			}
, 			{
				"patchline" : 				{
					"source" : [ "obj-13", 0 ],
					"destination" : [ "obj-16", 0 ],
					"hidden" : 0,
					"midpoints" : [ 199.5, 168.0, 61.5, 168.0 ]
				}

			}
, 			{
				"patchline" : 				{
					"source" : [ "obj-3", 0 ],
					"destination" : [ "obj-16", 0 ],
					"hidden" : 0,
					"midpoints" : [ 267.5, 168.0, 61.5, 168.0 ]
				}

			}
, 			{
				"patchline" : 				{
					"source" : [ "obj-2", 0 ],
					"destination" : [ "obj-16", 0 ],
					"hidden" : 0,
					"midpoints" : [ 338.5, 168.0, 61.5, 168.0 ]
				}

			}
, 			{
				"patchline" : 				{
					"source" : [ "obj-1", 0 ],
					"destination" : [ "obj-16", 0 ],
					"hidden" : 0,
					"midpoints" : [ 392.5, 168.0, 61.5, 168.0 ]
				}

			}
, 			{
				"patchline" : 				{
					"source" : [ "obj-24", 0 ],
					"destination" : [ "obj-9", 0 ],
					"hidden" : 0,
					"midpoints" : [ 14.5, 129.0, 61.5, 129.0 ]
				}

			}
, 			{
				"patchline" : 				{
					"source" : [ "obj-23", 0 ],
					"destination" : [ "obj-9", 0 ],
					"hidden" : 0,
					"midpoints" : [ 56.5, 129.0, 61.5, 129.0 ]
				}

			}
, 			{
				"patchline" : 				{
					"source" : [ "obj-25", 0 ],
					"destination" : [ "obj-9", 0 ],
					"hidden" : 0,
					"midpoints" : [ 88.5, 129.0, 61.5, 129.0 ]
				}

			}
, 			{
				"patchline" : 				{
					"source" : [ "obj-18", 0 ],
					"destination" : [ "obj-9", 0 ],
					"hidden" : 0,
					"midpoints" : [ 138.5, 129.0, 61.5, 129.0 ]
				}

			}
, 			{
				"patchline" : 				{
					"source" : [ "obj-17", 0 ],
					"destination" : [ "obj-9", 0 ],
					"hidden" : 0,
					"midpoints" : [ 169.5, 129.0, 61.5, 129.0 ]
				}

			}
 ]
	}

}
