{
	"patcher" : 	{
		"fileversion" : 1,
		"appversion" : 		{
			"major" : 5,
			"minor" : 1,
			"revision" : 9
		}
,
		"rect" : [ 558.0, 363.0, 435.0, 324.0 ],
		"bglocked" : 0,
		"defrect" : [ 558.0, 363.0, 435.0, 324.0 ],
		"openrect" : [ 0.0, 0.0, 0.0, 0.0 ],
		"openinpresentation" : 0,
		"default_fontsize" : 12.0,
		"default_fontface" : 0,
		"default_fontname" : "Arial",
		"gridonopen" : 0,
		"gridsize" : [ 15.0, 15.0 ],
		"gridsnaponopen" : 0,
		"toolbarvisible" : 1,
		"boxanimatetime" : 200,
		"imprint" : 0,
		"enablehscroll" : 1,
		"enablevscroll" : 1,
		"devicewidth" : 0.0,
		"boxes" : [ 			{
				"box" : 				{
					"maxclass" : "button",
					"patching_rect" : [ 33.0, 100.0, 15.0, 15.0 ],
					"id" : "obj-1",
					"numinlets" : 1,
					"numoutlets" : 1,
					"fgcolor" : [ 0.156863, 0.8, 0.54902, 1.0 ],
					"outlettype" : [ "bang" ]
				}

			}
, 			{
				"box" : 				{
					"maxclass" : "newobj",
					"text" : "print",
					"fontsize" : 9.0,
					"patching_rect" : [ 14.0, 229.0, 30.0, 19.0 ],
					"id" : "obj-2",
					"numinlets" : 1,
					"fontname" : "Geneva",
					"numoutlets" : 0
				}

			}
, 			{
				"box" : 				{
					"maxclass" : "message",
					"text" : "2",
					"fontsize" : 9.0,
					"patching_rect" : [ 199.0, 139.0, 16.0, 17.0 ],
					"id" : "obj-3",
					"numinlets" : 2,
					"fontname" : "Geneva",
					"numoutlets" : 1,
					"outlettype" : [ "" ]
				}

			}
, 			{
				"box" : 				{
					"maxclass" : "message",
					"text" : "3",
					"fontsize" : 9.0,
					"patching_rect" : [ 215.0, 139.0, 16.0, 17.0 ],
					"id" : "obj-4",
					"numinlets" : 2,
					"fontname" : "Geneva",
					"numoutlets" : 1,
					"outlettype" : [ "" ]
				}

			}
, 			{
				"box" : 				{
					"maxclass" : "message",
					"text" : "1",
					"fontsize" : 9.0,
					"patching_rect" : [ 184.0, 139.0, 16.0, 17.0 ],
					"id" : "obj-5",
					"numinlets" : 2,
					"fontname" : "Geneva",
					"numoutlets" : 1,
					"outlettype" : [ "" ]
				}

			}
, 			{
				"box" : 				{
					"maxclass" : "message",
					"text" : "bleh blah blih bloh",
					"fontsize" : 9.0,
					"patching_rect" : [ 169.0, 80.0, 93.0, 17.0 ],
					"id" : "obj-6",
					"numinlets" : 2,
					"fontname" : "Geneva",
					"numoutlets" : 1,
					"outlettype" : [ "" ]
				}

			}
, 			{
				"box" : 				{
					"maxclass" : "message",
					"text" : "bleh blah",
					"fontsize" : 9.0,
					"patching_rect" : [ 158.0, 59.0, 51.0, 17.0 ],
					"id" : "obj-7",
					"numinlets" : 2,
					"fontname" : "Geneva",
					"numoutlets" : 1,
					"outlettype" : [ "" ]
				}

			}
, 			{
				"box" : 				{
					"maxclass" : "newobj",
					"text" : "Vjet 2",
					"fontsize" : 9.0,
					"patching_rect" : [ 14.0, 196.0, 41.0, 19.0 ],
					"id" : "obj-8",
					"numinlets" : 2,
					"color" : [ 1.0, 0.890196, 0.090196, 1.0 ],
					"fontname" : "Geneva",
					"numoutlets" : 1,
					"outlettype" : [ "" ]
				}

			}
, 			{
				"box" : 				{
					"maxclass" : "message",
					"text" : "blah blah blah",
					"fontsize" : 9.0,
					"patching_rect" : [ 14.0, 59.0, 68.0, 17.0 ],
					"id" : "obj-9",
					"numinlets" : 2,
					"fontname" : "Geneva",
					"numoutlets" : 1,
					"outlettype" : [ "" ]
				}

			}
, 			{
				"box" : 				{
					"maxclass" : "message",
					"text" : "bluh blah blah",
					"fontsize" : 9.0,
					"patching_rect" : [ 24.0, 79.0, 68.0, 17.0 ],
					"id" : "obj-10",
					"numinlets" : 2,
					"fontname" : "Geneva",
					"numoutlets" : 1,
					"outlettype" : [ "" ]
				}

			}
, 			{
				"box" : 				{
					"maxclass" : "message",
					"text" : "1 2 3 4",
					"fontsize" : 9.0,
					"patching_rect" : [ 91.0, 59.0, 41.0, 17.0 ],
					"id" : "obj-11",
					"numinlets" : 2,
					"fontname" : "Geneva",
					"numoutlets" : 1,
					"outlettype" : [ "" ]
				}

			}
, 			{
				"box" : 				{
					"maxclass" : "message",
					"text" : "1 2 3 blorg",
					"fontsize" : 9.0,
					"patching_rect" : [ 100.0, 79.0, 58.0, 17.0 ],
					"id" : "obj-12",
					"numinlets" : 2,
					"fontname" : "Geneva",
					"numoutlets" : 1,
					"outlettype" : [ "" ]
				}

			}
, 			{
				"box" : 				{
					"maxclass" : "message",
					"text" : "1 2 3 4.5",
					"fontsize" : 9.0,
					"patching_rect" : [ 110.0, 97.0, 50.0, 17.0 ],
					"id" : "obj-13",
					"numinlets" : 2,
					"fontname" : "Geneva",
					"numoutlets" : 1,
					"outlettype" : [ "" ]
				}

			}
, 			{
				"box" : 				{
					"maxclass" : "comment",
					"text" : "Vjet",
					"fontsize" : 14.0,
					"patching_rect" : [ 11.0, 23.0, 37.0, 25.0 ],
					"id" : "obj-14",
					"numinlets" : 1,
					"fontname" : "Geneva",
					"numoutlets" : 0
				}

			}
, 			{
				"box" : 				{
					"maxclass" : "comment",
					"text" : "Breaks up a long list into a sequence of shorter lists.",
					"fontsize" : 9.0,
					"patching_rect" : [ 11.0, 44.0, 241.0, 19.0 ],
					"id" : "obj-15",
					"numinlets" : 1,
					"fontname" : "Geneva",
					"numoutlets" : 0
				}

			}
, 			{
				"box" : 				{
					"maxclass" : "comment",
					"text" : "Argument: int;\rLeft Inlet: list;\rRight Inlet: number;\rOutlet: list",
					"linecount" : 4,
					"fontsize" : 9.0,
					"patching_rect" : [ 255.0, 21.0, 98.0, 55.0 ],
					"id" : "obj-16",
					"numinlets" : 1,
					"fontname" : "Geneva",
					"numoutlets" : 0
				}

			}
, 			{
				"box" : 				{
					"maxclass" : "comment",
					"text" : "The inlet takes an arbitrary list and outputs a series of arbitrary list by extracting subsequences of the list.",
					"linecount" : 2,
					"fontsize" : 9.0,
					"patching_rect" : [ 12.0, 250.0, 299.0, 31.0 ],
					"id" : "obj-17",
					"numinlets" : 1,
					"fontname" : "Geneva",
					"numoutlets" : 0
				}

			}
, 			{
				"box" : 				{
					"maxclass" : "comment",
					"text" : "The argument indicates the number of elements to extract from the list.",
					"linecount" : 2,
					"fontsize" : 9.0,
					"patching_rect" : [ 180.0, 103.0, 237.0, 31.0 ],
					"id" : "obj-18",
					"numinlets" : 1,
					"fontname" : "Geneva",
					"numoutlets" : 0
				}

			}
 ],
		"lines" : [ 			{
				"patchline" : 				{
					"source" : [ "obj-3", 0 ],
					"destination" : [ "obj-8", 1 ],
					"hidden" : 0,
					"midpoints" : [ 208.5, 175.0, 45.5, 175.0 ]
				}

			}
, 			{
				"patchline" : 				{
					"source" : [ "obj-5", 0 ],
					"destination" : [ "obj-8", 1 ],
					"hidden" : 0,
					"midpoints" : [ 193.5, 175.0, 45.5, 175.0 ]
				}

			}
, 			{
				"patchline" : 				{
					"source" : [ "obj-4", 0 ],
					"destination" : [ "obj-8", 1 ],
					"hidden" : 0,
					"midpoints" : [ 224.5, 175.0, 45.5, 175.0 ]
				}

			}
, 			{
				"patchline" : 				{
					"source" : [ "obj-8", 0 ],
					"destination" : [ "obj-2", 0 ],
					"hidden" : 0,
					"midpoints" : [ 23.5, 221.0, 23.5, 221.0 ]
				}

			}
, 			{
				"patchline" : 				{
					"source" : [ "obj-1", 0 ],
					"destination" : [ "obj-8", 0 ],
					"hidden" : 0,
					"midpoints" : [ 42.0, 183.0, 23.5, 183.0 ]
				}

			}
, 			{
				"patchline" : 				{
					"source" : [ "obj-13", 0 ],
					"destination" : [ "obj-8", 0 ],
					"hidden" : 0,
					"midpoints" : [ 119.5, 183.0, 23.5, 183.0 ]
				}

			}
, 			{
				"patchline" : 				{
					"source" : [ "obj-11", 0 ],
					"destination" : [ "obj-8", 0 ],
					"hidden" : 0,
					"midpoints" : [ 100.5, 183.0, 23.5, 183.0 ]
				}

			}
, 			{
				"patchline" : 				{
					"source" : [ "obj-9", 0 ],
					"destination" : [ "obj-8", 0 ],
					"hidden" : 0,
					"midpoints" : [ 23.5, 183.0, 23.5, 183.0 ]
				}

			}
, 			{
				"patchline" : 				{
					"source" : [ "obj-6", 0 ],
					"destination" : [ "obj-8", 0 ],
					"hidden" : 0,
					"midpoints" : [ 178.5, 183.0, 23.5, 183.0 ]
				}

			}
, 			{
				"patchline" : 				{
					"source" : [ "obj-12", 0 ],
					"destination" : [ "obj-8", 0 ],
					"hidden" : 0,
					"midpoints" : [ 109.5, 183.0, 23.5, 183.0 ]
				}

			}
, 			{
				"patchline" : 				{
					"source" : [ "obj-10", 0 ],
					"destination" : [ "obj-8", 0 ],
					"hidden" : 0,
					"midpoints" : [ 33.5, 183.0, 23.5, 183.0 ]
				}

			}
, 			{
				"patchline" : 				{
					"source" : [ "obj-7", 0 ],
					"destination" : [ "obj-8", 0 ],
					"hidden" : 0,
					"midpoints" : [ 167.5, 183.0, 23.5, 183.0 ]
				}

			}
 ]
	}

}
