{
	"patcher" : 	{
		"fileversion" : 1,
		"appversion" : 		{
			"major" : 5,
			"minor" : 1,
			"revision" : 9
		}
,
		"rect" : [ 331.0, 280.0, 424.0, 353.0 ],
		"bglocked" : 0,
		"defrect" : [ 331.0, 280.0, 424.0, 353.0 ],
		"openrect" : [ 0.0, 0.0, 0.0, 0.0 ],
		"openinpresentation" : 0,
		"default_fontsize" : 12.0,
		"default_fontface" : 0,
		"default_fontname" : "Arial",
		"gridonopen" : 0,
		"gridsize" : [ 15.0, 15.0 ],
		"gridsnaponopen" : 0,
		"toolbarvisible" : 1,
		"boxanimatetime" : 200,
		"imprint" : 0,
		"enablehscroll" : 1,
		"enablevscroll" : 1,
		"devicewidth" : 0.0,
		"boxes" : [ 			{
				"box" : 				{
					"maxclass" : "newobj",
					"text" : "s shift",
					"id" : "obj-1",
					"fontname" : "Geneva",
					"patching_rect" : [ 9.0, 159.497375, 43.264462, 19.0 ],
					"color" : [ 1.0, 0.541176, 0.843137, 1.0 ],
					"fontsize" : 9.0,
					"numinlets" : 1,
					"numoutlets" : 0
				}

			}
, 			{
				"box" : 				{
					"maxclass" : "newobj",
					"text" : "s shift",
					"id" : "obj-2",
					"fontname" : "Geneva",
					"patching_rect" : [ 120.0, 159.497375, 39.507889, 19.0 ],
					"color" : [ 1.0, 0.541176, 0.843137, 1.0 ],
					"fontsize" : 9.0,
					"numinlets" : 1,
					"numoutlets" : 0
				}

			}
, 			{
				"box" : 				{
					"maxclass" : "newobj",
					"text" : "s shift",
					"id" : "obj-3",
					"fontname" : "Geneva",
					"patching_rect" : [ 206.0, 159.497375, 41.010517, 19.0 ],
					"color" : [ 1.0, 0.541176, 0.843137, 1.0 ],
					"fontsize" : 9.0,
					"numinlets" : 1,
					"numoutlets" : 0
				}

			}
, 			{
				"box" : 				{
					"maxclass" : "newobj",
					"text" : "s shift",
					"id" : "obj-4",
					"fontname" : "Geneva",
					"patching_rect" : [ 269.0, 159.497375, 39.507889, 19.0 ],
					"color" : [ 1.0, 0.541176, 0.843137, 1.0 ],
					"fontsize" : 9.0,
					"numinlets" : 1,
					"numoutlets" : 0
				}

			}
, 			{
				"box" : 				{
					"maxclass" : "newobj",
					"text" : "s shift",
					"id" : "obj-5",
					"fontname" : "Geneva",
					"patching_rect" : [ 332.0, 159.497375, 38.00526, 19.0 ],
					"color" : [ 1.0, 0.541176, 0.843137, 1.0 ],
					"fontsize" : 9.0,
					"numinlets" : 1,
					"numoutlets" : 0
				}

			}
, 			{
				"box" : 				{
					"maxclass" : "newobj",
					"text" : "r shift",
					"id" : "obj-6",
					"outlettype" : [ "" ],
					"fontname" : "Geneva",
					"patching_rect" : [ 10.0, 194.0, 35.0, 19.0 ],
					"color" : [ 1.0, 0.541176, 0.843137, 1.0 ],
					"fontsize" : 9.0,
					"numinlets" : 0,
					"numoutlets" : 1
				}

			}
, 			{
				"box" : 				{
					"maxclass" : "message",
					"text" : "bleh",
					"id" : "obj-7",
					"outlettype" : [ "" ],
					"fontname" : "Geneva",
					"patching_rect" : [ 154.259201, 124.0, 29.005259, 17.0 ],
					"fontsize" : 9.0,
					"numinlets" : 2,
					"numoutlets" : 1
				}

			}
, 			{
				"box" : 				{
					"maxclass" : "message",
					"text" : "-1",
					"id" : "obj-8",
					"outlettype" : [ "" ],
					"fontname" : "Geneva",
					"patching_rect" : [ 291.0, 106.0, 19.0, 17.0 ],
					"fontsize" : 9.0,
					"numinlets" : 2,
					"numoutlets" : 1
				}

			}
, 			{
				"box" : 				{
					"maxclass" : "message",
					"text" : "1",
					"id" : "obj-9",
					"outlettype" : [ "" ],
					"fontname" : "Geneva",
					"patching_rect" : [ 280.0, 87.0, 16.0, 17.0 ],
					"fontsize" : 9.0,
					"numinlets" : 2,
					"numoutlets" : 1
				}

			}
, 			{
				"box" : 				{
					"maxclass" : "button",
					"id" : "obj-10",
					"outlettype" : [ "bang" ],
					"fgcolor" : [ 0.156863, 0.8, 0.54902, 1.0 ],
					"patching_rect" : [ 269.0, 69.0, 15.0, 15.0 ],
					"numinlets" : 1,
					"numoutlets" : 1
				}

			}
, 			{
				"box" : 				{
					"maxclass" : "message",
					"text" : "0",
					"id" : "obj-11",
					"outlettype" : [ "" ],
					"fontname" : "Geneva",
					"patching_rect" : [ 228.0, 106.0, 16.0, 17.0 ],
					"fontsize" : 9.0,
					"numinlets" : 2,
					"numoutlets" : 1
				}

			}
, 			{
				"box" : 				{
					"maxclass" : "message",
					"text" : "27",
					"id" : "obj-12",
					"outlettype" : [ "" ],
					"fontname" : "Geneva",
					"patching_rect" : [ 217.0, 87.0, 20.0, 17.0 ],
					"fontsize" : 9.0,
					"numinlets" : 2,
					"numoutlets" : 1
				}

			}
, 			{
				"box" : 				{
					"maxclass" : "message",
					"text" : "13.5",
					"id" : "obj-13",
					"outlettype" : [ "" ],
					"fontname" : "Geneva",
					"patching_rect" : [ 206.0, 69.0, 29.0, 17.0 ],
					"fontsize" : 9.0,
					"numinlets" : 2,
					"numoutlets" : 1
				}

			}
, 			{
				"box" : 				{
					"maxclass" : "message",
					"text" : "1 2 0 blorg -5",
					"id" : "obj-14",
					"outlettype" : [ "" ],
					"fontname" : "Geneva",
					"patching_rect" : [ 45.0, 124.0, 72.0, 17.0 ],
					"fontsize" : 9.0,
					"numinlets" : 2,
					"numoutlets" : 1
				}

			}
, 			{
				"box" : 				{
					"maxclass" : "message",
					"text" : "bluh 0 37.5",
					"id" : "obj-15",
					"outlettype" : [ "" ],
					"fontname" : "Geneva",
					"patching_rect" : [ 34.0, 106.0, 59.0, 17.0 ],
					"fontsize" : 9.0,
					"numinlets" : 2,
					"numoutlets" : 1
				}

			}
, 			{
				"box" : 				{
					"maxclass" : "message",
					"text" : "blah blah blah bluh",
					"id" : "obj-16",
					"outlettype" : [ "" ],
					"fontname" : "Geneva",
					"patching_rect" : [ 9.0, 69.0, 89.0, 17.0 ],
					"fontsize" : 9.0,
					"numinlets" : 2,
					"numoutlets" : 1
				}

			}
, 			{
				"box" : 				{
					"maxclass" : "message",
					"text" : "bluh 0 37.5 bleh",
					"id" : "obj-17",
					"outlettype" : [ "" ],
					"fontname" : "Geneva",
					"patching_rect" : [ 22.0, 87.0, 80.0, 17.0 ],
					"fontsize" : 9.0,
					"numinlets" : 2,
					"numoutlets" : 1
				}

			}
, 			{
				"box" : 				{
					"maxclass" : "message",
					"text" : "1 2 -3 4 0 5",
					"id" : "obj-18",
					"outlettype" : [ "" ],
					"fontname" : "Geneva",
					"patching_rect" : [ 120.0, 69.0, 64.0, 17.0 ],
					"fontsize" : 9.0,
					"numinlets" : 2,
					"numoutlets" : 1
				}

			}
, 			{
				"box" : 				{
					"maxclass" : "message",
					"text" : "1 2 0 blorg pi",
					"id" : "obj-19",
					"outlettype" : [ "" ],
					"fontname" : "Geneva",
					"patching_rect" : [ 131.0, 87.0, 69.0, 17.0 ],
					"fontsize" : 9.0,
					"numinlets" : 2,
					"numoutlets" : 1
				}

			}
, 			{
				"box" : 				{
					"maxclass" : "message",
					"text" : "1 2 3 4.5 42",
					"id" : "obj-20",
					"outlettype" : [ "" ],
					"fontname" : "Geneva",
					"patching_rect" : [ 142.0, 106.0, 65.0, 17.0 ],
					"fontsize" : 9.0,
					"numinlets" : 2,
					"numoutlets" : 1
				}

			}
, 			{
				"box" : 				{
					"maxclass" : "newobj",
					"text" : "prepend set",
					"id" : "obj-21",
					"outlettype" : [ "" ],
					"fontname" : "Geneva",
					"patching_rect" : [ 182.0, 273.0, 61.502628, 19.0 ],
					"fontsize" : 9.0,
					"numinlets" : 1,
					"numoutlets" : 1
				}

			}
, 			{
				"box" : 				{
					"maxclass" : "message",
					"text" : "blorg",
					"id" : "obj-22",
					"outlettype" : [ "" ],
					"fontname" : "Geneva",
					"patching_rect" : [ 182.0, 313.0, 148.0, 17.0 ],
					"fontsize" : 9.0,
					"numinlets" : 2,
					"numoutlets" : 1
				}

			}
, 			{
				"box" : 				{
					"maxclass" : "newobj",
					"text" : "prepend set",
					"id" : "obj-23",
					"outlettype" : [ "" ],
					"fontname" : "Geneva",
					"patching_rect" : [ 10.0, 273.0, 63.756573, 19.0 ],
					"fontsize" : 9.0,
					"numinlets" : 1,
					"numoutlets" : 1
				}

			}
, 			{
				"box" : 				{
					"maxclass" : "message",
					"text" : "BLORG",
					"id" : "obj-24",
					"outlettype" : [ "" ],
					"fontname" : "Geneva",
					"patching_rect" : [ 10.0, 313.0, 145.0, 17.0 ],
					"fontsize" : 9.0,
					"numinlets" : 2,
					"numoutlets" : 1
				}

			}
, 			{
				"box" : 				{
					"maxclass" : "message",
					"text" : "BLIRG",
					"id" : "obj-25",
					"outlettype" : [ "" ],
					"fontname" : "Geneva",
					"patching_rect" : [ 371.0, 124.0, 34.0, 17.0 ],
					"fontsize" : 9.0,
					"numinlets" : 2,
					"numoutlets" : 1
				}

			}
, 			{
				"box" : 				{
					"maxclass" : "message",
					"text" : "BlArG",
					"id" : "obj-26",
					"outlettype" : [ "" ],
					"fontname" : "Geneva",
					"patching_rect" : [ 355.0, 106.0, 35.0, 17.0 ],
					"fontsize" : 9.0,
					"numinlets" : 2,
					"numoutlets" : 1
				}

			}
, 			{
				"box" : 				{
					"maxclass" : "message",
					"text" : "bLoRg",
					"id" : "obj-27",
					"outlettype" : [ "" ],
					"fontname" : "Geneva",
					"patching_rect" : [ 343.0, 87.0, 41.0, 17.0 ],
					"fontsize" : 9.0,
					"numinlets" : 2,
					"numoutlets" : 1
				}

			}
, 			{
				"box" : 				{
					"maxclass" : "newobj",
					"text" : "caseShift down",
					"id" : "obj-28",
					"outlettype" : [ "" ],
					"fontname" : "Geneva",
					"patching_rect" : [ 182.0, 238.0, 75.0, 19.0 ],
					"color" : [ 1.0, 0.890196, 0.090196, 1.0 ],
					"fontsize" : 9.0,
					"numinlets" : 1,
					"numoutlets" : 1
				}

			}
, 			{
				"box" : 				{
					"maxclass" : "newobj",
					"text" : "caseShift up",
					"id" : "obj-29",
					"outlettype" : [ "" ],
					"fontname" : "Geneva",
					"patching_rect" : [ 10.0, 238.0, 63.0, 19.0 ],
					"color" : [ 1.0, 0.890196, 0.090196, 1.0 ],
					"fontsize" : 9.0,
					"numinlets" : 1,
					"numoutlets" : 1
				}

			}
, 			{
				"box" : 				{
					"maxclass" : "message",
					"text" : "blirg",
					"id" : "obj-30",
					"outlettype" : [ "" ],
					"fontname" : "Geneva",
					"patching_rect" : [ 332.0, 69.0, 29.0, 17.0 ],
					"fontsize" : 9.0,
					"numinlets" : 2,
					"numoutlets" : 1
				}

			}
, 			{
				"box" : 				{
					"maxclass" : "comment",
					"text" : "caseShift",
					"id" : "obj-31",
					"fontname" : "Geneva",
					"patching_rect" : [ 7.0, 24.0, 80.0, 25.0 ],
					"fontsize" : 14.0,
					"numinlets" : 1,
					"numoutlets" : 0
				}

			}
, 			{
				"box" : 				{
					"maxclass" : "comment",
					"text" : "Change the case of anything",
					"id" : "obj-32",
					"fontname" : "Geneva",
					"patching_rect" : [ 7.0, 44.0, 135.0, 19.0 ],
					"fontsize" : 9.0,
					"numinlets" : 1,
					"numoutlets" : 0
				}

			}
, 			{
				"box" : 				{
					"maxclass" : "comment",
					"text" : "Argument: direction;\rInlet: anything;\rOutlet: anything",
					"linecount" : 3,
					"id" : "obj-33",
					"fontname" : "Geneva",
					"patching_rect" : [ 248.0, 21.0, 102.0, 43.0 ],
					"fontsize" : 9.0,
					"numinlets" : 1,
					"numoutlets" : 0
				}

			}
, 			{
				"box" : 				{
					"maxclass" : "message",
					"text" : "blarg",
					"id" : "obj-34",
					"outlettype" : [ "" ],
					"fontname" : "Geneva",
					"patching_rect" : [ 239.0, 124.0, 31.0, 17.0 ],
					"fontsize" : 9.0,
					"numinlets" : 2,
					"numoutlets" : 1
				}

			}
, 			{
				"box" : 				{
					"maxclass" : "message",
					"text" : "blorg",
					"id" : "obj-35",
					"outlettype" : [ "" ],
					"fontname" : "Geneva",
					"patching_rect" : [ 302.0, 124.0, 31.0, 17.0 ],
					"fontsize" : 9.0,
					"numinlets" : 2,
					"numoutlets" : 1
				}

			}
 ],
		"lines" : [ 			{
				"patchline" : 				{
					"source" : [ "obj-16", 0 ],
					"destination" : [ "obj-1", 0 ],
					"hidden" : 0,
					"midpoints" : [ 18.5, 122.0, 18.5, 122.0 ]
				}

			}
, 			{
				"patchline" : 				{
					"source" : [ "obj-17", 0 ],
					"destination" : [ "obj-1", 0 ],
					"hidden" : 0,
					"midpoints" : [ 31.5, 131.0, 18.5, 131.0 ]
				}

			}
, 			{
				"patchline" : 				{
					"source" : [ "obj-15", 0 ],
					"destination" : [ "obj-1", 0 ],
					"hidden" : 0,
					"midpoints" : [ 43.5, 141.0, 18.5, 141.0 ]
				}

			}
, 			{
				"patchline" : 				{
					"source" : [ "obj-14", 0 ],
					"destination" : [ "obj-1", 0 ],
					"hidden" : 0,
					"midpoints" : [ 54.5, 150.0, 18.5, 150.0 ]
				}

			}
, 			{
				"patchline" : 				{
					"source" : [ "obj-6", 0 ],
					"destination" : [ "obj-29", 0 ],
					"hidden" : 0,
					"midpoints" : [ 19.5, 222.0, 19.5, 222.0 ]
				}

			}
, 			{
				"patchline" : 				{
					"source" : [ "obj-29", 0 ],
					"destination" : [ "obj-23", 0 ],
					"hidden" : 0,
					"midpoints" : [ 19.5, 264.0, 19.5, 264.0 ]
				}

			}
, 			{
				"patchline" : 				{
					"source" : [ "obj-23", 0 ],
					"destination" : [ "obj-24", 0 ],
					"hidden" : 0,
					"midpoints" : [ 19.5, 301.0, 19.5, 301.0 ]
				}

			}
, 			{
				"patchline" : 				{
					"source" : [ "obj-18", 0 ],
					"destination" : [ "obj-2", 0 ],
					"hidden" : 0,
					"midpoints" : [ 129.5, 122.0, 129.5, 122.0 ]
				}

			}
, 			{
				"patchline" : 				{
					"source" : [ "obj-19", 0 ],
					"destination" : [ "obj-2", 0 ],
					"hidden" : 0,
					"midpoints" : [ 140.5, 131.0, 129.5, 131.0 ]
				}

			}
, 			{
				"patchline" : 				{
					"source" : [ "obj-20", 0 ],
					"destination" : [ "obj-2", 0 ],
					"hidden" : 0,
					"midpoints" : [ 151.5, 141.0, 129.5, 141.0 ]
				}

			}
, 			{
				"patchline" : 				{
					"source" : [ "obj-7", 0 ],
					"destination" : [ "obj-2", 0 ],
					"hidden" : 0,
					"midpoints" : [ 163.759201, 150.0, 129.5, 150.0 ]
				}

			}
, 			{
				"patchline" : 				{
					"source" : [ "obj-6", 0 ],
					"destination" : [ "obj-28", 0 ],
					"hidden" : 0,
					"midpoints" : [ 19.5, 222.0, 191.5, 222.0 ]
				}

			}
, 			{
				"patchline" : 				{
					"source" : [ "obj-28", 0 ],
					"destination" : [ "obj-21", 0 ],
					"hidden" : 0,
					"midpoints" : [ 191.5, 263.0, 191.5, 263.0 ]
				}

			}
, 			{
				"patchline" : 				{
					"source" : [ "obj-21", 0 ],
					"destination" : [ "obj-22", 0 ],
					"hidden" : 0,
					"midpoints" : [ 191.5, 300.0, 191.5, 300.0 ]
				}

			}
, 			{
				"patchline" : 				{
					"source" : [ "obj-13", 0 ],
					"destination" : [ "obj-3", 0 ],
					"hidden" : 0,
					"midpoints" : [ 215.5, 122.0, 215.5, 122.0 ]
				}

			}
, 			{
				"patchline" : 				{
					"source" : [ "obj-12", 0 ],
					"destination" : [ "obj-3", 0 ],
					"hidden" : 0,
					"midpoints" : [ 226.5, 131.0, 215.5, 131.0 ]
				}

			}
, 			{
				"patchline" : 				{
					"source" : [ "obj-11", 0 ],
					"destination" : [ "obj-3", 0 ],
					"hidden" : 0,
					"midpoints" : [ 237.5, 141.0, 215.5, 141.0 ]
				}

			}
, 			{
				"patchline" : 				{
					"source" : [ "obj-34", 0 ],
					"destination" : [ "obj-3", 0 ],
					"hidden" : 0,
					"midpoints" : [ 248.5, 150.0, 215.5, 150.0 ]
				}

			}
, 			{
				"patchline" : 				{
					"source" : [ "obj-10", 0 ],
					"destination" : [ "obj-4", 0 ],
					"hidden" : 0,
					"midpoints" : [ 278.0, 122.0, 278.5, 122.0 ]
				}

			}
, 			{
				"patchline" : 				{
					"source" : [ "obj-9", 0 ],
					"destination" : [ "obj-4", 0 ],
					"hidden" : 0,
					"midpoints" : [ 289.5, 131.0, 278.5, 131.0 ]
				}

			}
, 			{
				"patchline" : 				{
					"source" : [ "obj-8", 0 ],
					"destination" : [ "obj-4", 0 ],
					"hidden" : 0,
					"midpoints" : [ 300.5, 141.0, 278.5, 141.0 ]
				}

			}
, 			{
				"patchline" : 				{
					"source" : [ "obj-35", 0 ],
					"destination" : [ "obj-4", 0 ],
					"hidden" : 0,
					"midpoints" : [ 311.5, 150.0, 278.5, 150.0 ]
				}

			}
, 			{
				"patchline" : 				{
					"source" : [ "obj-30", 0 ],
					"destination" : [ "obj-5", 0 ],
					"hidden" : 0,
					"midpoints" : [ 341.5, 122.0, 341.5, 122.0 ]
				}

			}
, 			{
				"patchline" : 				{
					"source" : [ "obj-27", 0 ],
					"destination" : [ "obj-5", 0 ],
					"hidden" : 0,
					"midpoints" : [ 352.5, 131.0, 341.5, 131.0 ]
				}

			}
, 			{
				"patchline" : 				{
					"source" : [ "obj-26", 0 ],
					"destination" : [ "obj-5", 0 ],
					"hidden" : 0,
					"midpoints" : [ 364.5, 141.0, 341.5, 141.0 ]
				}

			}
, 			{
				"patchline" : 				{
					"source" : [ "obj-25", 0 ],
					"destination" : [ "obj-5", 0 ],
					"hidden" : 0,
					"midpoints" : [ 380.5, 150.0, 341.5, 150.0 ]
				}

			}
 ]
	}

}
